<?xml version="1.0" encoding="utf-8"?>
<!-- Generator: Adobe Illustrator 26.3.0, SVG Export Plug-In . SVG Version: 6.00 Build 0)  -->
<svg version="1.1" id="Layer_1" xmlns="http://www.w3.org/2000/svg" xmlns:xlink="http://www.w3.org/1999/xlink" x="0px" y="0px"
	 viewBox="0 0 500 300" style="enable-background:new 0 0 500 300;" xml:space="preserve">
<style type="text/css">
	.st0{fill:#286471;}
</style>
<g>
	<path class="st0" d="M472,60.3l13.8,131.3L28,239.7L14.2,108.4L472,60.3 M482.7,47.1L1,97.7l16.3,155.1L499,202.3L482.7,47.1
		L482.7,47.1z"/>
</g>
<g>
	<path class="st0" d="M81.1,198.1l7.3-0.8c6.9-0.7,14.1-1.6,17.1-2.2l1.8,17.1c-3,0-10.3,0.5-17.2,1.3l-22.3,2.3
		c-0.6-7.4-1.5-18.1-2.1-24.2l-4.6-44.2c-1-9.3-2.3-19.9-2.9-23.9l21.5-2.3c6.8-0.7,14-1.9,17.1-2.5l1.8,17.2
		c-3.2-0.1-10.4,0.5-17.2,1.3l-6.5,0.7l2.1,20.1l5.7-0.6c6.8-0.7,13.4-1.7,16.5-2.3l1.8,17.1c-3.1,0.1-9.8,0.5-16.6,1.2l-5.7,0.6
		L81.1,198.1z"/>
	<path class="st0" d="M113.7,211c2.7-5.7,5.7-13.5,8.7-21.8l9.2-27l-14.4-24.1c-4.5-7.6-9.2-15-12.6-19.5l17.7-1.9
		c2.2,4.1,3.9,7.6,6.7,12.4l8.9,15.7l5.6-17.5c1.5-5.2,2.7-9.6,3.7-13.2l16.5-1.7c-2.6,5.4-5.7,14-8.2,20.9l-9,25.7l14.8,24.3
		c4.8,8.2,10.3,16.5,13.8,21.2l-18,1.9c-1.3-2.6-3.4-6.7-6.7-12.4l-10.1-17.5l-6.6,20.9c-1.9,6.7-2.8,9.1-3.2,11.8L113.7,211z"/>
	<path class="st0" d="M195.1,178.1c1,9.2,2.2,19.9,2.9,24.1l-15.4,1.6c-0.1-4.2-1.1-15-2-24.2l-4.8-45.3c-1-9.2-2.2-18.8-2.9-22.9
		l21.5-2.3c15.6-1.6,25.8,10,27.6,27.2c1.8,17.4-6,30.5-21.5,32.1l-6.4,0.7L195.1,178.1z M192.7,154.5l4.8-0.5
		c7.3-0.8,10.8-8.9,10.1-16.2c-0.8-7.4-5.6-14.5-13.2-13.7l-4.8,0.5L192.7,154.5z"/>
	<path class="st0" d="M252,172.1c1,9.2,2.3,19.9,2.9,24.1l-15.2,1.6c-0.2-4.2-1.2-15-2.1-24.2l-4.6-44.1c-1-9.2-2.3-20.1-2.9-24.1
		l15.2-1.6c0.2,4.1,1.2,15,2.1,24.2L252,172.1z"/>
	<path class="st0" d="M282.4,169.2c1,9.2,2.2,19.7,2.9,23.8l-15.2,1.6c-0.2-4.2-1.1-14.7-2.1-23.9l-4.7-44.3
		c-1-9.2-2.3-20.1-2.9-24.1l20.5-2.2c16.5-1.7,26.8,9.4,28.5,26.2c1.5,14.6-4,22.6-10.9,26.5c9.1,11,18.3,26.1,28,35.9l-19,2
		c-5.2-6.8-15.7-22.5-21.1-33.5c-0.7,0.2-1.3,0.3-1.9,0.3l-3.3,0.3L282.4,169.2z M279.8,144l5.5-0.6c6.5-0.7,10.4-7,9.6-15
		c-0.8-7.3-5.4-13.6-13.1-12.8l-4.9,0.5L279.8,144z"/>
	<path class="st0" d="M345.2,170.4l7.3-0.8c6.9-0.7,14.1-1.6,17.1-2.2l1.8,17.1c-3,0-10.3,0.5-17.2,1.3l-22.3,2.3
		c-0.6-7.4-1.5-18.1-2.1-24.2l-4.6-44.2c-1-9.3-2.3-19.9-2.9-23.9l21.5-2.3c6.8-0.7,14-1.9,17.1-2.5l1.8,17.2
		c-3.2-0.1-10.4,0.5-17.2,1.3l-6.5,0.7l2.1,20.1l5.7-0.6c6.8-0.7,13.4-1.7,16.5-2.3l1.8,17.1c-3.1,0.1-9.8,0.5-16.6,1.2l-5.7,0.6
		L345.2,170.4z"/>
	<path class="st0" d="M383.4,182.7c-0.1-4.2-1.1-15-2-24.2l-4.6-44.1c-1-9.2-2.3-20.1-3-24.1l24-2.5c19-2,36.7,17,39.4,42.5
		c2.7,25.5-10.7,47.8-29.7,49.8L383.4,182.7z M396.8,165.2l7.8-0.8c11.7-1.2,19.6-16.1,17.9-32.5c-1.7-16.3-12.5-29.2-24.3-28
		l-7.7,0.8L396.8,165.2z"/>
</g>
</svg>
