<?xml version="1.0" encoding="UTF-8"?><svg id="a" xmlns="http://www.w3.org/2000/svg" viewBox="0 0 1000 895.79"><defs><style>.b{fill:#e3ebf7;}.c{fill:#d7e2f4;}.d{fill:#2f2e41;}.e{fill:#358597;}.f{fill:#fcfdfd;}.g{opacity:.9;}.h{fill:#027feb;}.i{fill:#057deb;}.j{fill:#edf2f8;}.k{fill:#0585eb;}.l{fill:#21292f;}.m{fill:#ffb8b8;}.n{fill:#fcfbf8;}</style></defs><path class="c" d="M793.15,357.7c0,93.39,0,186.79-.03,280.18,0,25.5-9.55,35.06-35,35.06-128.26,.02-256.53,.02-384.79,0-22.35,0-32.44-9.96-32.45-32.07-.07-110.61-.1-221.22-.14-331.83,5.17,.6,10.33,1.19,15.5,1.79,.97,.79,1.92,2.25,2.9,2.26,20.31,.28,40.62,.45,60.93,.45,1.24,0,27.75,.14,32.19,.14,105.02,.11,210.04,.11,315.06,.02,4.49,0,9.63,1.76,13.15-2.97,1.59,0,3.18,0,4.77,0,13.05,6.78,6.32,19,7.96,28.92-.01,6.02-.03,12.03-.04,18.05Zm-226.18,224.88c62.13,1.98,115.91-50.59,114.74-115.25-1.16-64.01-49.1-112.95-114.04-114.31-61.94-1.29-116.23,50.56-116.46,115.29-.21,59.62,52.52,118.24,115.76,114.27Z"/><path class="j" d="M793.15,357.7c.01-6.02,.03-12.03,.04-18.05,13.33,0,26.68-.46,39.99,.14,8.9,.4,12.09-2.46,11.86-11.63-.56-22.35-.66-44.73,.04-67.08,.32-10.1-3.54-12.23-12.76-12.09-30.96,.48-61.94,.63-92.89-.05-11.7-.26-16.96,3.67-16.06,15.35-5.17,0-10.35,.01-15.52,.02,.01-39.61,.2-79.22,0-118.83-.38-71.87,51.87-133.09,122.6-143.49,38.01-5.59,74.92-.26,107.83,25.46,40.42,31.59,61.77,70.79,61.68,121.95-.11,63.29-.1,126.58,.04,189.87,.02,11.11-.88,16.03-15.96,16.85-63.66,3.49-127.28,.11-190.88,1.56Zm128.58-18.07c16.76,0,33.52-.22,50.28,.11,7.05,.14,10.04-2.09,9.94-9.54-.31-24.06-.27-48.13-.03-72.19,.07-6.83-2.76-8.93-9.23-8.9-33.52,.18-67.04,.18-100.56,0-6.44-.03-9.34,2-9.27,8.86,.25,24.06,.28,48.13-.03,72.19-.1,7.41,2.82,9.72,9.9,9.57,16.32-.34,32.66-.11,48.99-.11Zm-.99-108.55c16.79,0,33.59-.22,50.37,.1,7.52,.14,12.98-3.86,12.15-10.2-2.98-22.77-.41-45.53-1.47-68.26-.14-2.95,.15-5.7-4.68-5.73-31.7-.19-63.4-.79-95.11-1.08-3.35-.03-6.69,1.42-10.07,1.66-6.99,.51-9.25,4-9.12,10.94,.38,20.66,.5,41.34-.03,61.99-.23,8.89,3.42,10.97,11.47,10.72,15.49-.47,31-.14,46.5-.15Zm-136.22-100.78c15.91,0,31.85-.66,47.71,.23,10.69,.6,13.04-3.53,12.83-13.33-.57-26.64-.19-53.3-.2-79.95,0-17.94-4.17-21.12-21.41-17.46-43.79,9.29-90.49,55.48-95.93,101-1.02,8.56,1.05,9.63,8,9.56,16.33-.17,32.67-.05,49.01-.05Zm.32,18.09c-16.79,0-33.58,.04-50.37-.02-5.64-.02-11.09,.89-10.87,7.87,.69,22.28-2.34,44.61,1.99,66.88,1.37,7.04,4.46,8.04,10.29,8.02,33.15-.12,66.3-.21,99.45,.05,7.37,.06,9.74-2.74,9.63-9.88-.31-21.09-.31-42.19,0-63.28,.11-7.25-2.5-9.91-9.76-9.76-16.78,.35-33.58,.11-50.37,.11Zm136.26-18.1c9.9,0,19.79,0,29.69,0,31.68,0,34.85-4.93,22.42-35.06-.49-1.19-1.03-2.37-1.66-3.5-20.81-36.94-48.82-64.33-92.82-71.32-14.61-2.32-15.49-2.09-15.82,12.37-.67,30.05,1.75,60.15-1.35,90.17-.77,7.41,4.47,7.25,9.21,7.28,16.78,.12,33.56,.05,50.34,.06Z"/><path class="b" d="M901.69,807.12c-3.55-8.02-11.09-11.37-18.09-15.27-7.98-4.43-9.66-10.43-4.99-18.22,1.1-1.84,2.82-3.4,3.55-5.35,7.5-19.96,10.52-23.48-11.91-31.36-5.97-2.1-14.13-3.26-14.92-12.2-.83-9.38,5.93-14.94,12.69-17.67,24.64-9.93,25.87-38.04,11.6-57.32-7.02-9.48-7.62-20.09-5.76-30.69,2.08-11.86,19.24-17.75,31.94-10.9,8.23,4.44,16.47,9.66,23.02,16.22,8.37,8.38,16.86,9.13,26.84,4.84,6.49-2.79,14.34-5.97,18.92,.45,4.99,6.99,3.25,16.1-2.41,22.76-6.09,7.17-13.02,13.75-20.23,19.82-10.99,9.25-11.35,15.73-.34,24.44,11.74,9.29,13.24,18.35,4.88,31.19-2.8,4.3-6.37,8.1-9.18,12.39-5.32,8.14-6.3,16.41-1.09,25.32,10.55,18.05,10.23,17.96-6.71,31.55-3.43,2.75-8.79,4.27-9.31,9.95-9.5,.01-19.01,.02-28.51,.03Z"/><path class="d" d="M238.52,692.52c-2.79,41.13-4.68,82.32-6.95,123.48-2.09,1.94-1.65,4.37-1.27,6.77-.28,1.65-.59,3.28-.88,4.94l-.23-.28c-6.72,.28-13.44,.57-20.19,.88-5.82-21.23-4.86-43.28-7.73-64.84-5.87-44.08-2.09-89.72-21.05-131.7-4.86-9.88-9.72-19.75-14.56-29.63-.78,.21-1.55,.41-2.3,.62-6.28,57.89-12.54,115.78-18.8,173.64-1.53,19.05-.62,38.45-7.89,56.7-5.92-.1-11.84-.21-17.76-.31-4.96-21.92-5.04-44.39-6.54-66.63-4.91-73.43-10.14-146.91-4.16-220.54,.78-9.36,1.06-18.9,5.51-27.59-.28-.8-.31-1.63-.03-2.46,28.28-.65,56.7,2.82,84.85-2.33l-.1-.72c4.99,5.53,8.4,12.64,15.8,15.77,3.36,27.17,13.03,52.9,18.59,79.61,5.84,28.1,7.63,56.08,5.69,84.62Z"/><path class="j" d="M234.96,843.54c23.72,7.64,48.84,5.41,72.96,10.33,14.63,2.99,29.37,5.46,43.99,8.51,3.82,.8,6.91,3.02,7.09,7.93,.19,5.08-2.78,6.68-6.82,7.74-19.01,4.99-38.12,10.47-57.67,11.73-48.73,3.15-97.57,8.08-146.38,5.06-44.63-2.76-89.87-1.58-133.44-14.7-3.28-.99-6.43-1.63-9.43-3.62-7.78-5.15-6.51-9.26,1-12.84,12.16-5.79,25.6-7.34,38.55-9.13,24.09-3.34,48.3-6.94,72.81-5.87,.38,3.46,.76,6.92,1.14,10.38,.47,4.51-3.93,11.87,4.03,12.43,16.42,1.14,32.99,2.83,51.95,.02-7.56-5.8-13.09-10.05-19.93-12.31-.75-.3-1.53-.5-2.33-.58l.11,.06c.35-4.7-4.85-5.93-6.05-9.66,4.27-2.12,8.56-4.35,13.31-1.32,2.48,1.58,4.76,4.22,7.99,1.84,8.55-6.31,18.31-2.26,27.47-3.36,6.97-.83,8.53,2.96,8.93,9.21,.17,2.71-4.56,8.84,3.51,8.8,.6,1.54,.91,4.2,1.85,4.44,17.51,4.53,35.19,3.77,52.97,2.53-10.57-8.62-21.04-15.95-29.23-25.96,.54-.56,1.09-1.12,1.63-1.68Z"/><path class="b" d="M535.47,729.86c18.07,0,36.14-.17,54.21,.09,6.4,.09,10.5-.95,14.18-7.57,8.74-15.71,24.19-17.58,40.28-15.54,10.86,1.38,22.79,14.83,24.76,26.86,2.19,13.36-4.99,28.34-17.35,36.13-11.67,7.35-37.05,7.3-46.23-10.6-3.85-7.51-8.84-8.82-16.38-8.9-21.46-.22-42.97,1.76-64.36-1.11-4.97-.67-8.03,.62-6.67,5.88,1.45,5.59-1.34,8.93-5.63,9.74-5.23,.99-5.71-3.81-6.02-7.81-.26-3.42-.21-7.84-4.79-7.59-4.23,.23-2.91,4.69-2.85,7.34,.14,6-4.15,7.15-8.35,7.86-5.81,.98-4.21-3.88-4.66-6.9-.43-2.88,.23-6.67-4.22-6.48-3.43,.14-3.42,3.34-3.5,5.87-.16,5.36-3.33,8.27-8.15,7.74-4.99-.55-4.56-5.33-4.83-9.19-1.82-25.67-1.68-25.83,24.09-25.83,15.49,0,30.98,0,46.47,0Zm115.46,2.72c-5.39,.35-7.46,3.42-7.62,8.4-.15,4.78,1.91,7.07,6.78,6.93,4.93-.14,8.26-2.07,8.46-7.37,.19-5.2-2.62-7.77-7.62-7.96Z"/><path class="e" d="M121.06,334.43c18.24,1.29,26.33,10.03,25.66,32.35-.58,19.46-3.46,38.92-6.37,58.22-1.77,11.76-2.07,21.6,9.61,29.02,9.65,6.14,18.51,13.63,27.17,21.16,4.25,3.69,11.07,5.54,11.3,12.88-9.86-2.9-10.02,7.38-15.03,11.07-3.23,4.47-7.26,4.1-11.17,1.37-18.08-12.63-37.65-23.27-53.23-39.29-9.19-38.36-8.67-76.44,3.81-114.04,1.58-4.76,3.94-9.5,8.24-12.74Z"/><path class="e" d="M206.07,448.37c.25,18.04,.51,36.07,.76,54.11-7.99-1.7-12.1-8.31-17.24-13.62,2.84-1.22,6.3-2.94,5.84-6.11-3.32-23.05,11.35-45.55,1.9-68.77-2.14-5.26-1.62-10.94-.23-16.44,.42-1.66,1.67-3.43,1.35-4.89-3.48-15.94-.53-33.26-8.38-48.02-3.61-6.79-11.31-11.4-17.15-17,.84-.14,1.65-.37,2.43-.69,22.03,5.19,44.06,10.38,68.34,16.1-4.76-8.59-8.75-14.72-11.67-21.33-3.33-7.55-11.34-13.26-9.39-22.95,5.79-2.31,10.76-5.87,15.36-10,20.07,21.04,35.01,45.32,45.05,72.53,3.82,10.36-1.93,15.39-11.61,16.86-19.32,2.93-38.7,1.71-57.76-1.45-11.39-1.89-13.01,1.56-11.48,11.68,1.79,11.86,2.04,23.95,2.95,35.93l.42,6.04c.13,5.01,.27,10.02,.4,15.03"/><path class="e" d="M901.69,807.12c9.5-.01,19.01-.02,28.51-.03,2.11,.16,4.21,.42,6.32,.45,16.18,.23,15.41,.04,12.17,14.83-2.24,10.23-1.99,21-2.85,31.52-1.52,5-.33,12.35-8.53,12.1-14.48-.45-29.1,2.19-43.44-1.73-1.25-11.86-2.49-23.72-3.76-35.59-.18-1.69-.81-3.41-.66-5.06,.49-5.37-9.23-8.67-3.75-14.31,4.05-4.17,10.69-.72,15.98-2.19Z"/><path class="m" d="M237.99,288.75c-4.6,4.13-9.57,7.69-15.37,10.01-4.84-9.71-9.67-19.42-16.06-32.27,0,13.24,.37,22.95-.1,32.61-.49,9.8-3.87,18.71-15.78,17.12-9.51-1.27-12.65,3.7-15.33,10.72-.78,.32-1.59,.55-2.43,.69-9.13-3.74-18.31-7.39-26.02-13.8,.44-3.87,.88-7.74,1.32-11.61,11.74-3.44,18.61-10.65,17.73-23.51-.27-3.96-1.12-8.34,3.08-10.29,4.4-2.04,5.37,2.84,7.53,5.15,1.94,2.08,3.18,5.72,6.93,4.42,3.11-1.07,2.38-4.25,2.27-6.69-.31-6.93,4.31-8.85,9.77-9.53,7.21-.89,13.32-3.27,16.72-10.23,8.58,12.4,17.15,24.8,25.73,37.2Z"/><path class="l" d="M212.26,251.55c-3.4,6.96-9.51,9.34-16.72,10.23-5.47,.68-10.08,2.6-9.77,9.53,.11,2.44,.84,5.62-2.27,6.69-3.75,1.3-4.99-2.35-6.93-4.42-2.16-2.32-3.14-7.19-7.53-5.15-4.2,1.95-3.35,6.33-3.08,10.29,.87,12.86-6,20.06-17.73,23.51-1.42-14.47-3.27-28.92-4.13-43.42-.87-14.83,4.93-20.77,19.85-22.69,7.18-.92,14.43-1.96,21.39-3.88,19.65-5.43,25.64-1.3,26.92,19.32Z"/><g><path d="M121.06,334.43c5.88-10.29,15.79-15.54,25.84-20.61,7.72,6.41,16.89,10.06,26.02,13.8,5.84,5.6,13.54,10.21,17.15,17,7.85,14.75,4.9,32.07,8.38,48.02,.32,1.46-.93,3.24-1.35,4.89-1.39,5.5-1.91,11.18,.23,16.44,9.45,23.23-5.21,45.72-1.9,68.77,.46,3.17-3,4.89-5.83,6.11-.2-.39-.6-.65-1.17-.79-.23-7.34-7.05-9.19-11.3-12.88-8.66-7.53-17.52-15.03-27.17-21.16-11.68-7.42-11.38-17.26-9.61-29.02,2.91-19.3,5.79-38.76,6.37-58.22,.66-22.32-7.42-31.05-25.66-32.35Z"/><path d="M109.01,461.21c15.59,16.01,35.15,26.66,53.23,39.29,3.91,2.73,7.94,3.1,11.17-1.37,8.35,4.46,16.69,8.92,25.04,13.38l.1,.73c-28.17,5.13-56.58,1.69-84.87,2.32-4.03-17.91-3.68-36.19-4.67-54.36Z"/></g><g class="g"><path class="e" d="M121.06,334.43c5.88-10.29,15.79-15.54,25.84-20.61,7.72,6.41,16.89,10.06,26.02,13.8,5.84,5.6,13.54,10.21,17.15,17,7.85,14.75,4.9,32.07,8.38,48.02,.32,1.46-.93,3.24-1.35,4.89-1.39,5.5-1.91,11.18,.23,16.44,9.45,23.23-5.21,45.72-1.9,68.77,.46,3.17-3,4.89-5.83,6.11-.2-.39-.6-.65-1.17-.79-.23-7.34-7.05-9.19-11.3-12.88-8.66-7.53-17.52-15.03-27.17-21.16-11.68-7.42-11.38-17.26-9.61-29.02,2.91-19.3,5.79-38.76,6.37-58.22,.66-22.32-7.42-31.05-25.66-32.35Z"/><path class="e" d="M109.01,461.21c15.59,16.01,35.15,26.66,53.23,39.29,3.91,2.73,7.94,3.1,11.17-1.37,8.35,4.46,16.69,8.92,25.04,13.38l.1,.73c-28.17,5.13-56.58,1.69-84.87,2.32-4.03-17.91-3.68-36.19-4.67-54.36Z"/></g><path class="b" d="M961.02,471.73c-.52,15.28-19.46,30.71-34.26,27.28-5.32-1.23-9.77-2.36-14.44,1.53-4.21,3.5-8.58,1.34-11.45-1.93-3.93-4.47-.61-9.02,1.77-12.98,2.21-3.68,5.03-7.67,10.29-4.62,5.49,3.19,11.36,3.32,17.45,3.45,7.95,.17,11.44-4.77,14.18-10.99,2.82-6.4-.46-10.78-5.04-14.52-5.16-4.2-10.71-7.64-17.59-3.86-2.21,1.21-3.9,3.35-6.09,4.63-4.51,2.64-8.91-.07-11.82-2.41-4-3.21,1.01-6.07,2.73-8.38,6.53-8.74,19.72-11.4,31.58-6.91,14.26,5.41,23.13,17.01,22.7,29.7Z"/><path class="j" d="M893.87,864.25c14.34,3.92,28.96,1.28,43.44,1.73,8.19,.25,7.01-7.1,8.53-12.1,10.49,1.93,21.01,3.73,31.46,5.89,2.31,.48,5.51,1.32,5.56,4.43,.05,3.17-3.19,3.94-5.48,4.49-36.92,8.85-73.99,8.5-111.08,1.18-3.91-.77-9.96-1.06-9.66-6.45,.29-5.18,6.57-5.03,10.37-5.92,9.88-2.31,19.97-3.61,26.86,6.76Z"/><path class="m" d="M198.45,512.51c-8.35-4.46-16.69-8.92-25.04-13.38,5.01-3.69,5.16-13.97,15.03-11.07,.57,.14,.96,.4,1.17,.79,5.12,5.32,9.23,11.93,17.22,13.63,3.94,3.25,7.94,6.43,11.79,9.79,2.93,2.56,9.5,2.53,7.74,8.53-1.62,5.49-6.33,7.8-12.11,7.49-7.4-3.12-10.8-10.24-15.79-15.78Z"/><path class="b" d="M618.27,112.19c9.98-1.32,16.69,4.33,19.35,13.89,2.57,9.21-4.26,13.95-11.34,17.87-2.62,1.45-5.22,2.95-7.73,4.58-3.07,2-6.62,4.06-8.26-.8-1.35-3.97-1.72-8.77,4.81-9.62,2.92-.38,5.99-.9,8.59-2.19,5.54-2.75,5.06-7.86,2.81-12.16-2.71-5.17-7.82-3.98-12.57-2.98-4.06,.85-4.52,10.04-10.85,4.81-1.1-.91-1.14-4.25-.46-5.99,2.36-6.04,7.39-7.9,13.53-7.42,.43,.03,.86,0,2.12,0Z"/><path class="e" d="M174.74,871.51h0c-18.98,2.82-35.52,1.14-51.94,0-7.96-.57-3.57-7.94-4.03-12.44-.39-3.46-.78-6.93-1.14-10.39h0c.23-2.66,.49-5.33,.72-7.99h0c6.15-.13,12.28-.23,18.43-.34h0c3.23,2.9,6.49,5.77,9.75,8.66h0"/><path class="b" d="M503.82,198.02c-.65-8.83,4.63-12.34,10.85-14.89,6.47-2.65,11.81,.05,16.12,4.64,4.56,4.87,4.39,11.38-.51,14.7-4.78,3.23,.17,15.79-9.35,11.33-8.17-3.83,.5-8.48,2.47-12.87,1.66-3.69,2.98-8.96-2.83-10.65-4.9-1.42-8.12,1.32-9.02,6.49-.57,3.28-.57,7.64-5.45,6.88-3.32-.51-1.78-4.22-2.26-5.64Z"/><path class="b" d="M904.29,519.56c-.01,5.78-2.9,8.6-8.69,8.72-6.44,.13-9.47-2.93-9.36-9.34,.09-5.77,2.88-8.63,8.69-8.72,6.42-.11,9.54,2.92,9.36,9.34Z"/><path class="m" d="M136.78,840.34c-6.14,.11-12.28,.23-18.42,.34l-.16,.09c.27-.83,.34-1.68,.2-2.55,.17-1.81,.35-3.63,.52-5.44,5.92,.1,11.83,.21,17.75,.31,.03,2.42,.07,4.83,.1,7.25Z"/><path class="b" d="M619.59,162.66c-.29,3.37-1.99,5.55-5.36,5.96-3.41,.42-5.79-1.39-6.48-4.57-.84-3.87,1.7-5.17,5.12-5.24,3.01-.06,5.98-.02,6.72,3.86Z"/><path class="j" d="M229.41,827.71c8.14,3.08-.37,11.98,5.54,15.83-.54,.56-1.09,1.12-1.63,1.68-2.06-2.11-4.13-4.22-6.19-6.33,.69-3.82,1.38-7.65,2.07-11.47l.21,.29Z"/><path class="j" d="M230.31,822.77c-.39-2.41-.84-4.83,1.27-6.78,.68,2.46,.87,4.83-1.27,6.78Z"/><path class="j" d="M118.4,838.22c.14,.87,.07,1.72-.2,2.55-1-.41-1.99-.82-2.99-1.23,1.06-.44,2.12-.88,3.18-1.32Z"/><path class="f" d="M566.97,582.59c-63.23,3.97-115.97-54.64-115.76-114.27,.23-64.73,54.52-116.59,116.46-115.29,64.95,1.36,112.89,50.29,114.04,114.31,1.17,64.66-52.61,117.24-114.74,115.25Zm50.96-48.91c.7-.98,2.02-1.96,2.03-2.95,.2-24.67,.27-49.34,.35-74.01,.01-3.68-.81-6.8-5.19-7.43l-11.06-1.3c-.3-28.29-11.84-44.55-33.16-46.69-26.09-2.62-41.81,14.94-41.76,46.64-7.16,1.4-17.39-2.49-17.08,11.08,.51,22.98,.49,45.97,.69,68.96-.72,7.59,4.45,8.01,9.84,7.96,13.53-.12,27.06-.33,40.59-.5,17.27-.04,34.54-.07,51.82-.11,.98-.55,1.96-1.1,2.94-1.65Z"/><path class="b" d="M764.25,264.8c-13.62-.23-27.25-.33-40.88-.49-.9-11.68,4.36-15.61,16.06-15.35,30.95,.68,61.93,.53,92.89,.05,9.23-.14,13.08,1.98,12.76,12.09-.7,22.34-.6,44.73-.04,67.08,.23,9.17-2.96,12.04-11.86,11.63-13.3-.6-26.66-.15-39.99-.14-1.64-9.92,5.09-22.14-7.96-28.92,.73-.45,1.52-.69,2.37-.71"/><path class="b" d="M651.04,309.87c43.14,.29,86.28,.59,129.42,.88-3.52,4.73-8.66,2.97-13.15,2.97-105.02,.09-210.04,.09-315.06-.02-4.44,0-9.64,1.98-13.06-2.98,27.55-.28,55.09-.57,82.64-.85,43.07,0,86.14,0,129.22,0Z"/><path class="b" d="M356.24,310.85c21.38-.03,42.77-.06,64.15-.1,.98,1.09,.91,2.81-.32,2.81-20.31,0-40.62-.16-60.93-.45-.98-.01-1.93-1.48-2.9-2.26Z"/><path class="b" d="M921.74,339.63c-16.33,0-32.66-.23-48.99,.11-7.08,.15-10-2.17-9.9-9.57,.31-24.06,.28-48.13,.03-72.19-.07-6.86,2.83-8.9,9.27-8.86,33.52,.18,67.04,.18,100.56,0,6.48-.03,9.3,2.07,9.23,8.9-.25,24.06-.29,48.13,.03,72.19,.1,7.44-2.89,9.68-9.94,9.54-16.75-.33-33.52-.11-50.28-.11Z"/><path class="b" d="M920.75,231.09c-15.5,0-31.01-.33-46.5,.14-8.05,.24-11.69-1.83-11.47-10.72,.53-20.65,.41-41.33,.03-61.99-.13-6.94,2.13-10.43,9.12-10.94,3.38-.25,6.72-1.69,10.07-1.66,31.7,.29,63.4,.89,95.11,1.08,4.83,.03,4.54,2.78,4.68,5.73,1.06,22.72-1.5,45.49,1.47,68.26,.83,6.34-4.63,10.35-12.15,10.2-16.79-.32-33.58-.1-50.37-.1Z"/><path class="b" d="M784.53,130.31c-16.34,0-32.67-.12-49.01,.05-6.95,.07-9.02-1.01-8-9.56,5.44-45.52,52.15-91.72,95.93-101,17.24-3.66,21.4-.47,21.41,17.46,.01,26.65-.37,53.31,.2,79.95,.21,9.8-2.14,13.94-12.83,13.33-15.86-.89-31.8-.23-47.71-.23Z"/><path class="b" d="M784.85,148.4c16.79,0,33.59,.24,50.37-.11,7.26-.15,9.87,2.5,9.76,9.76-.32,21.09-.31,42.19,0,63.28,.1,7.14-2.26,9.93-9.63,9.88-33.15-.26-66.3-.17-99.45-.05-5.83,.02-8.92-.98-10.29-8.02-4.33-22.27-1.29-44.6-1.99-66.88-.22-6.98,5.23-7.89,10.87-7.87,16.79,.06,33.58,.02,50.37,.02Z"/><path class="b" d="M921.11,130.31c-16.78,0-33.56,.07-50.34-.05-4.74-.03-9.97,.13-9.21-7.28,3.1-30.01,.68-60.11,1.35-90.17,.32-14.46,1.21-14.68,15.82-12.37,44.01,6.98,72.01,34.38,92.82,71.32,.63,1.12,1.17,2.3,1.66,3.5,12.43,30.13,9.26,35.07-22.42,35.06-9.9,0-19.79,0-29.69,0Z"/><path class="n" d="M136.78,840.34c-.03-2.42-.07-4.83-.1-7.25,7.28-18.25,6.38-37.64,7.88-56.7,6.27-57.88,12.53-115.75,18.8-173.63,.77-.21,1.53-.42,2.3-.63,4.85,9.88,9.71,19.76,14.56,29.64,18.96,41.99,15.19,87.61,21.05,131.69,2.87,21.58,1.92,43.61,7.73,64.84-.04,2.53-.08,5.06-.12,7.59-4.27,7.35-2.58,15.06-1.36,22.74l.22,5.58c-8.07,.03-3.34-6.1-3.51-8.8-.4-6.25-1.96-10.05-8.93-9.21-9.15,1.09-18.92-2.95-27.47,3.36-3.23,2.38-5.52-.26-7.99-1.84-4.75-3.04-9.04-.81-13.31,1.32-3.25-2.89-6.5-5.79-9.75-8.68Z"/><path class="m" d="M208.87,835.89c.04-2.53,.08-5.06,.12-7.59,6.73-.29,13.47-.58,20.2-.88-.69,3.82-1.38,7.65-2.07,11.47-5.97-.17-11.93-.33-17.9-.5-.12-.84-.24-1.67-.36-2.51Z"/><path class="e" d="M209.55,838.4c5.8,.16,11.6,.32,17.41,.48l2.78,1.54c8.43,12.37,20.2,20.51,32.16,30.22,.23,.19,.12,.58-.19,.6-17.5,1.21-34.89,1.87-52.13-2.59-.84-.22-1.17-2.36-1.66-3.91l-.53-4.71c.61-7.11,1.21-14.22,1.81-21.33,.01-.18,.16-.31,.34-.3Z"/><path class="e" d="M466.86,136.15c.22,19.86-14.7,30.37-30.55,38.08-32.63,15.88-67.27,20.06-103.1,15.19-1.74-.16-28.02-4.69-28.02-4.69,0,0-38.65-6.51-57.89,1.1-6.7,2.65-13.92,4.02-24.63,7.02,11.3-10.33,19.76-18.39,28.59-26.01,4.29-3.71,4.98-6.29,1.59-11.62-11.03-17.34-8.57-31.83,7.13-45.31,12.22-10.49,26.4-17.33,42.27-20.47,45.99-12.94,91.02-10.75,134.47,9.68,15.58,7.34,29.92,17.88,30.14,37.03Z"/><path class="h" d="M343.49,150.98l1.07,.59c-.36-.2-.72-.39-1.08-.59h0Z"/><path class="k" d="M346.06,163.9c-.86-.86-1.72-1.72-2.58-2.58,.86,.86,1.72,1.72,2.58,2.58Z"/><path class="f" d="M650.93,732.58c5,.18,7.81,2.76,7.62,7.96-.19,5.3-3.52,7.23-8.46,7.37-4.87,.13-6.93-2.15-6.78-6.93,.15-4.98,2.23-8.05,7.62-8.4Z"/><path class="n" d="M175.36,326.94c2.68-7.02,5.82-11.99,15.33-10.72,11.91,1.59,15.29-7.32,15.78-17.12,.48-9.66,.1-19.37,.1-32.61,6.39,12.85,11.23,22.56,16.06,32.27-1.94,9.7,6.07,15.4,9.4,22.95,2.91,6.61,6.9,12.74,11.67,21.33-24.27-5.72-46.31-10.91-68.34-16.1Z"/><path class="b" d="M757.45,288.52c-.22,4.05-2.42,6.5-6.31,6.49-3.92,0-6.31-2.65-6.19-6.51,.1-3.25,2.36-5.56,5.66-5.82,3.94-.3,6.28,1.9,6.84,5.83Z"/><path class="c" d="M683.68,295.28c-3.82-.58-6.13-2.64-6.53-6.52-.44-4.3,1.72-6.13,5.87-6.03,3.86,.09,6.62,1.68,6.72,5.82,.1,3.94-2.35,6.03-6.07,6.74Z"/><path class="b" d="M723.53,288.34c-.03,4.35-2.52,6.65-6.21,6.69-3.81,.04-6.32-2.71-6.21-6.49,.09-3.11,2.21-5.5,5.61-5.77,4.04-.32,6.15,1.97,6.81,5.57Z"/><path class="e" d="M615.12,449.28c-3.7-.44-7.37-.85-11.07-1.29-4.24-.03-8.48-.05-12.69-.05-11.32,.34-44.39,.34-49.61,0h-12.59c-7.16,1.4-17.4-2.51-17.09,11.07,.49,22.98,.49,45.97,.7,68.98-.72,7.58,4.42,7.99,9.82,7.94,13.52-.1,27.04-.31,40.59-.49,17.27-.03,34.54-.08,51.81-.1,.98-.54,1.96-1.11,2.95-1.65,.7-.98,2.02-1.96,2.02-2.95,.21-24.67,.26-49.33,.36-74,0-3.7-.83-6.83-5.2-7.45Zm-40.67,50.86c-.57,10.03-8.89,9.23-16.08,4.09-1.01-8.84,2.74-16.39,6.49-23.94,8.95,3.77,9.93,13.86,9.59,19.86Z"/><path class="l" d="M604.06,447.98c-4.24-.02-8.48-.04-12.72-.06-.02-3.4,.18-6.82-.1-10.2-1.17-14.26-11.29-23.97-24.86-24.01-13.58-.04-23.59,9.68-24.58,24.01-.24,3.39-.06,6.8-.08,10.2-4.2,0-8.4,0-12.59,.01-.06-31.7,15.67-49.26,41.76-46.64,21.32,2.14,32.87,18.39,33.16,46.69Z"/><path class="i" d="M614.99,535.32c.98-.55,1.96-1.1,2.94-1.65-.98,.55-1.96,1.1-2.94,1.65Z"/><path class="j" d="M209.24,838.4c-.57,6.75-1.15,13.49-1.72,20.24-1.23-7.68-2.91-15.39,1.36-22.75,.13,.84,.25,1.67,.36,2.51Z"/><path class="n" d="M541.74,447.92c.01-3.4-.16-6.82,.08-10.2,1-14.33,11.01-24.05,24.58-24.01,13.56,.04,23.69,9.75,24.86,24.01,.28,3.38,.08,6.8,.1,10.2-11.32,.35-22.63,.69-33.95,1.04-5.22-.35-10.44-.69-15.66-1.04Z"/><path class="l" d="M564.86,480.28c8.95,3.77,9.92,13.86,9.58,19.86-.56,10.01-8.89,9.22-16.07,4.07-1.01-8.84,2.73-16.39,6.49-23.93Z"/><path class="c" d="M347.57,157.39c.96-2.06,3.08-3.76,5.57-3.88,3.61-.18,5.64,3.07,6.38,4.02,2.23,2.86,1.2,5.87-1.54,7.59-.64,.4-3.05,2.23-6.1,1.42-3.66-.98-4.77-4.8-4.81-4.98-.13-.68-.34-2.37,.5-4.17Z"/><path class="b" d="M339.6,114.3c-.33-.83-.76-2.23-.57-3.91,.3-2.75,2.05-4.54,3.44-5.97,.9-.93,2.44-2.28,4.74-3.37,1.59-.66,3.18-1.32,4.77-1.98,2.6-.68,9.4-2.05,16.51,1.18,2.03,.92,5.65,2.62,8.3,6.63,1.94,2.95,2.87,6.5,2.82,10.53-.1,8.42-3.98,14.71-12.61,17.24-2.82,.83-6.36,1.04-8.19,2.9-2.43,2.46-.42,9.9-7.3,7.25-6.24-2.4-4.27-8.52-4.19-13.48,.02-1.24,.59-2.48,.91-3.72,0,0,10.15,.49,14.36-1,7.72-3.29,9.51-9.38,4.44-15.25-5.5-6.37-12.22-5.42-16.93,2.04-1.87,2.97-3.24,3.87-4.99,4.05-2.14,.22-4.11-1.53-5.49-3.15Z"/><path class="e" d="M759.83,264.95l-255.73,.4h0c-39.89-.21-79.81,.49-119.68-.83-38.57-1.27-46.1,8.76-43.69,44.55,5.17,.59,10.34,1.19,15.51,1.78,21.38-.05,42.76-.08,64.15-.1,.26-.57,73.89-.59,101.43-.88h129.22c43.15,.28,86.28,.59,129.43,.88,1.6,0,6.28-.03,7.14-.05-.29-5.89-.42-11.32-.48-14.52-.14-7.1-.01-8.78-.81-12.06-.67-2.77-1.82-7.28-5.61-11.19-2.06-2.13-4.2-3.35-5.28-3.96-2.91-1.64-5.43-2.29-7.69-2.85-1.95-.49-4.63-1-7.89-1.15Zm-76.15,30.34c-3.83-.59-6.15-2.66-6.54-6.54-.44-4.29,1.73-6.13,5.87-6.02,3.85,.1,6.62,1.68,6.72,5.82,.1,3.96-2.35,6.02-6.05,6.75Zm33.64-.26c-3.8,.05-6.33-2.71-6.21-6.49,.08-3.1,2.2-5.51,5.61-5.77,4.03-.34,6.15,1.96,6.8,5.56-.03,4.37-2.51,6.64-6.21,6.7Zm33.82-.03c-3.93,0-6.31-2.64-6.18-6.49,.08-3.26,2.35-5.58,5.64-5.82,3.96-.31,6.28,1.89,6.85,5.82-.21,4.06-2.43,6.49-6.31,6.49Z"/></svg>