<?xml version="1.0" encoding="utf-8"?>
<!-- Generator: Adobe Illustrator 26.3.0, SVG Export Plug-In . SVG Version: 6.00 Build 0)  -->
<svg version="1.1" id="Layer_1" xmlns="http://www.w3.org/2000/svg" xmlns:xlink="http://www.w3.org/1999/xlink" x="0px" y="0px"
	 viewBox="0 0 500 500" style="enable-background:new 0 0 500 500;" xml:space="preserve">
<style type="text/css">
	.st0{fill:#286471;}
	.st1{fill:none;stroke:#286471;stroke-width:12;stroke-miterlimit:10;}
</style>
<g>
	<g>
		<path class="st0" d="M55.7,315.5c-0.3-4.2-1.2-14.8-2.1-23.9L49,248c-1-9.2-2.2-19.9-2.8-23.8l18.9-2c5.9-0.6,11.9-1.5,14.6-2.1
			l1.8,16.9c-2.7-0.1-8.8,0.4-14.7,1l-5.9,0.6l2.4,23.3l5.1-0.5c5.8-0.6,10.4-1.4,13-1.9l1.8,16.9c-2.7-0.1-7.3,0.2-13.1,0.8
			l-5.1,0.5l1.3,12.4c0.9,9.1,2.2,19.7,2.8,23.8L55.7,315.5z"/>
		<path class="st0" d="M102.4,218.2c0.2,3.6,1.2,14.4,2.1,23.9l3.2,31.1c1.4,13.3,7.4,20.7,13.9,20c6.6-0.7,11-9.1,9.6-22.5
			l-3.2-31.1c-0.8-7.6-2-18.3-2.8-23.8l13.2-1.4c0.4,5.9,1.5,16.6,2.2,23.9l3.2,30.5c2.5,24-6.6,39.5-20.4,41S97.5,298.2,95,274
			l-3.2-30.5c-1-9.5-2.2-20.3-2.8-23.8L102.4,218.2z"/>
		<path class="st0" d="M171.7,286.7l8.7-0.9c6-0.6,12.2-1.4,14.8-2L197,301c-2.6,0-8.9,0.4-14.9,1l-21.6,2.3
			c-0.6-7.4-1.6-17.9-2.2-23.9l-4.5-43.6c-1-9.2-2.2-19.9-2.8-23.8l13.3-1.4c0.2,4,1.2,14.7,2.1,23.9L171.7,286.7z"/>
		<path class="st0" d="M204.3,299.7c-0.3-4.2-1.2-14.8-2.1-23.9l-4.5-43.6c-1-9.2-2.2-19.9-2.8-23.8l18.9-2
			c5.9-0.6,11.9-1.5,14.6-2.1l1.8,16.9c-2.7-0.1-8.8,0.4-14.7,1l-5.9,0.6l2.4,23.3l5.1-0.5c5.8-0.6,10.4-1.4,13-1.9l1.8,16.9
			c-2.7-0.1-7.3,0.2-13.1,0.8l-5.1,0.5l1.3,12.4c0.9,9.1,2.2,19.7,2.8,23.8L204.3,299.7z"/>
		<path class="st0" d="M258.9,269.8c0.9,9.1,2.2,19.7,2.8,23.8l-13.3,1.4c-0.3-4.2-1.2-14.8-2.1-23.9l-4.5-43.6
			c-0.9-9.1-2.2-19.9-2.8-23.8l13.3-1.4c0.2,4,1.2,14.8,2.1,23.9L258.9,269.8z"/>
		<path class="st0" d="M286.1,274.6l8.7-0.9c6-0.6,12.2-1.4,14.8-2l1.8,17.2c-2.6,0-8.9,0.4-14.9,1l-21.6,2.3
			c-0.6-7.4-1.6-17.9-2.2-23.9l-4.5-43.6c-1-9.2-2.2-19.9-2.8-23.8l13.3-1.4c0.2,4,1.2,14.7,2.1,23.9L286.1,274.6z"/>
		<path class="st0" d="M330,269.9l8.7-0.9c6-0.6,12.2-1.4,14.8-2l1.8,17.2c-2.6,0-8.9,0.4-14.9,1l-21.6,2.3
			c-0.6-7.4-1.6-17.9-2.2-23.9l-4.5-43.6c-1-9.2-2.2-19.9-2.8-23.8l13.3-1.4c0.2,4,1.2,14.7,2.1,23.9L330,269.9z"/>
		<path class="st0" d="M373.9,265.6l6.4-0.7c6-0.6,12.3-1.4,14.9-2l1.8,16.9c-2.6,0-9,0.4-15,1l-19.4,2.1
			c-0.6-7.4-1.5-17.9-2.1-23.9l-4.6-43.7c-1-9.2-2.2-19.7-2.8-23.7l18.7-2c5.9-0.6,12.2-1.7,14.9-2.2l1.8,17.1c-2.7-0.1-9,0.4-15,1
			l-5.7,0.6l2.1,19.9l5-0.5c5.9-0.6,11.7-1.5,14.3-2.1l1.8,16.9c-2.7,0-8.5,0.4-14.5,1l-5,0.5L373.9,265.6z"/>
		<path class="st0" d="M407.3,278.2c-0.2-4.2-1.1-14.8-2.1-23.9l-4.5-43.6c-0.9-9.1-2.2-19.9-2.9-23.8l20.9-2.2
			c16.5-1.7,32.2,17.2,34.8,42.4c2.6,25.2-8.8,47.2-25.3,48.9L407.3,278.2z M418.8,261.1l6.8-0.7c10.2-1.1,16.9-15.7,15.2-31.9
			c-1.7-16.1-11.2-29-21.5-27.9l-6.7,0.7L418.8,261.1z"/>
	</g>
	<polygon class="st1" points="492.8,303.2 23.5,352.9 7.2,196.8 476.5,147.1 	"/>
</g>
</svg>
