<?xml version="1.0" encoding="utf-8"?>
<!-- Generator: Adobe Illustrator 26.2.0, SVG Export Plug-In . SVG Version: 6.00 Build 0)  -->
<svg version="1.1" id="Layer_1" xmlns="http://www.w3.org/2000/svg" xmlns:xlink="http://www.w3.org/1999/xlink" x="0px" y="0px"
	 viewBox="0 0 1002 1002" style="enable-background:new 0 0 1002 1002;" xml:space="preserve">
<style type="text/css">
	.st0{fill:#F2F2F2;}
	.st1{fill:#FFFFFF;}
	.st2{fill:#FFB6B6;}
	.st3{fill:#2F2E41;}
	.st4{fill:#358597;}
	.st5{fill:#E6E6E6;}
	.st6{fill:#CACACA;}
</style>
<g>
	<path class="st0" d="M913.3,942.6c-2.9,0.1-5.3-2.1-5.5-5c-0.1-1.5,0.5-3,1.7-4.1l0.4-1.4c0-0.1-0.1-0.2-0.1-0.3
		c-3-7.1-11.2-10.5-18.4-7.4c-3.4,1.4-6.1,4.1-7.5,7.5c-4.2,10.2-9.6,20.4-10.9,31.1c-0.6,4.8-0.3,9.6,0.7,14.3
		c-9.9-21.7-15.1-45.2-15.1-69c0-6,0.3-12,1-17.9c0.5-4.9,1.3-9.7,2.3-14.5c5.3-26.1,16.7-50.5,33.3-71.3c8-4.4,14.5-11.1,18.6-19.3
		c1.5-2.9,2.5-6.1,3.1-9.3c-0.9,0.1-3.4-13.7-2.7-14.5c-1.3-1.9-3.5-2.9-4.9-4.7c-6.9-9.3-16.3-7.7-21.2,5
		c-10.5,5.3-10.6,14.1-4.2,22.6c4.1,5.4,4.7,12.7,8.3,18.5c-0.4,0.5-0.8,0.9-1.1,1.4c-6.8,8.7-12.7,18.1-17.7,28
		c1.2-11.1-0.2-22.3-4.2-32.7c-4-9.7-11.6-17.9-18.2-26.2c-8-10.1-24.3-5.7-25.7,7.1c0,0.1,0,0.2,0,0.4c1,0.6,2,1.1,2.9,1.8
		c3.3,2.2,4.1,6.6,2,9.8c-1.1,1.6-2.8,2.8-4.8,3.1l-0.1,0c0.4,3.6,1,7.1,1.9,10.5c-8.5,32.9,9.9,44.9,36.1,45.4
		c0.6,0.3,1.1,0.6,1.7,0.9c-5,14.1-8.1,28.8-9.3,43.8c-0.7,8.8-0.6,17.7,0.1,26.5l0-0.3c-1.9-9.8-7.1-18.6-14.8-25
		c-11.4-9.3-27.4-12.8-39.7-20.3c-3.8-2.4-8.8-1.3-11.2,2.4c-1,1.6-1.5,3.6-1.2,5.5c0,0.1,0,0.2,0.1,0.3c1.8,0.7,3.6,1.6,5.3,2.6
		c1,0.6,2,1.1,2.9,1.8c3.3,2.2,4.1,6.6,2,9.8c-1.1,1.6-2.8,2.8-4.8,3.1l-0.1,0c-0.1,0-0.2,0-0.3,0c3.1,7.5,7.5,14.3,13,20.3
		c5.3,28.7,28.2,31.5,52.6,23.1h0c2.7,11.7,6.6,23,11.6,33.9h41.4c0.1-0.5,0.3-0.9,0.4-1.4c-3.8,0.2-7.7,0-11.5-0.7
		c3.1-3.8,6.1-7.6,9.2-11.3c0.1-0.1,0.1-0.1,0.2-0.2c1.6-1.9,3.1-3.8,4.7-5.8l0,0C915.4,954.2,914.7,948.3,913.3,942.6L913.3,942.6z
		"/>
	<path class="st0" d="M844.3,574.1c11-39.9,31.5-73.8,64.5-100c2.7-4.2,8.3-5.4,12.6-2.7l75.5,48.7c4.2,2.7,5.4,8.3,2.7,12.6
		l-64.5,100c-2.7,4.2-8.3,5.4-12.6,2.7L847,586.7C842.8,584,841.5,578.4,844.3,574.1z"/>
	<path class="st1" d="M869.5,547.7c2.8-21.1,20.3-42.6,41.5-64.3c2.6-3.9,7.8-5.1,11.8-2.5l64.9,41.9c3.9,2.6,5.1,7.8,2.5,11.8
		l-57.4,88.9c-2.6,3.9-7.8,5.1-11.8,2.5l-40.2-25.9C863.3,588.7,858.2,565.3,869.5,547.7z"/>
	<path class="st0" d="M875.3,633.6c-9.6-40.2-8-79.9,8.4-118.7c0.4-5,4.7-8.8,9.7-8.4l89.6,6.4c5,0.4,8.8,4.7,8.4,9.7l-8.4,118.7
		c-0.4,5-4.7,8.8-9.7,8.4l-89.6-6.4C878.8,642.9,875,638.6,875.3,633.6z"/>
	<path class="st1" d="M884.8,598.2c-7.7-19.8-2.8-47.1,5.4-76.3c0.3-4.7,4.4-8.2,9.1-7.9l77,5.5c4.7,0.3,8.2,4.4,7.9,9.1l-7.5,105.6
		c-0.3,4.7-4.4,8.2-9.1,7.9l-47.7-3.4C899,637.2,883.3,619.1,884.8,598.2z"/>
	<path class="st2" d="M883.1,385.2l-38.4-142.1c-3.4-12.5-16.3-20-28.8-16.8l0,0c-12.7,3.3-20.4,16.2-17.1,28.9
		c0.1,0.4,0.2,0.8,0.3,1.2l44.4,146.4l23.2,90.1c-9.1,7-10.8,20-3.9,29.1c7,9.1,20,10.8,29.1,3.9c9.1-7,10.8-20,3.9-29.1
		c-0.7-1-1.6-1.9-2.5-2.7L883.1,385.2z"/>
	<path class="st2" d="M606.1,409.8L645.5,268c3.4-12.5-3.8-25.5-16.3-29.1l0,0c-12.6-3.7-25.8,3.6-29.5,16.2
		c-0.1,0.4-0.2,0.8-0.3,1.2l-36.4,148.6l-25.9,89.4c-11.4,1.3-19.5,11.7-18.2,23c1.3,11.4,11.7,19.5,23,18.2
		c11.4-1.3,19.5-11.7,18.2-23c-0.1-1.2-0.4-2.4-0.8-3.6L606.1,409.8z"/>
	<polygon class="st2" points="831.5,954.7 806.4,954.7 794.4,857.9 831.5,857.9 	"/>
	<path class="st3" d="M832.4,980.9l-77.2,0v-1c0-16.6,13.4-30,30-30h0l14.1-10.7l26.3,10.7l6.7,0L832.4,980.9z"/>
	<polygon class="st2" points="654.9,955 630.2,950.6 635.4,853.2 671.9,859.7 	"/>
	<path class="st3" d="M651.2,980.9l-76-13.5l0.2-1c2.9-16.3,18.5-27.2,34.8-24.3l0,0L626,934l24,15.1l6.6,1.2L651.2,980.9z"/>
	<path class="st3" d="M657.3,509.7c0,0-23.4,33.1-22.4,44.2c1,11.1,9.2,2.2,1,11.1c-8.3,8.9-13.1,2.9-9,13.9s5.7,3.9,4.1,11
		c-1.7,7.1,1.7,278.4,1.7,278.4h43c0,0,24.3-157.3,21.2-164.7c-3.1-7.3-3-4.1,0.3-12c3.3-7.8,6.3-17.1,6.3-17.1l34-95.7l26.2,134.7
		l30.9,160.1h41.2c0,0,7.1-235.4,10.2-238.3c3.1-2.9-0.6-9.5-4.5-13.3c-3.9-3.8-3.1-7.7-1.9-15.5s6.6-12.2,6.4-17.1
		c-0.2-4.9,11.4-82.9-6.8-95.4S657.3,509.7,657.3,509.7z"/>
	<path class="st4" d="M801.1,179.8L753,167.3l-22.5-31l-53.3,6.6l-11.4,42.2l-38,22c68.1,0.4,31.4,197.6,41.4,210.3
		c8.1,10.4-40.6,35-25.3,50.7c15.3,15.7,9.6,9.4,6.1,26.5c-3.5,17.1-29.4,35.2,0,35c29.4-0.2,206.8-2.7,201.7-23s-5-15.1-12.6-27.8
		c-7.6-12.7-12.8-5.6-10.2-24.4c2.6-18.8-5.8-33.3,0-41.6c8.9-12.7-0.1-104.7-8.5-102.3L801.1,179.8z"/>
	<path class="st4" d="M787.4,180.4c0,0,35.2-14.9,47.9,12.9c4,8.9,7.5,31.3,10.7,26.3c3.3-5,0.1,5.9,2.1,5.9c1.8,0,4.6-2.9,2.5,7.2
		c-1.3,6.7,0.9,13.7,5.9,18.4l-61.2,36.6L787.4,180.4z"/>
	<path class="st4" d="M655.2,205.8c0,0-35.2-14.9-47.9,12.9c-3.6,7.8-2.7,25.3-9.6,23.3s-2,5.4-2.9,8c-1,2.9,3.4,10.9-2.8,8.1
		s-5.9,18.5-5.9,18.5l61.2,36.6L655.2,205.8z"/>
	<path class="st3" d="M671.9,164l-10.1,17.7c0,0-27.9,15.2-27.9,17.7s5.1,23.2,0,39.5s9.7,46.8,12.7,72
		c12.7,106.4-25,145.1-32.9,212.9l80.4,23.5c0,0,13.4-178.1,13.4-218.6S671.9,164,671.9,164z"/>
	<path class="st3" d="M745.4,156.4l20.7,11.8c0,0,27.1,6,27.4,8.5c0.3,2.5,0.4,29.2,7.5,44.7s5.1,23.7,24.3,69.5
		c9.8,23.4,32.2,210.5,32.2,210.5L780.8,535c0,0-36-174.9-41.2-215.1S745.4,156.4,745.4,156.4z"/>
	<circle class="st2" cx="693.6" cy="79.9" r="52.4"/>
	<path class="st3" d="M728.1,120.6c-12.4-9.7,4.5-52.3-15.9-43.2c0,0-25-15.9-30-5.5c-5.8,12.1-26.5,6.6-39.2,2.3
		c1-2.3,1.7-4.8,2.1-7.3c-2.3,1.8-4.8,3.5-7.4,5c-1.7-0.9-3.3-2.2-4.5-3.7c-2.5-2.9-3-7.1-1.2-10.5c2.1-3.3,6.5-4.3,9-7.1
		c0.6-0.8,0.8-1.9,0.4-2.9c-1.1-4.4,1.5-8.8,5.8-10c0.5-0.1,1-0.2,1.5-0.2c0.5,0,1-0.1,1.4-0.3c2.2-1.3,4.1-2.9,5.9-4.7
		c-3,0.1,0.7-18.1,30.2-14.6c7.4-0.3,11.3,7.9,18.6,9.2c17.7-10.1,33.6,4.5,41.3,18.5C753.8,59.6,762.1,104.7,728.1,120.6z"/>
	<path class="st1" d="M504.5,45.4H34.7C16.1,45.4,1,60.5,1,79.1v423.3c0,18.6,15.1,33.7,33.7,33.7h469.7c18.6,0,33.7-15.1,33.7-33.7
		V79.1C538.1,60.5,523.1,45.4,504.5,45.4z"/>
	<path class="st4" d="M289.8,142.5h-50.2c-5.1,0-9.3-4.2-9.3-9.3c0-5.1,4.2-9.3,9.3-9.3h50.2c5.1,0,9.3,4.2,9.3,9.3
		C299.1,138.4,295,142.5,289.8,142.5z"/>
	<path class="st4" d="M955.2,569.5H905c-5.1,0-9.3-4.2-9.3-9.3c0-5.1,4.2-9.3,9.3-9.3h50.2c5.1,0,9.3,4.2,9.3,9.3
		C964.5,565.4,960.4,569.5,955.2,569.5z"/>
	<path class="st5" d="M419.9,337.2H109.5c-5.1,0-9.3-4.2-9.3-9.3c0-5.1,4.2-9.3,9.3-9.3h310.4c5.1,0,9.3,4.2,9.3,9.3
		C429.2,333,425.1,337.2,419.9,337.2z"/>
	<path class="st5" d="M419.9,398.5H109.5c-5.1,0-9.3-4.2-9.3-9.3s4.2-9.3,9.3-9.3h310.4c5.1,0,9.3,4.2,9.3,9.3
		S425.1,398.5,419.9,398.5z"/>
	<path class="st5" d="M419.9,459.9H109.5c-5.1,0-9.3-4.2-9.3-9.3c0-5.1,4.2-9.3,9.3-9.3h310.4c5.1,0,9.3,4.2,9.3,9.3
		C429.2,455.7,425.1,459.9,419.9,459.9z"/>
	<path class="st5" d="M356.5,170.4H173c-18.6,0-33.7,15.1-33.7,33.7v55.3c0,18.6,15.1,33.7,33.7,33.7h183.5
		c18.6,0,33.7-15.1,33.7-33.7v-55.3C390.2,185.5,375.1,170.4,356.5,170.4z M386.5,259.4c0,16.6-13.4,30-30,30H224.7
		c-45.2,0-81.8-36.6-81.8-81.8v-3.5c0-16.6,13.4-30,30-30h183.5c16.6,0,30,13.4,30,30V259.4z"/>
	<circle class="st5" cx="266.8" cy="220.1" r="31.6"/>
	<polygon class="st5" points="339.5,293.1 198,292.6 242.6,281.4 248.2,263.1 291,262.9 303.8,281 336.1,289.4 339,290.1 	"/>
	<path class="st5" d="M248.8,240.3c6.8-5.3-2.5-28.6,8.7-23.6c0,0,13.7-8.7,16.4-3c3.2,6.6,14.5,3.6,21.5,1.3
		c-0.5-1.3-0.9-2.6-1.2-4c1.3,1,2.6,1.9,4.1,2.7c1-0.5,1.8-1.2,2.5-2c1.4-1.6,1.6-3.9,0.6-5.7c-1.2-1.8-3.5-2.3-5-3.9
		c-0.3-0.5-0.4-1-0.2-1.6c0.6-2.4-0.8-4.8-3.2-5.5c-0.3-0.1-0.5-0.1-0.8-0.1c-0.3,0-0.5,0-0.8-0.2c-1.2-0.7-2.3-1.6-3.2-2.6
		c1.6,0.1-0.4-9.9-16.5-8c-4.1-0.1-6.2,4.3-10.2,5c-9.7-5.5-18.4,2.5-22.6,10.1C234.7,206.9,230.2,231.6,248.8,240.3z"/>
	<path class="st5" d="M504.5,45.4H34.7C16.1,45.4,1,60.5,1,79.1v423.3c0,18.6,15.1,33.7,33.7,33.7h469.7c18.6,0,33.7-15.1,33.7-33.7
		V79.1C538.1,60.5,523.1,45.4,504.5,45.4z M534.4,502.4c0,16.6-13.4,30-30,30c0,0,0,0,0,0H246.7c-133.7,0-242-108.3-242-242v0V79.1
		c0-16.6,13.4-30,30-30h469.7c16.6,0,30,13.4,30,30V502.4z"/>
	<path class="st6" d="M995.2,983.9l-586.1,0.6c-1.2,0-2.2-1-2.2-2.2c0-1.2,1-2.2,2.2-2.2l586.1-0.6c1.2,0,2.2,1,2.2,2.2
		C997.4,982.9,996.4,983.9,995.2,983.9z"/>
</g>
</svg>
