<?xml version="1.0" encoding="UTF-8"?><svg id="a" xmlns="http://www.w3.org/2000/svg" viewBox="0 0 998 1498"><defs><style>.b{fill:#358597;}.c{fill:#f4a896;}.d{fill:#262f53;}</style></defs><path class="b" d="M0,1059.3c0-232.43,0-464.86,0-697.28,1.03-2.35,2.18-4.64,3.07-7.06,10.65-29.07,21.7-57.95,31.8-87.3,15.66-45.52,31.84-90.85,45.59-137.21C92.91,88.44,99.15,44.81,90.59,0,103.46,0,116.33,0,129.21,0c.8,3.11,1.51,6.27,2.42,9.33,12.06,40.24,19.31,81.52,20.41,124.45,1.16,45.28-4.8,89.42-13.05,133.26-12.47,66.32-26.02,132.36-37.6,198.9-12.29,70.62-19.38,142-10.68,214.18,5.04,41.85,15.78,81.48,36.01,116.74,26.61,46.39,63.43,76.82,106.28,97.65,53.67,26.09,110.16,36.34,167.42,39.22,47.42,2.38,94.98,1.48,142.47,1.07,64.79-.55,129.62-4.96,194.24,4.88,55.1,8.38,104.41,32.94,147.59,75.12,33.75,32.97,58.34,74.85,80.8,118.82,10.98,21.48,21.66,43.18,32.48,64.77v240.75c-1.01-1.29-2.09-2.52-3.03-3.89-32.74-47.87-59.89-100.29-86.67-153.04-25.36-49.93-50.6-99.97-76.74-149.32-19.58-36.97-48.02-60.74-82.56-74.48-49.63-19.74-100.51-17.05-151.4-11.91-26.34,2.66-52.52,7.73-78.79,11.45-47.86,6.79-95.79,12.92-143.6,20.18-63.13,9.58-126.39,16.2-190.08,15.74-44.62-.33-89.05-3.35-132.56-16.2-17.71-5.23-35.06-12.2-52.58-18.38Z"/><path class="b" d="M0,1291.13c0-74.31,0-148.61,0-222.92,2.36,.77,4.79,1.35,7.08,2.35,26.84,11.8,54.62,19.19,82.81,23.87,76.02,12.61,152.15,8.55,228.11-.5,46.73-5.57,93.24-13.83,139.91-20.23,52.83-7.25,105.72-13.85,158.61-20.56,32.4-4.11,64.8-3.51,96.93,2.88,38.8,7.71,74.27,24.85,100.04,62.06,13.84,19.99,25.38,42.45,36.88,64.59,31.94,61.49,62.59,123.96,95.24,184.89,15.73,29.36,34.81,56.13,52.38,84.07v46.37h-163.36c-31.94-50.33-59.48-103.61-78.16-163.2-4.12-13.16-10.29-25.91-17.43-37.09-18.8-29.44-45.23-45.49-74.06-56.29-38.51-14.42-78.22-17.8-118.2-16.41-97.25,3.37-194.22,11.18-290.67,27.17-71.32,11.82-142.69,23.21-214.07,34.49-13.93,2.2-28.02,3.02-42.04,4.47Z"/><path class="b" d="M998,1053.95v126.62c-1.5-2.7-3.04-5.36-4.48-8.1-17.08-32.35-32.88-65.81-51.47-96.85-50.01-83.52-118.45-131.21-203.24-144.91-53.93-8.71-108.17-7.13-162.36-5.8-68.53,1.68-137.05,5.15-205.5-2.8-50.24-5.84-99.48-16.58-145.89-41.6-44.86-24.19-81.54-59.71-104.12-113.16-17.27-40.88-24.9-84.94-26.08-130.66-1.47-57.07,3.95-113.42,13.89-169.02,11.46-64.16,24.55-127.89,36.4-191.95,6.81-36.81,13.09-73.73,14.26-111.69C161.17,107.37,154.01,52.71,136.63,0h37.13c4.33,16.4,8.77,32.76,12.98,49.21,18.38,71.82,30.81,145.01,33.66,220.21,1.5,39.46,1.84,78.99,2.7,118.49,.96,43.98,3.25,87.77,9.83,131.2,16.75,110.54,68.8,188.54,151.76,237.72,16.54,9.81,34.25,17.21,51.9,23.82,60.59,22.7,123.44,29.9,186.15,38.17,31.93,4.21,63.98,8.28,95.55,15.24,70.69,15.59,132.46,54.3,187.71,108.89,33.76,33.35,63.79,71.08,92.01,111.01Z"/><path class="b" d="M824.24,1498h-164.85c-16.43-43.44-45.28-69.91-81.25-87.48-37.28-18.21-76.12-27.67-115.94-32.02-55.11-6.01-110.21-3.31-165.27,1.54-54.5,4.81-109.07,8.69-163.5,14.52C88.86,1399.33,44.47,1406.37,0,1412.4c0-36.86,0-73.71,0-110.57,1.21-.27,2.42-.62,3.65-.81,63.54-9.67,127.07-19.37,190.61-28.97,53.25-8.04,106.4-17.46,159.81-23.51,54.89-6.22,110.02-9.68,165.1-13.24,45.82-2.96,91.55-1.73,136.32,12.74,46.71,15.09,82.05,45.55,98.51,102.89,5.29,18.44,11.93,36.71,20.23,53.42,15.81,31.83,33.26,62.49,50.02,93.64Z"/><path class="b" d="M182.67,0c20.3,0,40.59,0,60.89,0,1.48,7.81,3.1,15.58,4.42,23.43,7.54,44.81,15.42,89.54,22.36,134.47,5.82,37.64,9.67,75.74,15.9,113.27,10.09,60.77,27.35,118.96,46.74,176.27,11.97,35.35,26.13,69.24,45.29,99.86,33.29,53.19,75.42,93.36,126.4,118.99,32.55,16.36,65.89,30.66,99.41,43.94,41.71,16.52,84.28,29.92,125.91,46.68,67.56,27.2,130.11,66.72,187.01,118.19,28,25.33,54.06,53.74,80.99,80.76v82.03c-1.93-2.24-3.88-4.46-5.78-6.73-24.7-29.54-48.22-60.67-74.31-88.31-68.19-72.24-148.09-114.07-238.54-126.66-52.09-7.25-104.25-13.84-156.18-22.47-45.86-7.62-90.58-20.46-132.68-45.36-42.75-25.29-80.23-57.44-107.52-105.09-30.65-53.51-43.92-114.1-47.99-177.67-2.98-46.47-4.1-93.19-4.51-139.81-.86-97.3-12.96-192.3-37.45-285.04C189.46,27.22,186.12,13.59,182.67,0Z"/><path class="b" d="M998,370.93v165.85c-19.12-2.99-38.26-5.86-57.36-8.98-65.43-10.71-130.94-20.73-196.23-32.55-40.35-7.31-80.29-17.7-118.33-36.42-57.08-28.09-95.08-75.87-109.37-149.49-10.69-55.08-15.19-110.85-14-167.11C503.73,94.78,507.08,47.4,509.4,0h74.26c-.51,30.88-1.79,61.77-1.37,92.62,.77,57.28,6.09,113.89,23.53,167.82,18.41,56.95,52.36,93.14,101.95,107.89,36.52,10.86,73.83,13.25,111.16,14.86,59.98,2.58,119.7-1.6,179.08-12.25Z"/><path class="b" d="M334.15,0c28.71,0,57.42,0,86.14,0,2.81,93.21,5.32,186.43,8.57,279.61,1.23,35.2,6.12,69.97,19.97,101.55,14.21,32.39,31.49,62.41,54.22,87.3,13.69,14.99,26.9,30.79,41.55,44.31,43.72,40.33,94.39,62.91,146.91,80.39,59.56,19.81,119.52,38.08,178.49,60.14,43.34,16.22,85.38,37.46,128,56.46v130.18c-1.52-.93-3.19-1.62-4.55-2.81-39.11-34.17-81.36-62.38-124.79-87.08-42.56-24.21-87.09-43.72-131.43-63.06-45.04-19.65-91.45-34.7-134.94-59.52-44.03-25.13-84.82-56.21-121.04-95.39-43.65-47.21-74.45-105.87-101.68-167.6-12.24-27.76-18.99-57.23-20.68-88.48-1.46-26.96-2.38-53.99-4.64-80.85-3.83-45.47-8.37-90.86-12.93-136.23C339.35,39.23,336.57,19.64,334.15,0Z"/><path class="b" d="M998,172.98v189.03c-4.67,.68-9.34,1.3-14,2.05-80.09,12.84-160.28,14.76-240.57,3.13-27.22-3.95-53.61-11.51-77.16-29.41-37.35-28.39-54.25-72.48-64.21-121.69-12.21-60.32-13.82-121.68-11.88-183.33,.34-10.94,1.57-21.84,2.39-32.76,28.22,0,56.43,0,84.65,0,1.3,47.83,6.75,94.69,23.67,138.62,16.81,43.63,43.26,73.99,83.19,85.12,31.64,8.82,63.31,5.88,93.93-4.58,40.37-13.8,80.02-30.64,119.98-46.18Z"/><path class="b" d="M998,547.48v151.58c-32.31-14.85-64.04-31.98-97.05-44.06-68.54-25.08-137.56-48.36-206.74-70.75-75.58-24.45-143.31-64.34-196.48-135.3-35.64-47.56-58.87-101.51-60.93-166.8-2.19-69.44-4.87-138.85-6.98-208.29-.75-24.6-.44-49.24-.62-73.86h69.8c-.8,13.31-1.63,26.63-2.4,39.94-5.02,87.22-7.26,174.12,9.86,260.32,10.18,51.23,27.52,96.44,62.5,129.95,25.96,24.87,55.67,40.75,87.32,51.51,75.25,25.58,152.75,35.78,229.97,47.86,37.26,5.83,74.49,11.92,111.74,17.89Z"/><path class="b" d="M250.99,0C276.23,0,301.48,0,326.73,0c2.75,24.12,5.98,48.17,8.17,72.37,5.09,56.39,9.71,112.83,14.43,169.27,1.78,21.27,2.6,42.69,5.09,63.83,3.53,29.9,14.88,56.43,26.98,82.45,32.35,69.55,70.68,132.78,124.94,180.9,49.51,43.9,103.54,76.5,161.54,100.04,67.41,27.35,136.09,50.72,199.16,91.5,34.81,22.51,69.17,46.05,103.58,69.43,9.4,6.38,18.27,13.88,27.38,20.86v94.52c-39.11-44.42-81.58-83.53-127.36-117.63-42.82-31.89-88.24-57.73-135.32-78.19-43.83-19.04-89.41-32.25-134.16-48.3-46.28-16.6-91.58-36.18-133.06-66.57-53.74-39.36-93.66-93.82-118.83-162.9-14.05-38.55-26.71-78.01-37.48-118.04-9.62-35.76-17.04-72.56-23.15-109.45-8.09-48.87-13.56-98.35-20.93-147.4C262.84,64.31,256.61,32.22,250.99,0Z"/><path class="b" d="M649,1498H0C0,1472.39,0,1446.85,0,1421.32c2.46-.25,4.92-.43,7.37-.76,36.36-4.89,72.65-10.79,109.09-14.49,62.83-6.38,125.75-11.56,188.64-16.94,65.24-5.58,130.45-7.91,195.35,5.15,39.64,7.97,77.46,22.26,111.4,48.76,17.14,13.38,29.48,32.04,37.14,54.97Z"/><path class="b" d="M998,46.37v117.7c-2.49,1.28-4.92,2.76-7.47,3.82-24.49,10.21-48.87,20.81-73.53,30.39-36.58,14.23-73.72,25.03-112.7,21.23-31.24-3.05-57.62-17.93-77.87-47.04-22.11-31.79-32.01-69.84-37.39-109.79C686.25,41.95,685.06,20.9,683.15,0h135.15c10.61,20.55,24.31,37.19,42.14,48.8,30.82,20.08,63.34,20.72,96.48,11.71,13.87-3.77,27.4-9.37,41.08-14.14Z"/><path class="b" d="M0,342.4c0-74.9,0-149.8,0-224.7C15.99,80.11,29.3,41.3,37.13,0h46.04c1.51,15.83,4.54,31.7,4.24,47.48-.75,38.69-10.14,75.48-21.73,111.16-12.91,39.75-27.27,78.82-41.27,118.05C16.54,298.73,8.15,320.51,0,342.4Z"/><path class="c" d="M136.63,0c17.38,52.71,24.54,107.37,22.79,164-1.17,37.96-7.45,74.89-14.26,111.69-11.85,64.06-24.94,127.8-36.4,191.95-9.94,55.61-15.36,111.96-13.89,169.02,1.18,45.73,8.81,89.79,26.08,130.66,22.58,53.44,59.26,88.97,104.12,113.16,46.4,25.02,95.65,35.76,145.89,41.6,68.44,7.95,136.97,4.48,205.5,2.8,54.19-1.33,108.43-2.91,162.36,5.8,84.79,13.7,153.23,61.39,203.24,144.91,18.59,31.05,34.38,64.5,51.47,96.85,1.45,2.74,2.99,5.4,4.48,8.1v17.83c-10.82-21.6-21.5-43.29-32.48-64.77-22.47-43.97-47.05-85.85-80.8-118.82-43.19-42.19-92.49-66.74-147.59-75.12-64.61-9.83-129.45-5.43-194.24-4.88-47.49,.4-95.05,1.31-142.47-1.07-57.26-2.88-113.75-13.13-167.42-39.22-42.85-20.83-79.67-51.25-106.28-97.65-20.23-35.26-30.97-74.9-36.01-116.74-8.7-72.18-1.6-143.56,10.68-214.18,11.58-66.54,25.13-132.58,37.6-198.9,8.24-43.85,14.21-87.98,13.05-133.26-1.1-42.93-8.35-84.2-20.41-124.45C130.71,6.27,130.01,3.11,129.21,0h7.43Z"/><path class="d" d="M182.67,0c3.45,13.59,6.79,27.22,10.36,40.76,24.49,92.74,36.59,187.74,37.45,285.04,.41,46.63,1.53,93.34,4.51,139.81,4.07,63.57,17.34,124.16,47.99,177.67,27.3,47.65,64.78,79.8,107.52,105.09,42.1,24.91,86.83,37.74,132.68,45.36,51.93,8.63,104.1,15.22,156.18,22.47,90.45,12.58,170.34,54.41,238.54,126.66,26.09,27.64,49.61,58.78,74.31,88.31,1.9,2.27,3.85,4.49,5.78,6.73v16.05c-28.22-39.93-58.25-77.66-92.01-111.01-55.25-54.58-117.02-93.3-187.71-108.89-31.56-6.96-63.61-11.03-95.55-15.24-62.71-8.26-125.56-15.47-186.15-38.17-17.66-6.62-35.36-14.01-51.9-23.82-82.95-49.19-135.01-127.19-151.76-237.72-6.58-43.43-8.87-87.21-9.83-131.2-.86-39.5-1.21-79.03-2.7-118.49-2.85-75.2-15.28-148.38-33.66-220.21C182.53,32.76,178.09,16.4,173.76,0h8.91Z"/><path class="d" d="M998,850.65c-9.11-6.98-17.99-14.48-27.38-20.86-34.42-23.38-68.77-46.93-103.58-69.43-63.07-40.78-131.75-64.16-199.16-91.5-58-23.53-112.03-56.13-161.54-100.04-54.26-48.12-92.59-111.35-124.94-180.9-12.1-26.02-23.45-52.55-26.98-82.45-2.49-21.14-3.31-42.56-5.09-63.83-4.72-56.43-9.35-112.88-14.43-169.27-2.18-24.19-5.41-48.25-8.17-72.37,2.48,0,4.95,0,7.43,0,2.42,19.64,5.2,39.23,7.18,58.93,4.56,45.38,9.1,90.76,12.93,136.23,2.26,26.86,3.18,53.89,4.64,80.85,1.69,31.25,8.44,60.71,20.68,88.48,27.22,61.73,58.03,120.39,101.68,167.6,36.22,39.18,77.01,70.26,121.04,95.39,43.49,24.82,89.9,39.87,134.94,59.52,44.34,19.34,88.87,38.84,131.43,63.06,43.42,24.7,85.68,52.91,124.79,87.08,1.36,1.19,3.02,1.89,4.55,2.81v10.7Z"/><path class="c" d="M250.99,0c5.62,32.22,11.85,64.31,16.72,96.7,7.37,49.05,12.84,98.54,20.93,147.4,6.11,36.89,13.53,73.69,23.15,109.45,10.77,40.03,23.43,79.49,37.48,118.04,25.17,69.08,65.09,123.54,118.83,162.9,41.48,30.38,86.78,49.97,133.06,66.57,44.74,16.05,90.33,29.25,134.16,48.3,47.09,20.46,92.51,46.3,135.32,78.19,45.78,34.09,88.25,73.2,127.36,117.63v10.7c-26.94-27.02-53-55.44-80.99-80.76-56.9-51.47-119.45-90.99-187.01-118.19-41.64-16.76-84.2-30.16-125.91-46.68-33.52-13.28-66.86-27.58-99.41-43.94-50.99-25.63-93.12-65.79-126.4-118.99-19.16-30.62-33.32-64.51-45.29-99.86-19.4-57.31-36.66-115.5-46.74-176.27-6.23-37.53-10.08-75.63-15.9-113.27-6.94-44.94-14.83-89.67-22.36-134.47C246.66,15.58,245.04,7.81,243.56,0h7.43Z"/><path class="d" d="M998,1451.63c-17.56-27.94-36.65-54.71-52.38-84.07-32.65-60.93-63.3-123.4-95.24-184.89-11.5-22.14-23.04-44.6-36.88-64.59-25.77-37.22-61.24-54.35-100.04-62.06-32.13-6.39-64.53-7-96.93-2.88-52.88,6.71-105.77,13.32-158.61,20.56-46.67,6.4-93.18,14.67-139.91,20.23-75.97,9.05-152.09,13.11-228.11,.5-28.2-4.68-55.98-12.07-82.81-23.87-2.29-1.01-4.72-1.58-7.08-2.35,0-2.97,0-5.94,0-8.92,17.52,6.18,34.87,13.15,52.58,18.38,43.51,12.85,87.93,15.88,132.56,16.2,63.69,.47,126.95-6.15,190.08-15.74,47.81-7.26,95.74-13.39,143.6-20.18,26.27-3.73,52.45-8.79,78.79-11.45,50.89-5.14,101.76-7.83,151.4,11.91,34.54,13.73,62.97,37.5,82.56,74.48,26.14,49.35,51.38,99.39,76.74,149.32,26.79,52.74,53.93,105.17,86.67,153.04,.94,1.37,2.01,2.59,3.03,3.89v12.48Z"/><path class="c" d="M429.2,0c.17,24.62-.13,49.26,.62,73.86,2.11,69.44,4.79,138.86,6.98,208.29,2.06,65.29,25.29,119.24,60.93,166.8,53.17,70.96,120.9,110.85,196.48,135.3,69.19,22.39,138.21,45.67,206.74,70.75,33.01,12.08,64.74,29.21,97.05,44.06v10.7c-42.62-19-84.65-40.25-128-56.46-58.97-22.06-118.93-40.33-178.49-60.14-52.52-17.47-103.19-40.05-146.91-80.39-14.65-13.52-27.86-29.32-41.55-44.31-22.73-24.9-40.01-54.91-54.22-87.3-13.86-31.58-18.75-66.35-19.97-101.55C425.61,186.43,423.1,93.21,420.29,0h8.91Z"/><path class="c" d="M824.24,1498c-16.77-31.15-34.22-61.81-50.02-93.64-8.3-16.71-14.94-34.99-20.23-53.42-16.47-57.34-51.81-87.8-98.51-102.89-44.76-14.46-90.5-15.7-136.32-12.74-55.07,3.56-110.2,7.02-165.1,13.24-53.41,6.05-106.56,15.46-159.81,23.51-63.54,9.6-127.08,19.3-190.61,28.97-1.22,.19-2.43,.54-3.65,.81v-10.7c14.02-1.45,28.1-2.27,42.04-4.47,71.38-11.28,142.75-22.67,214.07-34.49,96.45-15.98,193.43-23.79,290.67-27.17,39.98-1.39,79.69,1.99,118.2,16.41,28.83,10.8,55.26,26.85,74.06,56.29,7.14,11.18,13.31,23.93,17.43,37.09,18.68,59.59,46.22,112.87,78.16,163.2h-10.4Z"/><path class="d" d="M998,547.48c-37.25-5.97-74.48-12.06-111.74-17.89-77.22-12.08-154.72-22.28-229.97-47.86-31.65-10.76-61.37-26.65-87.32-51.51-34.98-33.51-52.33-78.72-62.5-129.95-17.13-86.2-14.88-173.1-9.86-260.32C497.37,26.63,498.2,13.31,499,0c3.47,0,6.93,0,10.4,0-2.32,47.4-5.67,94.78-6.68,142.22-1.2,56.26,3.31,112.03,14,167.11,14.28,73.62,52.29,121.4,109.37,149.49,38.04,18.72,77.97,29.11,118.33,36.42,65.29,11.82,130.8,21.84,196.23,32.55,19.11,3.13,38.24,6,57.36,8.98v10.7Z"/><path class="b" d="M828.7,0h169.3V35.67c-7.24,2.85-14.46,5.73-21.71,8.54-27.86,10.83-56.2,16.51-85.21,8.27C864.67,44.98,843.04,28.55,828.7,0Z"/><path class="d" d="M649,1498c-7.66-22.92-20-41.59-37.14-54.97-33.94-26.5-71.76-40.79-111.4-48.76-64.9-13.06-130.11-10.73-195.35-5.15-62.9,5.38-125.81,10.56-188.64,16.94-36.44,3.7-72.73,9.6-109.09,14.49-2.45,.33-4.92,.51-7.37,.76v-8.92c44.47-6.03,88.86-13.07,133.43-17.84,54.43-5.83,109-9.71,163.5-14.52,55.07-4.85,110.16-7.55,165.27-1.54,39.82,4.34,78.66,13.81,115.94,32.02,35.97,17.57,64.82,44.05,81.25,87.48h-10.4Z"/><path class="c" d="M592.56,0c-.82,10.92-2.04,21.82-2.39,32.76-1.94,61.65-.34,123.01,11.88,183.33,9.96,49.2,26.86,93.29,64.21,121.69,23.56,17.9,49.94,25.47,77.16,29.41,80.29,11.64,160.49,9.72,240.57-3.13,4.66-.75,9.33-1.37,14-2.05v8.92c-59.38,10.65-119.09,14.83-179.08,12.25-37.33-1.6-74.65-4-111.16-14.86-49.59-14.74-83.54-50.94-101.95-107.89-17.43-53.93-22.76-110.53-23.53-167.82-.41-30.86,.86-61.75,1.37-92.62h8.91Z"/><path class="d" d="M683.15,0c1.91,20.9,3.09,41.95,5.88,62.68,5.38,39.95,15.28,78,37.39,109.79,20.25,29.12,46.63,44,77.87,47.04,38.98,3.8,76.12-7.01,112.7-21.23,24.66-9.59,49.04-20.19,73.53-30.39,2.55-1.06,4.98-2.54,7.47-3.82v8.92c-39.96,15.53-79.61,32.38-119.98,46.18-30.62,10.46-62.29,13.4-93.93,4.58-39.93-11.13-66.39-41.49-83.19-85.12C683.97,94.69,678.52,47.83,677.21,0h5.94Z"/><path class="d" d="M0,342.4c8.15-21.89,16.54-43.67,24.41-65.71,13.99-39.23,28.36-78.31,41.27-118.05,11.59-35.68,20.98-72.46,21.73-111.16C87.71,31.7,84.68,15.83,83.17,0h7.43c8.55,44.81,2.32,88.44-10.14,130.45-13.75,46.36-29.93,91.69-45.59,137.21-10.1,29.35-21.14,58.23-31.8,87.3-.89,2.42-2.04,4.71-3.07,7.06v-19.62Z"/><path class="c" d="M828.7,0c14.34,28.55,35.97,44.98,62.39,52.48,29.01,8.24,57.35,2.56,85.21-8.27,7.24-2.82,14.47-5.69,21.71-8.54v10.7c-13.68,4.77-27.21,10.36-41.08,14.14-33.14,9.02-65.66,8.38-96.48-11.71C842.61,37.19,828.91,20.55,818.3,0h10.4Z"/><path class="b" d="M0,94.52V0H28.22C23.28,33.43,12.23,64.23,0,94.52Z"/><path class="c" d="M0,94.52C12.23,64.23,23.28,33.43,28.22,0h8.91C29.3,41.3,15.99,80.11,0,117.7v-23.18Z"/></svg>