<?xml version="1.0" encoding="utf-8"?>
<!-- Generator: Adobe Illustrator 26.2.0, SVG Export Plug-In . SVG Version: 6.00 Build 0)  -->
<svg version="1.1" id="Layer_1" xmlns="http://www.w3.org/2000/svg" xmlns:xlink="http://www.w3.org/1999/xlink" x="0px" y="0px"
	 viewBox="0 0 1002 1002" style="enable-background:new 0 0 1002 1002;" xml:space="preserve">
<style type="text/css">
	.st0{fill:#E6E6E6;}
	.st1{fill:#2F2E41;}
	.st2{fill:#3F3D56;}
	.st3{fill:#FFFFFF;}
	.st4{fill:#358597;}
	.st5{fill:#FFB8B8;}
</style>
<g>
	<ellipse class="st0" cx="200.2" cy="833.7" rx="199.2" ry="15.1"/>
	<path class="st1" d="M153.3,307.5c34.7-14.7,77.9-5.4,120,1.1c0.4-7.9,5.1-17.4,0.2-22.9c-6.1-6.7-5.5-13.7-1.9-20.7
		c9.3-18-4-37.1-17.5-53c-6.2-7.3-15.4-11.1-24.9-10.5l-25,1.8c-12.4,0.9-23,9.4-26.5,21.4l0,0c-6,8.1-9.2,16.2-7.1,24.2
		c-8.9,6.1-10.4,13.5-6.4,21.8c3.4,5.2,3.4,10.3-0.2,15.3c-4.6,6.3-8.2,13.3-10.5,20.8L153.3,307.5z"/>
	<path class="st1" d="M977.3,754.6H270.6c-13.1,0-23.7-10.6-23.7-23.7l0,0l0,0c256.2-29.8,507.5-29.8,754.1,0l0,0
		C1001,744,990.4,754.6,977.3,754.6L977.3,754.6z"/>
	<path class="st2" d="M1001,732.3l-754.1-1.4l87.4-147.1l0.4-0.7V259c0-16.5,13.4-30,29.9-30c0,0,0,0,0,0H879
		c16.5,0,30,13.4,30,29.9c0,0,0,0,0,0v326.3L1001,732.3z"/>
	<path class="st3" d="M364,250c-5.4,0-9.8,4.4-9.8,9.8v295.5c0,5.4,4.4,9.8,9.8,9.8h519.9c5.4,0,9.8-4.4,9.8-9.8V259.8
		c0-5.4-4.4-9.8-9.8-9.8L364,250z"/>
	<path class="st1" d="M366.2,604c-1.6,0-3.1,1-3.8,2.4L335.4,665c-1,2.1,0,4.6,2.1,5.5c0.5,0.3,1.1,0.4,1.7,0.4h566.3
		c2.3,0,4.2-1.9,4.2-4.2c0-0.6-0.2-1.3-0.4-1.9L880,606.4c-0.7-1.4-2.2-2.3-3.7-2.3L366.2,604z"/>
	<circle class="st3" cx="621.9" cy="238.8" r="6.3"/>
	<path class="st1" d="M566.2,682.1c-1.9,0-3.5,1.3-4,3.1l-6.8,25.1c-0.6,2.2,0.7,4.5,2.9,5.1c0.4,0.1,0.7,0.1,1.1,0.1h128.5
		c2.3,0,4.2-1.9,4.2-4.2c0-0.5-0.1-0.9-0.2-1.4l-8.7-25.1c-0.6-1.7-2.2-2.8-4-2.8L566.2,682.1z"/>
	<polygon class="st1" points="909,578.3 909,583.8 334.3,583.8 334.7,583.1 334.7,578.3 	"/>
	<circle class="st4" cx="893" cy="250.7" r="97.6"/>
	<path class="st3" d="M933.4,293.2h-80.8c-3.1,0-5.6-2.5-5.6-5.6v-48.8c0-3.1,2.5-5.6,5.6-5.6h80.8c3.1,0,5.6,2.5,5.6,5.6v48.8
		C939,290.7,936.5,293.2,933.4,293.2z M852.5,238.8v48.8h80.9l0-48.8L852.5,238.8z"/>
	<path class="st3" d="M918.1,238.8h-50.2v-22.3c0-16.2,10.6-27.9,25.1-27.9s25.1,11.7,25.1,27.9V238.8z M873.5,233.3h39v-16.7
		c0-13.1-8-22.3-19.5-22.3s-19.5,9.2-19.5,22.3L873.5,233.3z"/>
	<circle class="st3" cx="893" cy="261.8" r="5.6"/>
	<path class="st0" d="M824.9,464.8H423c-4.1,0-7.4-3.3-7.4-7.4v-99.7c0-4.1,3.3-7.4,7.4-7.4h401.8c4.1,0,7.4,3.3,7.4,7.4v99.7
		C832.3,461.5,829,464.8,824.9,464.8z M423,353.2c-2.5,0-4.5,2-4.5,4.5v99.7c0,2.5,2,4.5,4.5,4.5h401.8c2.5,0,4.5-2,4.5-4.5v-99.7
		c0-2.5-2-4.5-4.5-4.5L423,353.2z"/>
	<circle class="st0" cx="485.5" cy="403.7" r="30.3"/>
	<path class="st0" d="M555.5,383.5c-2.8,0-5.1,2.3-5.1,5c0,2.8,2.3,5.1,5,5.1c0,0,0,0,0,0h238.2c2.8,0,5.1-2.3,5.1-5.1
		c0-2.8-2.3-5.1-5.1-5.1H555.5z"/>
	<path class="st0" d="M555.5,413.8c-2.8,0-5.1,2.3-5.1,5.1c0,2.8,2.3,5.1,5.1,5.1H658c2.8,0,5.1-2.3,5.1-5.1c0-2.8-2.3-5.1-5.1-5.1
		H555.5z"/>
	<path class="st5" d="M333.3,415.8L259,455.3l-0.9-32.9c24.2-4,47.3-11.1,68.6-22.6l7.8-19.2c2.7-6.7,10.3-9.9,16.9-7.2
		c2,0.8,3.8,2.1,5.2,3.8l0,0c4.3,5.3,3.8,13.1-1.1,17.7L333.3,415.8z"/>
	<path class="st1" d="M151.8,643.8L151.8,643.8c-1.1-4-0.4-8.3,1.9-11.8l16.3-25c8-12.3,24-16.5,37-9.8l0,0
		c-6.9,11.7-5.9,21.9,2.4,30.8c-12.8,6.3-24.7,14.4-35.2,24c-6.7,4.5-15.7,2.8-20.3-3.8C152.9,646.9,152.2,645.4,151.8,643.8z"/>
	<path class="st1" d="M336.7,611.1L336.7,611.1c-5,8.4-14,13.5-23.8,13.6l-108.4,0.8l-4.7-27.3l48-14.1l-40.4-31l44.2-51.7
		l80.3,74.8C341.4,585.2,343.5,599.8,336.7,611.1z"/>
	<path class="st1" d="M187.6,797.6h-25.4c-22.8-156.2-46-312.9,22.6-371.4l80.9,13.2L255.3,508l-45.1,51.7L187.6,797.6z"/>
	<path class="st1" d="M209.9,833L209.9,833c-4,1.1-8.3,0.4-11.8-1.9l-27.6-3.7c-12.3-8-16.5-24-9.8-37l0,0
		c11.7,6.9,21.9,5.9,30.8-2.4c6.3,12.7,16.6,11.9,26.5,22.6c4.5,6.7,2.8,15.7-3.8,20.3C212.9,831.9,211.5,832.5,209.9,833z"/>
	<path class="st5" d="M247.7,321.8l-47-11.3c7.8-16,8.5-33.8,4.7-52.7l32-0.9C238.4,280.4,241.4,302.4,247.7,321.8z"/>
	<path class="st4" d="M260.7,467.6c-34.2,23.3-58.4,0.8-76.9-34c2.6-21.3-1.6-46.7-9.3-74.4c-7.1-25.3,6.3-51.8,30.9-61l0,0
		l40.4,16.9c34.3,28,41.1,58.3,28.2,90.3L260.7,467.6z"/>
	<path class="st5" d="M162.2,345.3l-37.6,19.7l66.8,39.5l9.3,22.9c2.5,6.2-0.5,13.3-6.7,15.8c-0.2,0.1-0.4,0.2-0.6,0.2l0,0
		c-6.3,2.2-13.3-1.2-15.4-7.5c-0.4-1-0.6-2.1-0.6-3.2l-0.9-16l-84.8-28c-5.8-1.9-10.4-6.4-12.4-12.1l0,0c-3.1-8.5,0-18,7.4-23.1
		l68.2-46.8L162.2,345.3z"/>
	<path class="st4" d="M199.8,349.1c-15.7-6.9-29.9,0.6-48,6.6l-2.8-49.8c17.9-9.5,34.9-12.1,50.8-4.7L199.8,349.1z"/>
	<circle class="st5" cx="218.6" cy="251.6" r="30"/>
	<path class="st1" d="M254.5,247.8c-29.7,2.9-52.4-1.9-66.8-15.8v-11.1h64.3L254.5,247.8z"/>
</g>
</svg>
