<?xml version="1.0" encoding="UTF-8"?><svg id="a" xmlns="http://www.w3.org/2000/svg" xmlns:xlink="http://www.w3.org/1999/xlink" viewBox="0 0 900 900"><defs><style>.c{fill:#fff;}.d{fill:#358597;}.e{fill:url(#b);}.f{fill:none;}</style><pattern id="b" x="0" y="0" width="170" height="100" patternTransform="translate(7820 7600) scale(2)" patternUnits="userSpaceOnUse" viewBox="0 0 170 100"><g><rect class="f" width="170" height="100"/><g><ellipse class="d" cx="-85" cy="-50" rx="88.38" ry="61.62"/><path class="c" d="M3.88-50c0-34.25-39.87-62.12-88.88-62.12s-88.88,27.87-88.88,62.12S-134.01,12.12-85,12.12,3.88-15.75,3.88-50Zm-1,0C2.88-16.3-36.54,11.12-85,11.12s-87.88-27.42-87.88-61.12,39.42-61.12,87.88-61.12S2.88-83.7,2.88-50Z"/></g><g><ellipse class="d" cx="85" cy="-50" rx="88.38" ry="61.62"/><path class="c" d="M173.88-50c0-34.25-39.87-62.12-88.88-62.12S-3.88-84.25-3.88-50,35.99,12.12,85,12.12s88.88-27.87,88.88-62.12Zm-1,0c0,33.7-39.42,61.12-87.88,61.12S-2.88-16.3-2.88-50s39.42-61.12,87.88-61.12,87.88,27.42,87.88,61.12Z"/><ellipse class="d" cx="85" cy="-50" rx="79.55" ry="55.45"/><path class="c" d="M165.04-50c0-30.85-35.91-55.95-80.04-55.95S4.95-80.85,4.95-50,40.86,5.96,85,5.96s80.04-25.1,80.04-55.96Zm-1,0c0,30.3-35.46,54.96-79.04,54.96S5.95-19.7,5.95-50s35.46-54.95,79.05-54.95,79.04,24.65,79.04,54.95Z"/></g><g><ellipse class="d" cx="255" cy="-50" rx="88.38" ry="61.62"/><path class="c" d="M343.88-50c0-34.25-39.87-62.12-88.88-62.12s-88.88,27.87-88.88,62.12S205.99,12.12,255,12.12s88.88-27.87,88.88-62.12Zm-1,0c0,33.7-39.42,61.12-87.88,61.12s-87.88-27.42-87.88-61.12,39.42-61.12,87.88-61.12,87.88,27.42,87.88,61.12Z"/></g><g><ellipse class="d" cx="0" cy="0" rx="88.38" ry="61.62"/><path class="c" d="M88.88,0C88.88-34.25,49.01-62.12,0-62.12S-88.88-34.25-88.88,0-49.01,62.12,0,62.12,88.88,34.25,88.88,0ZM87.88,0C87.88,33.7,48.46,61.12,0,61.12S-87.88,33.7-87.88,0-48.46-61.12,0-61.12,87.88-33.7,87.88,0Z"/><ellipse class="d" cx="0" cy="0" rx="79.55" ry="55.45"/><path class="c" d="M80.04,0C80.04-30.85,44.14-55.95,0-55.95S-80.05-30.85-80.05,0-44.14,55.96,0,55.96,80.04,30.85,80.04,0ZM79.04,0C79.04,30.3,43.59,54.96,0,54.96S-79.05,30.3-79.05,0-43.59-54.95,0-54.95,79.04-30.3,79.04,0Z"/><ellipse class="d" cx="0" cy="0" rx="70.71" ry="49.29"/><path class="c" d="M71.21,0C71.21-27.46,39.26-49.79,0-49.79S-71.21-27.46-71.21,0-39.26,49.79,0,49.79,71.21,27.46,71.21,0ZM70.21,0C70.21,26.9,38.71,48.79,0,48.79S-70.21,26.9-70.21,0-38.71-48.79,0-48.79,70.21-26.9,70.21,0Z"/><path class="d" d="M61.87,0C61.87,23.82,34.17,43.13,0,43.13S-61.87,23.82-61.87,0-34.17-43.13,0-43.13,61.87-23.82,61.87,0Z"/><path class="c" d="M62.37,0C62.37-24.06,34.39-43.63,0-43.63S-62.37-24.06-62.37,0-34.39,43.63,0,43.63,62.37,24.06,62.37,0ZM61.37,0C61.37,23.51,33.84,42.63,0,42.63S-61.37,23.51-61.37,0-33.84-42.63,0-42.63,61.37-23.51,61.37,0Z"/><ellipse class="d" cx="0" cy="0" rx="53.03" ry="36.97"/><path class="c" d="M53.53,0C53.53-20.66,29.52-37.47,0-37.47S-53.53-20.66-53.53,0-29.52,37.47,0,37.47,53.53,20.66,53.53,0ZM52.53,0C52.53,20.11,28.96,36.47,0,36.47S-52.53,20.11-52.53,0-28.97-36.47,0-36.47,52.53-20.11,52.53,0Z"/><path class="d" d="M44.19,0C44.19,17.01,24.41,30.81,0,30.81S-44.19,17.01-44.19,0-24.41-30.81,0-30.81,44.19-17.01,44.19,0Z"/><path class="c" d="M44.69,0C44.69-17.26,24.64-31.31,0-31.31S-44.69-17.26-44.69,0-24.64,31.31,0,31.31,44.69,17.26,44.69,0ZM43.69,0C43.69,16.71,24.09,30.31,0,30.31S-43.69,16.71-43.69,0-24.09-30.31,0-30.31,43.69-16.71,43.69,0Z"/><ellipse class="d" cx="0" cy="0" rx="35.35" ry="24.65"/><path class="c" d="M35.85,0C35.85-13.87,19.77-25.15,0-25.15S-35.85-13.87-35.85,0-19.77,25.15,0,25.15,35.85,13.87,35.85,0ZM34.85,0C34.85,13.31,19.22,24.15,0,24.15S-34.85,13.31-34.85,0-19.22-24.15,0-24.15,34.85-13.31,34.85,0Z"/><path class="d" d="M26.52,0C26.52,10.21,14.64,18.48,0,18.48S-26.51,10.21-26.51,0-14.64-18.48,0-18.48,26.52-10.21,26.52,0Z"/><path class="c" d="M27.02,0C27.02-10.47,14.9-18.98,0-18.98S-27.01-10.47-27.01,0-14.9,18.98,0,18.98,27.02,10.47,27.02,0ZM26.02,0C26.02,9.92,14.35,17.98,0,17.98S-26.01,9.92-26.01,0-14.34-17.98,0-17.98,26.02-9.92,26.02,0Z"/><ellipse class="d" cx="0" cy="0" rx="17.68" ry="12.32"/><path class="c" d="M18.18,0C18.18-7.07,10.02-12.82,0-12.82S-18.18-7.07-18.18,0-10.02,12.82,0,12.82,18.18,7.07,18.18,0ZM17.18,0C17.18,6.52,9.47,11.82,0,11.82S-17.18,6.52-17.18,0-9.47-11.82,0-11.82,17.18-6.52,17.18,0Z"/><path class="d" d="M8.84,0C8.84,3.4,4.88,6.16,0,6.16S-8.84,3.4-8.84,0-4.88-6.16,0-6.16,8.84-3.4,8.84,0Z"/><path class="c" d="M9.34,0C9.34-3.67,5.15-6.66,0-6.66S-9.34-3.67-9.34,0-5.15,6.66,0,6.66,9.34,3.67,9.34,0ZM8.34,0C8.34,3.12,4.6,5.66,0,5.66S-8.34,3.12-8.34,0-4.6-5.66,0-5.66,8.34-3.12,8.34,0Z"/></g><g><ellipse class="d" cx="170" cy="0" rx="88.38" ry="61.62"/><path class="c" d="M258.88,0c0-34.25-39.87-62.12-88.88-62.12S81.12-34.25,81.12,0s39.87,62.12,88.88,62.12S258.88,34.25,258.88,0ZM257.88,0c0,33.7-39.42,61.12-87.88,61.12S82.12,33.7,82.12,0s39.42-61.12,87.88-61.12S257.88-33.7,257.88,0Z"/><ellipse class="d" cx="170" cy="0" rx="79.55" ry="55.45"/><path class="c" d="M250.04,0c0-30.85-35.91-55.95-80.04-55.95S89.95-30.85,89.95,0s35.91,55.96,80.05,55.96S250.04,30.85,250.04,0ZM249.04,0c0,30.3-35.46,54.96-79.04,54.96S90.95,30.3,90.95,0s35.46-54.95,79.05-54.95S249.04-30.3,249.04,0Z"/><ellipse class="d" cx="170" cy="0" rx="70.71" ry="49.29"/><path class="c" d="M241.21,0c0-27.46-31.94-49.79-71.21-49.79S98.79-27.46,98.79,0s31.94,49.79,71.21,49.79S241.21,27.46,241.21,0ZM240.21,0c0,26.9-31.5,48.79-70.21,48.79S99.79,26.9,99.79,0s31.49-48.79,70.21-48.79S240.21-26.9,240.21,0Z"/><path class="d" d="M231.87,0c0,23.82-27.7,43.13-61.87,43.13S108.13,23.82,108.13,0s27.7-43.13,61.87-43.13S231.87-23.82,231.87,0Z"/><path class="c" d="M232.37,0c0-24.06-27.98-43.63-62.37-43.63S107.63-24.06,107.63,0s27.98,43.63,62.37,43.63S232.37,24.06,232.37,0ZM231.37,0c0,23.51-27.53,42.63-61.37,42.63S108.63,23.51,108.63,0s27.53-42.63,61.37-42.63S231.37-23.51,231.37,0Z"/><ellipse class="d" cx="170" cy="0" rx="53.03" ry="36.97"/><path class="c" d="M223.53,0c0-20.66-24.01-37.47-53.53-37.47S116.47-20.66,116.47,0s24.01,37.47,53.53,37.47S223.53,20.66,223.53,0ZM222.53,0c0,20.11-23.57,36.47-52.53,36.47S117.47,20.11,117.47,0s23.56-36.47,52.53-36.47S222.53-20.11,222.53,0Z"/><path class="d" d="M214.19,0c0,17.01-19.79,30.81-44.19,30.81S125.81,17.01,125.81,0s19.79-30.81,44.19-30.81S214.19-17.01,214.19,0Z"/><path class="c" d="M214.69,0c0-17.26-20.05-31.31-44.69-31.31S125.31-17.26,125.31,0s20.05,31.31,44.69,31.31S214.69,17.26,214.69,0ZM213.69,0c0,16.71-19.6,30.31-43.69,30.31S126.31,16.71,126.31,0s19.6-30.31,43.69-30.31S213.69-16.71,213.69,0Z"/><ellipse class="d" cx="170" cy="0" rx="35.35" ry="24.65"/><path class="c" d="M205.85,0c0-13.87-16.08-25.15-35.85-25.15S134.15-13.87,134.15,0s16.08,25.15,35.85,25.15S205.85,13.87,205.85,0ZM204.85,0c0,13.31-15.63,24.15-34.85,24.15S135.15,13.31,135.15,0s15.64-24.15,34.85-24.15S204.85-13.31,204.85,0Z"/><path class="d" d="M196.52,0c0,10.21-11.87,18.48-26.52,18.48S143.49,10.21,143.49,0s11.87-18.48,26.51-18.48S196.52-10.21,196.52,0Z"/><path class="c" d="M197.02,0c0-10.47-12.12-18.98-27.02-18.98S142.99-10.47,142.99,0s12.12,18.98,27.01,18.98S197.02,10.47,197.02,0ZM196.02,0c0,9.92-11.67,17.98-26.02,17.98S143.99,9.92,143.99,0s11.67-17.98,26.01-17.98S196.02-9.92,196.02,0Z"/><ellipse class="d" cx="170" cy="0" rx="17.68" ry="12.32"/><path class="c" d="M188.18,0c0-7.07-8.15-12.82-18.18-12.82S151.82-7.07,151.82,0s8.15,12.82,18.18,12.82S188.18,7.07,188.18,0ZM187.18,0c0,6.52-7.71,11.82-17.18,11.82S152.82,6.52,152.82,0s7.71-11.82,17.18-11.82S187.18-6.52,187.18,0Z"/><path class="d" d="M178.84,0c0,3.4-3.96,6.16-8.84,6.16S161.16,3.4,161.16,0s3.96-6.16,8.84-6.16S178.84-3.4,178.84,0Z"/><path class="c" d="M179.34,0c0-3.67-4.19-6.66-9.34-6.66S160.66-3.67,160.66,0s4.19,6.66,9.34,6.66S179.34,3.67,179.34,0ZM178.34,0c0,3.12-3.74,5.66-8.34,5.66S161.66,3.12,161.66,0s3.74-5.66,8.34-5.66S178.34-3.12,178.34,0Z"/></g><g><ellipse class="d" cx="-85" cy="50" rx="88.38" ry="61.62"/><path class="c" d="M3.88,50C3.88,15.75-35.99-12.12-85-12.12s-88.88,27.87-88.88,62.12,39.87,62.12,88.88,62.12S3.88,84.25,3.88,50Zm-1,0c0,33.7-39.42,61.12-87.88,61.12s-87.88-27.42-87.88-61.12S-133.46-11.12-85-11.12,2.88,16.3,2.88,50Z"/></g><g><ellipse class="d" cx="85" cy="50" rx="88.38" ry="61.62"/><path class="c" d="M173.88,50c0-34.25-39.87-62.12-88.88-62.12S-3.88,15.75-3.88,50s39.87,62.12,88.88,62.12,88.88-27.87,88.88-62.12Zm-1,0c0,33.7-39.42,61.12-87.88,61.12S-2.88,83.7-2.88,50,36.54-11.12,85-11.12s87.88,27.42,87.88,61.12Z"/><ellipse class="d" cx="85" cy="50" rx="79.55" ry="55.45"/><path class="c" d="M165.04,50c0-30.85-35.91-55.95-80.04-55.95S4.95,19.15,4.95,50s35.91,55.96,80.05,55.96,80.04-25.1,80.04-55.96Zm-1,0c0,30.3-35.46,54.96-79.04,54.96S5.95,80.3,5.95,50,41.41-4.95,85-4.95s79.04,24.65,79.04,54.95Z"/><ellipse class="d" cx="85" cy="50" rx="70.71" ry="49.29"/><path class="c" d="M156.21,50C156.21,22.54,124.26,.21,85,.21S13.79,22.54,13.79,50s31.94,49.79,71.21,49.79,71.21-22.34,71.21-49.79Zm-1,0c0,26.9-31.5,48.79-70.21,48.79S14.79,76.9,14.79,50,46.29,1.21,85,1.21s70.21,21.89,70.21,48.79Z"/><path class="d" d="M146.87,50c0,23.82-27.7,43.13-61.87,43.13S23.13,73.82,23.13,50,50.83,6.87,85,6.87s61.87,19.31,61.87,43.13Z"/><path class="c" d="M147.37,50c0-24.06-27.98-43.63-62.37-43.63S22.63,25.94,22.63,50s27.98,43.63,62.37,43.63,62.37-19.57,62.37-43.63Zm-1,0c0,23.51-27.53,42.63-61.37,42.63S23.63,73.51,23.63,50,51.16,7.37,85,7.37s61.37,19.12,61.37,42.63Z"/><ellipse class="d" cx="85" cy="50" rx="53.03" ry="36.97"/><path class="c" d="M138.53,50c0-20.66-24.01-37.47-53.53-37.47S31.47,29.34,31.47,50s24.01,37.47,53.53,37.47,53.53-16.81,53.53-37.47Zm-1,0c0,20.11-23.57,36.47-52.53,36.47s-52.53-16.36-52.53-36.47S56.03,13.53,85,13.53s52.53,16.36,52.53,36.47Z"/><path class="d" d="M129.19,50c0,17.01-19.79,30.81-44.19,30.81s-44.19-13.79-44.19-30.81,19.79-30.81,44.19-30.81,44.19,13.79,44.19,30.81Z"/><path class="c" d="M129.69,50c0-17.26-20.05-31.31-44.69-31.31s-44.69,14.04-44.69,31.31,20.05,31.31,44.69,31.31,44.69-14.04,44.69-31.31Zm-1,0c0,16.71-19.6,30.31-43.69,30.31s-43.69-13.6-43.69-30.31,19.6-30.31,43.69-30.31,43.69,13.6,43.69,30.31Z"/><ellipse class="d" cx="85" cy="50" rx="35.35" ry="24.65"/><path class="c" d="M120.85,50c0-13.87-16.08-25.15-35.85-25.15s-35.85,11.28-35.85,25.15,16.08,25.15,35.85,25.15,35.85-11.28,35.85-25.15Zm-1,0c0,13.31-15.63,24.15-34.85,24.15s-34.85-10.83-34.85-24.15,15.64-24.15,34.85-24.15,34.85,10.83,34.85,24.15Z"/><path class="d" d="M111.52,50c0,10.21-11.87,18.48-26.52,18.48s-26.51-8.28-26.51-18.48,11.87-18.48,26.51-18.48,26.52,8.28,26.52,18.48Z"/><path class="c" d="M112.02,50c0-10.47-12.12-18.98-27.02-18.98s-27.01,8.52-27.01,18.98,12.12,18.98,27.01,18.98,27.02-8.52,27.02-18.98Zm-1,0c0,9.92-11.67,17.98-26.02,17.98s-26.01-8.07-26.01-17.98,11.67-17.98,26.01-17.98,26.02,8.07,26.02,17.98Z"/><ellipse class="d" cx="85" cy="50" rx="17.68" ry="12.32"/><path class="c" d="M103.18,50c0-7.07-8.15-12.82-18.18-12.82s-18.18,5.75-18.18,12.82,8.15,12.82,18.18,12.82,18.18-5.75,18.18-12.82Zm-1,0c0,6.52-7.71,11.82-17.18,11.82s-17.18-5.3-17.18-11.82,7.71-11.82,17.18-11.82,17.18,5.3,17.18,11.82Z"/><path class="d" d="M93.84,50c0,3.4-3.96,6.16-8.84,6.16s-8.84-2.76-8.84-6.16,3.96-6.16,8.84-6.16,8.84,2.76,8.84,6.16Z"/><path class="c" d="M94.34,50c0-3.67-4.19-6.66-9.34-6.66s-9.34,2.99-9.34,6.66,4.19,6.66,9.34,6.66,9.34-2.99,9.34-6.66Zm-1,0c0,3.12-3.74,5.66-8.34,5.66s-8.34-2.54-8.34-5.66,3.74-5.66,8.34-5.66,8.34,2.54,8.34,5.66Z"/></g><g><ellipse class="d" cx="255" cy="50" rx="88.38" ry="61.62"/><path class="c" d="M343.88,50c0-34.25-39.87-62.12-88.88-62.12s-88.88,27.87-88.88,62.12,39.87,62.12,88.88,62.12,88.88-27.87,88.88-62.12Zm-1,0c0,33.7-39.42,61.12-87.88,61.12s-87.88-27.42-87.88-61.12S206.54-11.12,255-11.12s87.88,27.42,87.88,61.12Z"/></g><g><ellipse class="d" cx="0" cy="100" rx="88.38" ry="61.62"/><path class="c" d="M88.88,100C88.88,65.75,49.01,37.88,0,37.88s-88.88,27.87-88.88,62.12S-49.01,162.12,0,162.12s88.88-27.87,88.88-62.12Zm-1,0C87.88,133.7,48.46,161.12,0,161.12s-87.88-27.42-87.88-61.12S-48.46,38.88,0,38.88s87.88,27.42,87.88,61.12Z"/><ellipse class="d" cx="0" cy="100" rx="79.55" ry="55.45"/><path class="c" d="M80.04,100C80.04,69.15,44.14,44.05,0,44.05s-80.05,25.1-80.05,55.95S-44.14,155.96,0,155.96s80.04-25.1,80.04-55.96Zm-1,0C79.04,130.3,43.59,154.96,0,154.96s-79.05-24.65-79.05-54.96S-43.59,45.05,0,45.05s79.04,24.65,79.04,54.95Z"/><ellipse class="d" cx="0" cy="100" rx="70.71" ry="49.29"/><path class="c" d="M71.21,100C71.21,72.54,39.26,50.21,0,50.21s-71.21,22.34-71.21,49.79S-39.26,149.79,0,149.79s71.21-22.34,71.21-49.79Zm-1,0C70.21,126.9,38.71,148.79,0,148.79s-70.21-21.89-70.21-48.79S-38.71,51.21,0,51.21s70.21,21.89,70.21,48.79Z"/><path class="d" d="M61.87,100C61.87,123.82,34.17,143.13,0,143.13s-61.87-19.31-61.87-43.13S-34.17,56.87,0,56.87s61.87,19.31,61.87,43.13Z"/><path class="c" d="M62.37,100C62.37,75.94,34.39,56.37,0,56.37s-62.37,19.57-62.37,43.63S-34.39,143.63,0,143.63s62.37-19.57,62.37-43.63Zm-1,0C61.37,123.51,33.84,142.63,0,142.63s-61.37-19.12-61.37-42.63S-33.84,57.37,0,57.37s61.37,19.12,61.37,42.63Z"/><ellipse class="d" cx="0" cy="100" rx="53.03" ry="36.97"/><path class="c" d="M53.53,100C53.53,79.34,29.52,62.53,0,62.53s-53.53,16.81-53.53,37.47S-29.52,137.47,0,137.47s53.53-16.81,53.53-37.47Zm-1,0C52.53,120.11,28.96,136.47,0,136.47s-52.53-16.36-52.53-36.47S-28.97,63.53,0,63.53s52.53,16.36,52.53,36.47Z"/><path class="d" d="M44.19,100C44.19,117.01,24.41,130.81,0,130.81s-44.19-13.79-44.19-30.81S-24.41,69.19,0,69.19s44.19,13.79,44.19,30.81Z"/><path class="c" d="M44.69,100C44.69,82.74,24.64,68.69,0,68.69s-44.69,14.04-44.69,31.31S-24.64,131.31,0,131.31s44.69-14.04,44.69-31.31Zm-1,0C43.69,116.71,24.09,130.31,0,130.31s-43.69-13.6-43.69-30.31S-24.09,69.69,0,69.69s43.69,13.6,43.69,30.31Z"/><ellipse class="d" cx="0" cy="100" rx="35.35" ry="24.65"/><path class="c" d="M35.85,100C35.85,86.13,19.77,74.85,0,74.85s-35.85,11.28-35.85,25.15S-19.77,125.15,0,125.15s35.85-11.28,35.85-25.15Zm-1,0C34.85,113.31,19.22,124.15,0,124.15s-34.85-10.83-34.85-24.15S-19.22,75.85,0,75.85s34.85,10.83,34.85,24.15Z"/><path class="d" d="M26.52,100C26.52,110.21,14.64,118.48,0,118.48s-26.51-8.28-26.51-18.48S-14.64,81.52,0,81.52s26.52,8.28,26.52,18.48Z"/><path class="c" d="M27.02,100C27.02,89.53,14.9,81.02,0,81.02s-27.01,8.52-27.01,18.98S-14.9,118.98,0,118.98s27.02-8.52,27.02-18.98Zm-1,0C26.02,109.92,14.35,117.98,0,117.98s-26.01-8.07-26.01-17.98S-14.34,82.02,0,82.02s26.02,8.07,26.02,17.98Z"/><ellipse class="d" cx="0" cy="100" rx="17.68" ry="12.32"/><path class="c" d="M18.18,100C18.18,92.93,10.02,87.18,0,87.18s-18.18,5.75-18.18,12.82S-10.02,112.82,0,112.82s18.18-5.75,18.18-12.82Zm-1,0C17.18,106.52,9.47,111.82,0,111.82s-17.18-5.3-17.18-11.82S-9.47,88.18,0,88.18s17.18,5.3,17.18,11.82Z"/><path class="d" d="M8.84,100C8.84,103.4,4.88,106.16,0,106.16s-8.84-2.76-8.84-6.16S-4.88,93.84,0,93.84s8.84,2.76,8.84,6.16Z"/><path class="c" d="M9.34,100C9.34,96.33,5.15,93.34,0,93.34s-9.34,2.99-9.34,6.66S-5.15,106.66,0,106.66s9.34-2.99,9.34-6.66Zm-1,0C8.34,103.12,4.6,105.66,0,105.66s-8.34-2.54-8.34-5.66S-4.6,94.34,0,94.34s8.34,2.54,8.34,5.66Z"/></g><g><ellipse class="d" cx="170" cy="100" rx="88.38" ry="61.62"/><path class="c" d="M258.88,100c0-34.25-39.87-62.12-88.88-62.12s-88.88,27.87-88.88,62.12,39.87,62.12,88.88,62.12,88.88-27.87,88.88-62.12Zm-1,0c0,33.7-39.42,61.12-87.88,61.12s-87.88-27.42-87.88-61.12,39.42-61.12,87.88-61.12,87.88,27.42,87.88,61.12Z"/><ellipse class="d" cx="170" cy="100" rx="79.55" ry="55.45"/><path class="c" d="M250.04,100c0-30.85-35.91-55.95-80.04-55.95s-80.05,25.1-80.05,55.95,35.91,55.96,80.05,55.96,80.04-25.1,80.04-55.96Zm-1,0c0,30.3-35.46,54.96-79.04,54.96s-79.05-24.65-79.05-54.96,35.46-54.95,79.05-54.95,79.04,24.65,79.04,54.95Z"/><ellipse class="d" cx="170" cy="100" rx="70.71" ry="49.29"/><path class="c" d="M241.21,100c0-27.46-31.94-49.79-71.21-49.79s-71.21,22.34-71.21,49.79,31.94,49.79,71.21,49.79,71.21-22.34,71.21-49.79Zm-1,0c0,26.9-31.5,48.79-70.21,48.79s-70.21-21.89-70.21-48.79,31.49-48.79,70.21-48.79,70.21,21.89,70.21,48.79Z"/><path class="d" d="M231.87,100c0,23.82-27.7,43.13-61.87,43.13s-61.87-19.31-61.87-43.13,27.7-43.13,61.87-43.13,61.87,19.31,61.87,43.13Z"/><path class="c" d="M232.37,100c0-24.06-27.98-43.63-62.37-43.63s-62.37,19.57-62.37,43.63,27.98,43.63,62.37,43.63,62.37-19.57,62.37-43.63Zm-1,0c0,23.51-27.53,42.63-61.37,42.63s-61.37-19.12-61.37-42.63,27.53-42.63,61.37-42.63,61.37,19.12,61.37,42.63Z"/><ellipse class="d" cx="170" cy="100" rx="53.03" ry="36.97"/><path class="c" d="M223.53,100c0-20.66-24.01-37.47-53.53-37.47s-53.53,16.81-53.53,37.47,24.01,37.47,53.53,37.47,53.53-16.81,53.53-37.47Zm-1,0c0,20.11-23.57,36.47-52.53,36.47s-52.53-16.36-52.53-36.47,23.56-36.47,52.53-36.47,52.53,16.36,52.53,36.47Z"/><path class="d" d="M214.19,100c0,17.01-19.79,30.81-44.19,30.81s-44.19-13.79-44.19-30.81,19.79-30.81,44.19-30.81,44.19,13.79,44.19,30.81Z"/><path class="c" d="M214.69,100c0-17.26-20.05-31.31-44.69-31.31s-44.69,14.04-44.69,31.31,20.05,31.31,44.69,31.31,44.69-14.04,44.69-31.31Zm-1,0c0,16.71-19.6,30.31-43.69,30.31s-43.69-13.6-43.69-30.31,19.6-30.31,43.69-30.31,43.69,13.6,43.69,30.31Z"/><ellipse class="d" cx="170" cy="100" rx="35.35" ry="24.65"/><path class="c" d="M205.85,100c0-13.87-16.08-25.15-35.85-25.15s-35.85,11.28-35.85,25.15,16.08,25.15,35.85,25.15,35.85-11.28,35.85-25.15Zm-1,0c0,13.31-15.63,24.15-34.85,24.15s-34.85-10.83-34.85-24.15,15.64-24.15,34.85-24.15,34.85,10.83,34.85,24.15Z"/><path class="d" d="M196.52,100c0,10.21-11.87,18.48-26.52,18.48s-26.51-8.28-26.51-18.48,11.87-18.48,26.51-18.48,26.52,8.28,26.52,18.48Z"/><path class="c" d="M197.02,100c0-10.47-12.12-18.98-27.02-18.98s-27.01,8.52-27.01,18.98,12.12,18.98,27.01,18.98,27.02-8.52,27.02-18.98Zm-1,0c0,9.92-11.67,17.98-26.02,17.98s-26.01-8.07-26.01-17.98,11.67-17.98,26.01-17.98,26.02,8.07,26.02,17.98Z"/><ellipse class="d" cx="170" cy="100" rx="17.68" ry="12.32"/><path class="c" d="M188.18,100c0-7.07-8.15-12.82-18.18-12.82s-18.18,5.75-18.18,12.82,8.15,12.82,18.18,12.82,18.18-5.75,18.18-12.82Zm-1,0c0,6.52-7.71,11.82-17.18,11.82s-17.18-5.3-17.18-11.82,7.71-11.82,17.18-11.82,17.18,5.3,17.18,11.82Z"/><path class="d" d="M178.84,100c0,3.4-3.96,6.16-8.84,6.16s-8.84-2.76-8.84-6.16,3.96-6.16,8.84-6.16,8.84,2.76,8.84,6.16Z"/><path class="c" d="M179.34,100c0-3.67-4.19-6.66-9.34-6.66s-9.34,2.99-9.34,6.66,4.19,6.66,9.34,6.66,9.34-2.99,9.34-6.66Zm-1,0c0,3.12-3.74,5.66-8.34,5.66s-8.34-2.54-8.34-5.66,3.74-5.66,8.34-5.66,8.34,2.54,8.34,5.66Z"/></g><g><ellipse class="d" cx="-85" cy="150" rx="88.38" ry="61.62"/><path class="c" d="M3.88,150c0-34.25-39.87-62.12-88.88-62.12s-88.88,27.87-88.88,62.12,39.87,62.12,88.88,62.12S3.88,184.25,3.88,150Zm-1,0c0,33.7-39.42,61.12-87.88,61.12s-87.88-27.42-87.88-61.12,39.42-61.12,87.88-61.12S2.88,116.3,2.88,150Z"/></g><g><ellipse class="d" cx="85" cy="150" rx="88.38" ry="61.62"/><path class="c" d="M173.88,150c0-34.25-39.87-62.12-88.88-62.12S-3.88,115.75-3.88,150s39.87,62.12,88.88,62.12,88.88-27.87,88.88-62.12Zm-1,0c0,33.7-39.42,61.12-87.88,61.12S-2.88,183.7-2.88,150s39.42-61.12,87.88-61.12,87.88,27.42,87.88,61.12Z"/><ellipse class="d" cx="85" cy="150" rx="79.55" ry="55.45"/><path class="c" d="M165.04,150c0-30.85-35.91-55.95-80.04-55.95S4.95,119.15,4.95,150s35.91,55.96,80.05,55.96,80.04-25.1,80.04-55.96Zm-1,0c0,30.3-35.46,54.96-79.04,54.96S5.95,180.3,5.95,150s35.46-54.95,79.05-54.95,79.04,24.65,79.04,54.95Z"/></g><g><ellipse class="d" cx="255" cy="150" rx="88.38" ry="61.62"/><path class="c" d="M343.88,150c0-34.25-39.87-62.12-88.88-62.12s-88.88,27.87-88.88,62.12,39.87,62.12,88.88,62.12,88.88-27.87,88.88-62.12Zm-1,0c0,33.7-39.42,61.12-87.88,61.12s-87.88-27.42-87.88-61.12,39.42-61.12,87.88-61.12,87.88,27.42,87.88,61.12Z"/></g></g></pattern></defs><rect class="e" width="900" height="900"/></svg>