<?xml version="1.0" encoding="utf-8"?>
<!-- Generator: Adobe Illustrator 26.2.1, SVG Export Plug-In . SVG Version: 6.00 Build 0)  -->
<svg version="1.1" id="Layer_1" xmlns="http://www.w3.org/2000/svg" xmlns:xlink="http://www.w3.org/1999/xlink" x="0px" y="0px"
	 viewBox="0 0 500 500" style="enable-background:new 0 0 500 500;" xml:space="preserve">
<style type="text/css">
	.st0{fill:#FFFFFF;}
</style>
<rect x="-436" y="-261.3" class="st0" width="1372" height="1022.6"/>
<g>
	<path d="M361.8,359.6c-1.6,4.7-4.4,9.4-4.6,14.2c-0.6,17.2-0.1,34.4-0.3,51.6c-0.1,17.4-6.7,23.9-24.4,24.2
		c-7.4,0.1-14.7,0-22.1-0.1c-7.2-0.1-16-0.1-17-8.6c-0.8-6.4,1.4-17.3,5.6-19.4c16-8,14.1-21.6,12.6-34.3
		c-2.9-24.8,3.9-45.6,21.8-62.8c13-12.5,16.1-26.5,9.8-43.7c-4.1-11.1-5.9-23.1-8.5-34.7c-1.3-5.8-4.3-8.6-10.7-9.3
		c-12.9-1.4-25.7-3.8-38.5-5.8c-9.1-1.5-16.5-5.1-20.3-14.4c-2.8-6.8-12.8-9.7-17.2-4.1c-9.8,12.4-24.3,14.9-37.4,20.2
		c-10.9,4.4-17.9,10.7-22.4,21.6c-7.9,19.5-16.7,38.5-25.5,57.7c-2.8,6-2.3,11.2,3,14.9c19.4,13.3,24.3,32.2,21.5,54.2
		c-0.5,4.1,0.1,8.4-0.1,12.6c-0.6,10.5-0.3,19.5,11.4,25.4c7.6,3.9,11,13,8.1,22.1c-2.8,8.9-10.9,8.6-18.4,8.6
		c-7.4,0-14.7,0.1-22.1,0c-16-0.2-23.3-7.3-23.4-23.1c-0.1-17.5,0-35.1-0.1-52.6c0-1.7-0.6-3.3-1.4-7.4c-3.1,3.3-5.5,4.9-6.7,7.2
		c-3.9,7.5-7.1,15.3-10.9,22.7c-5.3,10.2-8.8,19.1-0.3,30.7c8.2,11.2,0.6,22-13.7,22.4c-9.8,0.3-19.7,0.3-29.5,0
		c-15.5-0.5-21.8-10.1-16.7-24.5c20.8-59.2,41.6-118.4,62.4-177.6c1-3,1.9-6.1,3.6-8.7c4.1-6.6,1.5-10.3-3.3-16
		c-7.2-8.6-13.2-19.2-16.5-29.9c-4.2-13.2,4.8-26.9,17.8-32c12.5-4.9,27.2-0.7,34.3,10.8c4.6,7.4,8.2,15.5,11.1,23.7
		c1.9,5.4,4.1,7.9,9.8,5.8c10.9-3.9,21.7-8,32.7-11.6c7.9-2.6,10.7-8.1,8.5-15.4c-4.5-15.4-9.1-30.8-14.6-45.9
		c-8.1-22.1-7.7-42.8,8.5-61.1c16.9-18.9,44.7-22.5,66.3-9.5c21.9,13.2,30.8,39.8,21.6,65.2c-3.9,10.9-9.3,21.4-12.2,32.5
		c-2.6,10-3.1,20.6-3.6,31c-0.1,2.5,3.1,6.8,5.4,7.3c8.8,2.1,17.9,3.6,26.9,4.3c7.1,0.5,10.3-2.6,7.2-10.6
		c-6.2-15.6,0.6-38.7,13.7-49.2c10.4-8.3,24.7-8.9,35.2-1.4c10.8,7.7,14.9,20.9,10.6,33.6c-9.2,26.7-9.2,31.3-4,58.7
		c3.3,17.2,4.7,34.8,8.9,51.8c7.3,29.5,15.8,58.8,24.4,88c5.5,18.8,12.2,37.3,18.2,56c4.8,15.2-1.4,23.9-17.4,24.4
		c-9.1,0.3-18.3,0.9-27.3-0.2c-5.7-0.7-13.9-2.9-15.9-6.9c-2.4-4.9-1.5-14.2,1.9-18.4c6.3-7.9,6.1-14.6,2.8-23.1
		c-5.2-13.6-9.6-27.4-14.3-41.2C364.8,359.7,363.3,359.6,361.8,359.6z M176.9,252.1c-5.8-2.7-9.5-4.4-13.1-6.2
		c3.1-3.1,5.7-7.4,9.5-9.1c17.6-7.8,35.6-14.8,53.3-22.3c5.4-2.3,12.4-4.6,9.6-12.4c-2.9-8.2-9.3-5-15-3
		c-17.8,6.5-35.6,12.8-53.4,19.3c-14.5,5.4-25.2,14.5-30.2,29.9c-7.8,23.6-16.2,47.1-24.5,70.5c-12.5,35.3-25.3,70.6-37.8,105.9
		c-3.9,10.9-2.2,13.4,9,13.7c7.4,0.2,14.7,0.3,22.1-0.2c2.7-0.2,7-1.7,7.6-3.6c0.7-2.1-1.2-6.9-3.2-7.9c-10.9-5-7.5-11.9-3.9-19.8
		c22.1-48.1,43.9-96.3,65.8-144.4C174.3,259,175.7,255.2,176.9,252.1z M322.4,438.5C322.4,438.6,322.4,438.6,322.4,438.5
		c1.8,0.1,3.5,0.1,5.3,0.1c17.1,0,18.7-1.5,18.8-18.5c0.1-16.1-0.6-32.3,0.4-48.4c0.4-6.4,3.3-13.4,7.1-18.6
		c7.9-10.7,17.1-20.4,25.9-30.3c5.7-6.5,7.7-13.5,6.1-22.3c-4.4-24.5-8.3-49-12.2-73.6c-3.5-21.6-11.2-26.4-32.5-22.1
		c-10.7,2.2-22,2-33,2c-6.6,0-13.2-3.1-19.7-2.7c-4.2,0.2-8.2,4.2-12.3,6.4c3.2,3,5.9,8,9.6,8.8c20.1,4.2,40.3,9.9,60.9,1.6
		c2.2-0.9,5.7,1.6,8.6,2.5c-1.5,2.3-2.6,5.9-4.7,6.8c-7.3,2.9-6.6,8.2-5.3,13.9c4.2,17.7,9,35.3,12.3,53.2c1,5.4-0.6,12.5-3.6,17.1
		c-7.4,11.4-16.8,21.5-24.4,32.9c-3.4,5.2-5.8,12-6.2,18.2c-0.9,15-0.5,30.1-0.3,45.2c0.1,6.3-1.4,10.9-8.2,12.6
		c-2.3,0.6-4.8,1.8-6.4,3.5c-2,2.2-3,5.2-4.5,7.8c2.6,1.2,5,3,7.7,3.5C315.3,439,318.9,438.5,322.4,438.5z M256.1,165.4
		C256.1,165.4,256.1,165.3,256.1,165.4c5.3,0,10.7,0.8,15.7-0.3c3.4-0.8,7.7-3.8,9-6.9c5.7-13.6,10.5-27.5,15.5-41.3
		c6-17,0.4-35.5-14.2-47.1C268.3,58.7,249,58.1,234,68c-15.9,10.6-23,27.8-17.6,45.6c3.6,12.1,8.7,23.6,12.9,35.5
		c6.1,17.5,3.4,16.2,23.7,16.2C254,165.4,255.1,165.4,256.1,165.4z M393.3,327.7c-17.8,11.6-20,17.3-14.4,33.9
		c5.1,15.3,9.9,30.6,15.3,45.7c2.8,7.8,5,14.5-4.7,19.3c-2.1,1-4,5.5-3.5,7.9c0.4,1.8,4.6,3.7,7.3,3.9c7.3,0.5,14.7,0.3,22,0.1
		c11.4-0.3,13.1-2.6,9.7-13.4c-7.2-22.7-14.7-45.3-22.1-67.9C399.8,347.8,396.7,338.2,393.3,327.7z M153.5,396.8
		C153.5,396.8,153.4,396.8,153.5,396.8c-0.1,3.9-0.1,7.7-0.1,11.6c0.1,33.2-2,30.1,30.1,30c4,0,7.9-2.4,11.9-3.7
		c-2.9-3.4-5.2-8.5-8.8-9.9c-8-3.1-10.1-8-9.8-16c0.5-14-0.3-28,0.3-42c0.4-10-3.1-17.1-10.2-24c-14.2-13.7-13.5-9.7-20.4,5.2
		c-1.1,2.4,0.9,6.3,1.8,9.4c1.6,5.1,4.4,10.1,5,15.3C154.1,380.6,153.5,388.8,153.5,396.8z M335.4,172.1c2.2,9.7,5,16.5,13.7,19.1
		c8.6,2.6,16.1,0.5,21-7.3c3.5-5.6,6.6-11.6,8.8-17.8c2.9-8.2,0.1-15.1-7-20.2c-7.2-5.1-15.5-5.5-21,1
		C344.6,154.2,340.5,163.6,335.4,172.1z M166.3,202.9c-6.3-11.2-10-20.9-16.3-28.3c-5.5-6.5-14.2-7.3-22-1.7
		c-7.2,5.1-9.5,12.3-6.8,20.3c2.2,6.5,4.9,13.6,9.5,18.5c3.4,3.6,11,6.9,15,5.6C152.7,214.7,158.6,208.5,166.3,202.9z M258.7,200
		c5.1-1.7,11.3-2.1,15.1-5.4c2.9-2.5,3.3-8.4,3.7-12.9c0.1-1.6-3.2-5-5-5.1c-10.4-0.5-20.9-0.6-31.3-0.1c-5.5,0.2-8,4.8-4.5,8.7
		C242.4,191.5,246.8,201.2,258.7,200z"/>
	<path d="M231.5,113c9.9-11.9,18.6-22.8,27.8-33.3c1.1-1.3,5.7-1.4,6.9-0.3c1.3,1.2,1.7,5.3,0.7,7c-3,4.9-6.9,9.3-12.6,16.6
		c10.4,0.9,17.6,1.5,28.1,2.4c-10.5,12.9-19.5,24.1-28.9,35c-0.9,1-5,0.8-6.3-0.4c-1.3-1.2-1-4.2-1.3-6.4c0-0.3,0.4-0.6,0.5-0.9
		c2.8-5.3,5.6-10.5,8.5-15.8c-6.1-0.7-12.2-1.5-18.3-2.2C235.7,114.7,234.8,114.1,231.5,113z"/>
</g>
</svg>
