<?xml version="1.0" encoding="utf-8"?>
<!-- Generator: Adobe Illustrator 26.2.1, SVG Export Plug-In . SVG Version: 6.00 Build 0)  -->
<svg version="1.1" id="Layer_1" xmlns="http://www.w3.org/2000/svg" xmlns:xlink="http://www.w3.org/1999/xlink" x="0px" y="0px"
	 viewBox="0 0 500 500" style="enable-background:new 0 0 500 500;" xml:space="preserve">
<style type="text/css">
	.st0{fill:#FFFFFF;}
</style>
<rect x="-63" y="-43" class="st0" width="626" height="586"/>
<g>
	<path d="M382.6,83.6c-0.8-1.3-2.4-2.7-2.2-3.9c3.5-22.6-10.7-21.9-26.6-21.8c-57.7,0.5-115.5,0.6-173.2,0
		c-13.2-0.1-17.3,4.1-16.8,17c0.8,25.7-0.1,51.4,0.3,77.2c0.2,10.5-3.6,14.5-13.9,12.7c-21-3.7-42.1-6.9-63.1-11
		c-14.1-2.7-18.2,2.2-18.1,16.4c0.5,84.5,0.4,169,0.1,253.5c-0.1,12.2,2.7,17.7,16.5,17.7c84.5-0.5,168.9,0,253.4-0.1
		c40.1-0.1,40.2-0.4,40.7-39.7c0.7-55.4,1.4-110.8,2.1-166.2c0.1-9.4,0-18.8,0-29.9c3.1,2.3,5.3,3.2,5.3,4.1
		c-0.1,24.5-0.7,49.1-0.6,73.6c0.1,17.8,1.3,35.6,1.5,53.4c0.3,30.9-0.3,61.8,0.3,92.6c0.3,15.1-6.5,20.8-20.7,20.8
		c-94.8-0.2-189.6-0.2-284.4-0.3c-22,0-22.3-0.5-22.4-21.7c0-88.7,0.2-177.4-0.3-266.1c-0.1-12.1,3.8-20.4,12.5-28.6
		c25.6-24.1,49.9-49.6,75.6-73.5c5.7-5.3,15.3-9.2,23.1-9.2c65.6-0.7,131.2-0.6,196.8-0.2c6.2,0,16.7,1.8,17.7,5.1
		c2.5,8.4,0.8,18.1,0.8,27.3C385.7,83,384.1,83.3,382.6,83.6z M154.8,71.1c-25,24.7-49.5,48.8-74.5,73.6c24.5,2.9,49,5.8,74.5,8.9
		C154.8,124,154.8,97.2,154.8,71.1z"/>
	<path d="M214.9,375.3c2.7-28.5,5.6-52.1,20.6-72.4c32.4-43.8,64.9-87.5,97.1-131.4c18.2-24.9,35.7-50.4,53.9-75.3
		c14.1-19.2,31-24.7,43.7-15.2c12.7,9.5,12.1,27.6-1.5,46.5c-31.6,43.7-63.1,87.6-94.9,131.2c-18.8,25.8-37.9,51.3-57.1,76.8
		C262,355.2,240.3,364,214.9,375.3z M241.5,310.1c4.3,3.7,6.9,6.2,9.7,8.5c17.2,13.8,17.1,13.7,30.5-4.4c19-25.6,38.3-51,57.1-76.8
		c28.7-39.4,57.1-78.9,85.4-118.6c6.9-9.8,13-21.8,0.4-30.5c-12.2-8.5-21.4,1-29.2,10.1c-1.4,1.6-2.5,3.4-3.7,5.1
		c-17.9,25.1-35.5,50.5-53.8,75.4c-28.8,39.3-57.9,78.2-86.9,117.4C247.9,300.4,245.1,304.8,241.5,310.1z M225.3,356.6
		c1.4,1.1,2.8,2.2,4.2,3.4c10.4-6.5,20.9-13.1,34-21.3c-10.9-7.8-18.5-13.2-28.9-20.7C230.9,333.1,228.1,344.8,225.3,356.6z"/>
	<path d="M294.8,194.3c-53.2,0-106.4,0-160.3,0C141.9,186.2,277.4,184,294.8,194.3z"/>
	<path d="M271.3,242c-45.4,0-90.8,0-136.2,0c0-1.8,0-3.5,0-5.3c45.4-2.5,90.8-1.8,136.2-0.4C271.3,238.2,271.3,240.1,271.3,242z"/>
	<path d="M134.6,333.1c26.4,0,52.8,0,79.2,0c0,1.4,0,2.7,0,4.1c-26.4,0-52.8,0-79.2,0C134.6,335.8,134.6,334.4,134.6,333.1z"/>
	<path d="M135,285.3c33.6,0,67.2,0,100.8,0c0,1.4,0,2.7,0,4.1c-33.6,0-67.3,0-100.9,0C135,288.1,135,286.7,135,285.3z"/>
</g>
</svg>
