<?xml version="1.0" encoding="utf-8"?>
<!-- Generator: Adobe Illustrator 26.2.1, SVG Export Plug-In . SVG Version: 6.00 Build 0)  -->
<svg version="1.1" id="Layer_1" xmlns="http://www.w3.org/2000/svg" xmlns:xlink="http://www.w3.org/1999/xlink" x="0px" y="0px"
	 viewBox="0 0 500 500" style="enable-background:new 0 0 500 500;" xml:space="preserve">
<style type="text/css">
	.st0{fill:#FFFFFF;}
</style>
<rect x="-235.4" y="-179.3" class="st0" width="970.8" height="858.6"/>
<g>
	<path class="st0" d="M430.1,225c-25,0.2-49.9-0.3-74.9,0.3c-4.6,0.1-12.9,4.3-13,6.8c-0.4,9.1,8,7.1,13.7,7.2
		c20.5,0.2,40.9,0.4,61.4,0c8.4-0.2,11.9,2.8,11.8,11.3c-0.2,21.7-0.5,43.4,0.3,65c0.5,12.7-4.5,16-16.5,15.9
		c-53.2-0.5-106.4-0.2-159.6-0.2c-49.5,0-99-0.3-148.5,0.2c-11.9,0.1-15.9-4.1-15.5-15.7c0.7-17.2,0.2-34.4,0.2-51.5
		c0-22,0-21.8,22-25.3c2.6-0.4,4.9-3,7.2-5.2c-0.2-0.9-0.2-1.8,0.1-2.7c-2.3-2.3-4.5-5.1-7.1-5.5c-7.6-1.1-15.5-0.6-23.3-0.7
		c-9.6-0.1-13.8,4.2-13.8,14.3c0.3,66.3,0,132.6,0.5,198.8c0,3.3,2.7,6.5,5.1,9.8c0.5,0.6,1.2,1,2,0.9c0.1,0,0.2,0,0.3,0h0
		c0.8,0,1.6-0.4,2.1-1.1c2.2-3.3,4.6-6.6,4.7-10c0.7-24.9,0.3-49.9,0.3-74.9c0-16.2,0.5-16.8,16.4-16.8c50.7-0.1,101.5,0,152.2-0.1
		c51.6,0,103.1,0,154.7,0c15.9,0,16.3,0.3,16.4,16.6c0.1,25.4-0.2,50.7,0.4,76.1c0.1,2.3,1.5,4.5,3.1,6.8c0.8,1.1,2.2,1.7,3.5,1.7
		c0,0,0,0,0,0c0.2,0,0.4,0,0.6,0c1.4,0.1,2.8-0.4,3.6-1.5c1.7-2.2,3.1-4.5,3.2-6.7c0.5-66.7,0.3-133.4,0.5-200.1
		C444.1,229.2,440,224.9,430.1,225z"/>
	<path d="M368.9,283.5c-0.2-0.4-0.6-0.7-1-1c-1.5-0.9-3.5-1.9-6-2.7c0,0-1.7-0.7-3.6-0.9c-11.4-1-22.9-0.5-34.3-0.5
		c-8.1,0-11-3.1-8.4-11.5c7.8-24.9,14.7-50.1,22.7-74.9c5.1-15.6,1.9-28.6-11.3-42.6c-7-7.4-12.3-16.3-16-25.8
		c-8-20.5-21.8-33.9-41-39.3c-35.8-10-71.8-19.7-107.8-28.8c-6.8-1.7-18-9.8-20.9,1.9c-2.7,10.8,10.6,10.2,17.6,12.2
		c33.8,9.6,67.8,18.8,101.8,27.5c16,4.1,27.3,13.1,35,28c4.3,8.3,9,16.5,14.5,24.1c18,25.2,19.3,39.2,2.8,63
		c-9.7-4.8-8.4-5.4-21.7-30.2c-10.8-20.3-28-33.8-51.5-40.2c-15.4-4.2-24.9,3.9-36.4,9.2c-1.9,0.9-3.6,2.1-5.5,2.8
		c-10.2,3.9-14.6,12.2-10.8,21.4c3.7,8.8,10,17.4,17.4,23.5c6.6,5.5,16.9,6.5,24.1,11.6c7.6,5.3,13.9,12.7,19.7,20.1
		c1.9,2.4,1.9,9.1,0,10.9c-2.1,2-7.7,1.7-11.2,0.5c-26.4-8.7-53.2-16.6-78.8-27.4c-11.9-5-23.3-14.2-31.4-24.2
		c-12.5-15.5-23.3-32.7-32.5-50.4c-7-13.3-18.4-16.5-30.8-19c-1.5-0.3-3.2,0.5-5,1.5c-1.4,0.8-2.3,2.1-2.6,3.7c0,0,0,0,0,0
		c-0.2,1-0.1,2,0.3,2.9c1,2.5,2,4.8,3.3,5c17,2.2,23.7,15.4,30.1,27.9c21.1,41.2,51.6,70.2,98.3,79.2c13.6,2.6,21,9.5,23.6,23.7
		c2.4,12.9,2.9,13.9-10.7,14c-14.7,0.1-29.5-0.4-44.2,0.4c-1.3,0.1-2.6,0.9-3.8,1.9c-1.5,1.3-2.2,3.2-2.1,5.1l0,0.1
		c0.1,2.1,1.1,4,2.8,5.1c0.9,0.6,1.9,1.1,2.9,1.5c3.3,1.2,7.3,0.5,11,0.5c50.7,0,101.5,0,152.2,0c12.7,0,25.4,0.8,38-0.3
		c3.6-0.3,7-2.7,10.4-5c0.9-0.6,1.3-1.6,1.3-2.6l0,0C369.4,284.6,369.1,284,368.9,283.5z M238.1,194.3c-11.7-1.4-22.8-9-33.7-14.9
		c-1.7-0.9-2.1-9.3-0.5-10.5c7.6-5.3,15.7-11.6,24.4-13.3c17-3.2,40.3,14.1,46.1,31.9C261.7,190.3,249.5,195.7,238.1,194.3z
		 M294.9,272.9c-8.1,8.2-53.8,8.3-61.5-0.3c-3.3-3.7-5.5-8.4-8-12.8c1.2-1.8,1.4-2,2.6-3.8c3.5,0.6,6.9,1.3,10.4,1.9
		c20,3.5,31.3-8.6,25.8-27.9c-1.3-4.7-3.2-9.3-5.6-13.5c-5.2-9.2-1-12,7.6-11.6c16.7,0.8,28.5,9.4,35.4,24.3
		C308.1,243.4,304.9,262.8,294.9,272.9z"/>
	<path d="M430.1,225c-25,0.2-49.9-0.3-74.9,0.3c-4.6,0.1-12.9,4.3-13,6.8c-0.4,9.1,8,7.1,13.7,7.2c20.5,0.2,40.9,0.4,61.4,0
		c8.4-0.2,11.9,2.8,11.8,11.3c-0.2,21.7-0.5,43.4,0.3,65c0.5,12.7-4.5,16-16.5,15.9c-53.2-0.5-106.4-0.2-159.6-0.2
		c-49.5,0-99-0.3-148.5,0.2c-11.9,0.1-15.9-4.1-15.5-15.7c0.7-17.2,0.2-34.4,0.2-51.5c0-22,0-21.8,22-25.3c2.6-0.4,4.9-3,7.2-5.2
		c-0.2-0.9-0.2-1.8,0.1-2.7c-2.3-2.3-4.5-5.1-7.1-5.5c-7.6-1.1-15.5-0.6-23.3-0.7c-9.6-0.1-13.8,4.2-13.8,14.3
		c0.3,66.3,0,132.6,0.5,198.8c0,3.3,2.7,6.5,5.1,9.8c0.5,0.6,1.2,1,2,0.9c0.1,0,0.2,0,0.3,0h0c0.8,0,1.6-0.4,2.1-1.1
		c2.2-3.3,4.6-6.6,4.7-10c0.7-24.9,0.3-49.9,0.3-74.9c0-16.2,0.5-16.8,16.4-16.8c50.7-0.1,101.5,0,152.2,0c51.6,0,103.1,0,154.7,0
		c15.9,0,16.3,0.3,16.4,16.6c0.1,25.4-0.2,50.7,0.4,76.1c0.1,2.3,1.5,4.5,3.1,6.8c0.8,1.1,2.2,1.7,3.5,1.7c0,0,0,0,0,0
		c0.2,0,0.4,0,0.6,0c1.4,0.1,2.8-0.4,3.6-1.5c1.7-2.2,3.1-4.5,3.2-6.7c0.5-66.7,0.3-133.4,0.5-200.1
		C444.1,229.2,440,224.9,430.1,225z"/>
</g>
</svg>
