<?xml version="1.0" encoding="utf-8"?>
<!-- Generator: Adobe Illustrator 26.2.1, SVG Export Plug-In . SVG Version: 6.00 Build 0)  -->
<svg version="1.1" id="Layer_1" xmlns="http://www.w3.org/2000/svg" xmlns:xlink="http://www.w3.org/1999/xlink" x="0px" y="0px"
	 viewBox="0 0 500 500" style="enable-background:new 0 0 500 500;" xml:space="preserve">
<style type="text/css">
	.st0{fill:#FFFFFF;}
</style>
<rect x="-35.8" y="-32.1" class="st0" width="571.7" height="564.1"/>
<g>
	<path d="M147,195.5c-21,7.7-33.3,53.6-17.2,69.3C125.2,237.6,130,214.9,147,195.5z M221.6,129.8c10.9,3,24.3,9.8,33.5,18.5
		C244.8,138.4,234.7,130.3,221.6,129.8z M231.5,239.2c-4.9-4.3-10.9-7.4-16.4-11.1c-4.8-3.2-10.8-5.7-14.1-10.1
		c-3.1-4.1-5.7-11.2-4.2-15.5c1.4-4.2,7.9-8,12.9-9.1c5.4-1.3,11.5,1.1,17.3,1c2.9-0.1,5.7-2.4,8.5-3.7c-1.6-2.3-2.8-5.3-5-6.8
		c-6.2-4.3-14.4-6.2-14.5-16.2c0-1.6-3.5-3.2-5.4-4.8c-1.6,1.9-3.3,3.8-4.7,5.8c-3.6,5.1-6,11.9-10.7,15.1
		c-19.9,13.2-20.9,34.7-1.1,48.5c7.3,5.1,15.6,8.9,22.5,14.5c4.5,3.6,7.3,9.2,11.9,15.4c-4.7,5-7.6,11-11.7,11.8
		c-7.6,1.6-15.8,0-23.8,0.4c-4.2,0.2-8.4,1.6-12.6,2.5c3.1,3.2,5.7,7.9,9.5,9.3c7.1,2.5,13.2,4.4,13.2,13.6c0,1.9,3.1,3.8,4.7,5.7
		c1.9-2.1,5.3-4.1,5.4-6.2c0.3-8,4.7-11,11.5-14C244,276.7,247.4,253.3,231.5,239.2z M147,195.5c-21,7.7-33.3,53.6-17.2,69.3
		C125.2,237.6,130,214.9,147,195.5z M231.5,239.2c-4.9-4.3-10.9-7.4-16.4-11.1c-4.8-3.2-10.8-5.7-14.1-10.1
		c-3.1-4.1-5.7-11.2-4.2-15.5c1.4-4.2,7.9-8,12.9-9.1c5.4-1.3,11.5,1.1,17.3,1c2.9-0.1,5.7-2.4,8.5-3.7c-1.6-2.3-2.8-5.3-5-6.8
		c-6.2-4.3-14.4-6.2-14.5-16.2c0-1.6-3.5-3.2-5.4-4.8c-1.6,1.9-3.3,3.8-4.7,5.8c-3.6,5.1-6,11.9-10.7,15.1
		c-19.9,13.2-20.9,34.7-1.1,48.5c7.3,5.1,15.6,8.9,22.5,14.5c4.5,3.6,7.3,9.2,11.9,15.4c-4.7,5-7.6,11-11.7,11.8
		c-7.6,1.6-15.8,0-23.8,0.4c-4.2,0.2-8.4,1.6-12.6,2.5c3.1,3.2,5.7,7.9,9.5,9.3c7.1,2.5,13.2,4.4,13.2,13.6c0,1.9,3.1,3.8,4.7,5.7
		c1.9-2.1,5.3-4.1,5.4-6.2c0.3-8,4.7-11,11.5-14C244,276.7,247.4,253.3,231.5,239.2z M231.5,239.2c-4.9-4.3-10.9-7.4-16.4-11.1
		c-4.8-3.2-10.8-5.7-14.1-10.1c-3.1-4.1-5.7-11.2-4.2-15.5c1.4-4.2,7.9-8,12.9-9.1c5.4-1.3,11.5,1.1,17.3,1c2.9-0.1,5.7-2.4,8.5-3.7
		c-1.6-2.3-2.8-5.3-5-6.8c-6.2-4.3-14.4-6.2-14.5-16.2c0-1.6-3.5-3.2-5.4-4.8c-1.6,1.9-3.3,3.8-4.7,5.8c-3.6,5.1-6,11.9-10.7,15.1
		c-19.9,13.2-20.9,34.7-1.1,48.5c7.3,5.1,15.6,8.9,22.5,14.5c4.5,3.6,7.3,9.2,11.9,15.4c-4.7,5-7.6,11-11.7,11.8
		c-7.6,1.6-15.8,0-23.8,0.4c-4.2,0.2-8.4,1.6-12.6,2.5c3.1,3.2,5.7,7.9,9.5,9.3c7.1,2.5,13.2,4.4,13.2,13.6c0,1.9,3.1,3.8,4.7,5.7
		c1.9-2.1,5.3-4.1,5.4-6.2c0.3-8,4.7-11,11.5-14C244,276.7,247.4,253.3,231.5,239.2z M147,195.5c-21,7.7-33.3,53.6-17.2,69.3
		C125.2,237.6,130,214.9,147,195.5z M147,195.5c-21,7.7-33.3,53.6-17.2,69.3C125.2,237.6,130,214.9,147,195.5z M231.5,239.2
		c-4.9-4.3-10.9-7.4-16.4-11.1c-4.8-3.2-10.8-5.7-14.1-10.1c-3.1-4.1-5.7-11.2-4.2-15.5c1.4-4.2,7.9-8,12.9-9.1
		c5.4-1.3,11.5,1.1,17.3,1c2.9-0.1,5.7-2.4,8.5-3.7c-1.6-2.3-2.8-5.3-5-6.8c-6.2-4.3-14.4-6.2-14.5-16.2c0-1.6-3.5-3.2-5.4-4.8
		c-1.6,1.9-3.3,3.8-4.7,5.8c-3.6,5.1-6,11.9-10.7,15.1c-19.9,13.2-20.9,34.7-1.1,48.5c7.3,5.1,15.6,8.9,22.5,14.5
		c4.5,3.6,7.3,9.2,11.9,15.4c-4.7,5-7.6,11-11.7,11.8c-7.6,1.6-15.8,0-23.8,0.4c-4.2,0.2-8.4,1.6-12.6,2.5c3.1,3.2,5.7,7.9,9.5,9.3
		c7.1,2.5,13.2,4.4,13.2,13.6c0,1.9,3.1,3.8,4.7,5.7c1.9-2.1,5.3-4.1,5.4-6.2c0.3-8,4.7-11,11.5-14
		C244,276.7,247.4,253.3,231.5,239.2z M231.5,239.2c-4.9-4.3-10.9-7.4-16.4-11.1c-4.8-3.2-10.8-5.7-14.1-10.1
		c-3.1-4.1-5.7-11.2-4.2-15.5c1.4-4.2,7.9-8,12.9-9.1c5.4-1.3,11.5,1.1,17.3,1c2.9-0.1,5.7-2.4,8.5-3.7c-1.6-2.3-2.8-5.3-5-6.8
		c-6.2-4.3-14.4-6.2-14.5-16.2c0-1.6-3.5-3.2-5.4-4.8c-1.6,1.9-3.3,3.8-4.7,5.8c-3.6,5.1-6,11.9-10.7,15.1
		c-19.9,13.2-20.9,34.7-1.1,48.5c7.3,5.1,15.6,8.9,22.5,14.5c4.5,3.6,7.3,9.2,11.9,15.4c-4.7,5-7.6,11-11.7,11.8
		c-7.6,1.6-15.8,0-23.8,0.4c-4.2,0.2-8.4,1.6-12.6,2.5c3.1,3.2,5.7,7.9,9.5,9.3c7.1,2.5,13.2,4.4,13.2,13.6c0,1.9,3.1,3.8,4.7,5.7
		c1.9-2.1,5.3-4.1,5.4-6.2c0.3-8,4.7-11,11.5-14C244,276.7,247.4,253.3,231.5,239.2z M147,195.5c-21,7.7-33.3,53.6-17.2,69.3
		C125.2,237.6,130,214.9,147,195.5z M147,195.5c-21,7.7-33.3,53.6-17.2,69.3C125.2,237.6,130,214.9,147,195.5z M231.5,239.2
		c-4.9-4.3-10.9-7.4-16.4-11.1c-4.8-3.2-10.8-5.7-14.1-10.1c-3.1-4.1-5.7-11.2-4.2-15.5c1.4-4.2,7.9-8,12.9-9.1
		c5.4-1.3,11.5,1.1,17.3,1c2.9-0.1,5.7-2.4,8.5-3.7c-1.6-2.3-2.8-5.3-5-6.8c-6.2-4.3-14.4-6.2-14.5-16.2c0-1.6-3.5-3.2-5.4-4.8
		c-1.6,1.9-3.3,3.8-4.7,5.8c-3.6,5.1-6,11.9-10.7,15.1c-19.9,13.2-20.9,34.7-1.1,48.5c7.3,5.1,15.6,8.9,22.5,14.5
		c4.5,3.6,7.3,9.2,11.9,15.4c-4.7,5-7.6,11-11.7,11.8c-7.6,1.6-15.8,0-23.8,0.4c-4.2,0.2-8.4,1.6-12.6,2.5c3.1,3.2,5.7,7.9,9.5,9.3
		c7.1,2.5,13.2,4.4,13.2,13.6c0,1.9,3.1,3.8,4.7,5.7c1.9-2.1,5.3-4.1,5.4-6.2c0.3-8,4.7-11,11.5-14
		C244,276.7,247.4,253.3,231.5,239.2z M231.5,239.2c-4.9-4.3-10.9-7.4-16.4-11.1c-4.8-3.2-10.8-5.7-14.1-10.1
		c-3.1-4.1-5.7-11.2-4.2-15.5c1.4-4.2,7.9-8,12.9-9.1c5.4-1.3,11.5,1.1,17.3,1c2.9-0.1,5.7-2.4,8.5-3.7c-1.6-2.3-2.8-5.3-5-6.8
		c-6.2-4.3-14.4-6.2-14.5-16.2c0-1.6-3.5-3.2-5.4-4.8c-1.6,1.9-3.3,3.8-4.7,5.8c-3.6,5.1-6,11.9-10.7,15.1
		c-19.9,13.2-20.9,34.7-1.1,48.5c7.3,5.1,15.6,8.9,22.5,14.5c4.5,3.6,7.3,9.2,11.9,15.4c-4.7,5-7.6,11-11.7,11.8
		c-7.6,1.6-15.8,0-23.8,0.4c-4.2,0.2-8.4,1.6-12.6,2.5c3.1,3.2,5.7,7.9,9.5,9.3c7.1,2.5,13.2,4.4,13.2,13.6c0,1.9,3.1,3.8,4.7,5.7
		c1.9-2.1,5.3-4.1,5.4-6.2c0.3-8,4.7-11,11.5-14C244,276.7,247.4,253.3,231.5,239.2z M147,195.5c-21,7.7-33.3,53.6-17.2,69.3
		C125.2,237.6,130,214.9,147,195.5z M147,195.5c-21,7.7-33.3,53.6-17.2,69.3C125.2,237.6,130,214.9,147,195.5z M231.5,239.2
		c-4.9-4.3-10.9-7.4-16.4-11.1c-4.8-3.2-10.8-5.7-14.1-10.1c-3.1-4.1-5.7-11.2-4.2-15.5c1.4-4.2,7.9-8,12.9-9.1
		c5.4-1.3,11.5,1.1,17.3,1c2.9-0.1,5.7-2.4,8.5-3.7c-1.6-2.3-2.8-5.3-5-6.8c-6.2-4.3-14.4-6.2-14.5-16.2c0-1.6-3.5-3.2-5.4-4.8
		c-1.6,1.9-3.3,3.8-4.7,5.8c-3.6,5.1-6,11.9-10.7,15.1c-19.9,13.2-20.9,34.7-1.1,48.5c7.3,5.1,15.6,8.9,22.5,14.5
		c4.5,3.6,7.3,9.2,11.9,15.4c-4.7,5-7.6,11-11.7,11.8c-7.6,1.6-15.8,0-23.8,0.4c-4.2,0.2-8.4,1.6-12.6,2.5c3.1,3.2,5.7,7.9,9.5,9.3
		c7.1,2.5,13.2,4.4,13.2,13.6c0,1.9,3.1,3.8,4.7,5.7c1.9-2.1,5.3-4.1,5.4-6.2c0.3-8,4.7-11,11.5-14
		C244,276.7,247.4,253.3,231.5,239.2z M231.5,239.2c-4.9-4.3-10.9-7.4-16.4-11.1c-4.8-3.2-10.8-5.7-14.1-10.1
		c-3.1-4.1-5.7-11.2-4.2-15.5c1.4-4.2,7.9-8,12.9-9.1c5.4-1.3,11.5,1.1,17.3,1c2.9-0.1,5.7-2.4,8.5-3.7c-1.6-2.3-2.8-5.3-5-6.8
		c-6.2-4.3-14.4-6.2-14.5-16.2c0-1.6-3.5-3.2-5.4-4.8c-1.6,1.9-3.3,3.8-4.7,5.8c-3.6,5.1-6,11.9-10.7,15.1
		c-19.9,13.2-20.9,34.7-1.1,48.5c7.3,5.1,15.6,8.9,22.5,14.5c4.5,3.6,7.3,9.2,11.9,15.4c-4.7,5-7.6,11-11.7,11.8
		c-7.6,1.6-15.8,0-23.8,0.4c-4.2,0.2-8.4,1.6-12.6,2.5c3.1,3.2,5.7,7.9,9.5,9.3c7.1,2.5,13.2,4.4,13.2,13.6c0,1.9,3.1,3.8,4.7,5.7
		c1.9-2.1,5.3-4.1,5.4-6.2c0.3-8,4.7-11,11.5-14C244,276.7,247.4,253.3,231.5,239.2z M147,195.5c-21,7.7-33.3,53.6-17.2,69.3
		C125.2,237.6,130,214.9,147,195.5z M147,195.5c-21,7.7-33.3,53.6-17.2,69.3C125.2,237.6,130,214.9,147,195.5z M231.5,239.2
		c-4.9-4.3-10.9-7.4-16.4-11.1c-4.8-3.2-10.8-5.7-14.1-10.1c-3.1-4.1-5.7-11.2-4.2-15.5c1.4-4.2,7.9-8,12.9-9.1
		c5.4-1.3,11.5,1.1,17.3,1c2.9-0.1,5.7-2.4,8.5-3.7c-1.6-2.3-2.8-5.3-5-6.8c-6.2-4.3-14.4-6.2-14.5-16.2c0-1.6-3.5-3.2-5.4-4.8
		c-1.6,1.9-3.3,3.8-4.7,5.8c-3.6,5.1-6,11.9-10.7,15.1c-19.9,13.2-20.9,34.7-1.1,48.5c7.3,5.1,15.6,8.9,22.5,14.5
		c4.5,3.6,7.3,9.2,11.9,15.4c-4.7,5-7.6,11-11.7,11.8c-7.6,1.6-15.8,0-23.8,0.4c-4.2,0.2-8.4,1.6-12.6,2.5c3.1,3.2,5.7,7.9,9.5,9.3
		c7.1,2.5,13.2,4.4,13.2,13.6c0,1.9,3.1,3.8,4.7,5.7c1.9-2.1,5.3-4.1,5.4-6.2c0.3-8,4.7-11,11.5-14
		C244,276.7,247.4,253.3,231.5,239.2z M231.5,239.2c-4.9-4.3-10.9-7.4-16.4-11.1c-4.8-3.2-10.8-5.7-14.1-10.1
		c-3.1-4.1-5.7-11.2-4.2-15.5c1.4-4.2,7.9-8,12.9-9.1c5.4-1.3,11.5,1.1,17.3,1c2.9-0.1,5.7-2.4,8.5-3.7c-1.6-2.3-2.8-5.3-5-6.8
		c-6.2-4.3-14.4-6.2-14.5-16.2c0-1.6-3.5-3.2-5.4-4.8c-1.6,1.9-3.3,3.8-4.7,5.8c-3.6,5.1-6,11.9-10.7,15.1
		c-19.9,13.2-20.9,34.7-1.1,48.5c7.3,5.1,15.6,8.9,22.5,14.5c4.5,3.6,7.3,9.2,11.9,15.4c-4.7,5-7.6,11-11.7,11.8
		c-7.6,1.6-15.8,0-23.8,0.4c-4.2,0.2-8.4,1.6-12.6,2.5c3.1,3.2,5.7,7.9,9.5,9.3c7.1,2.5,13.2,4.4,13.2,13.6c0,1.9,3.1,3.8,4.7,5.7
		c1.9-2.1,5.3-4.1,5.4-6.2c0.3-8,4.7-11,11.5-14C244,276.7,247.4,253.3,231.5,239.2z M147,195.5c-21,7.7-33.3,53.6-17.2,69.3
		C125.2,237.6,130,214.9,147,195.5z M147,195.5c-21,7.7-33.3,53.6-17.2,69.3C125.2,237.6,130,214.9,147,195.5z M231.5,239.2
		c-4.9-4.3-10.9-7.4-16.4-11.1c-4.8-3.2-10.8-5.7-14.1-10.1c-3.1-4.1-5.7-11.2-4.2-15.5c1.4-4.2,7.9-8,12.9-9.1
		c5.4-1.3,11.5,1.1,17.3,1c2.9-0.1,5.7-2.4,8.5-3.7c-1.6-2.3-2.8-5.3-5-6.8c-6.2-4.3-14.4-6.2-14.5-16.2c0-1.6-3.5-3.2-5.4-4.8
		c-1.6,1.9-3.3,3.8-4.7,5.8c-3.6,5.1-6,11.9-10.7,15.1c-19.9,13.2-20.9,34.7-1.1,48.5c7.3,5.1,15.6,8.9,22.5,14.5
		c4.5,3.6,7.3,9.2,11.9,15.4c-4.7,5-7.6,11-11.7,11.8c-7.6,1.6-15.8,0-23.8,0.4c-4.2,0.2-8.4,1.6-12.6,2.5c3.1,3.2,5.7,7.9,9.5,9.3
		c7.1,2.5,13.2,4.4,13.2,13.6c0,1.9,3.1,3.8,4.7,5.7c1.9-2.1,5.3-4.1,5.4-6.2c0.3-8,4.7-11,11.5-14
		C244,276.7,247.4,253.3,231.5,239.2z M231.5,239.2c-4.9-4.3-10.9-7.4-16.4-11.1c-4.8-3.2-10.8-5.7-14.1-10.1
		c-3.1-4.1-5.7-11.2-4.2-15.5c1.4-4.2,7.9-8,12.9-9.1c5.4-1.3,11.5,1.1,17.3,1c2.9-0.1,5.7-2.4,8.5-3.7c-1.6-2.3-2.8-5.3-5-6.8
		c-6.2-4.3-14.4-6.2-14.5-16.2c0-1.6-3.5-3.2-5.4-4.8c-1.6,1.9-3.3,3.8-4.7,5.8c-3.6,5.1-6,11.9-10.7,15.1
		c-19.9,13.2-20.9,34.7-1.1,48.5c7.3,5.1,15.6,8.9,22.5,14.5c4.5,3.6,7.3,9.2,11.9,15.4c-4.7,5-7.6,11-11.7,11.8
		c-7.6,1.6-15.8,0-23.8,0.4c-4.2,0.2-8.4,1.6-12.6,2.5c3.1,3.2,5.7,7.9,9.5,9.3c7.1,2.5,13.2,4.4,13.2,13.6c0,1.9,3.1,3.8,4.7,5.7
		c1.9-2.1,5.3-4.1,5.4-6.2c0.3-8,4.7-11,11.5-14C244,276.7,247.4,253.3,231.5,239.2z M147,195.5c-21,7.7-33.3,53.6-17.2,69.3
		C125.2,237.6,130,214.9,147,195.5z M147,195.5c-21,7.7-33.3,53.6-17.2,69.3C125.2,237.6,130,214.9,147,195.5z M231.5,239.2
		c-4.9-4.3-10.9-7.4-16.4-11.1c-4.8-3.2-10.8-5.7-14.1-10.1c-3.1-4.1-5.7-11.2-4.2-15.5c1.4-4.2,7.9-8,12.9-9.1
		c5.4-1.3,11.5,1.1,17.3,1c2.9-0.1,5.7-2.4,8.5-3.7c-1.6-2.3-2.8-5.3-5-6.8c-6.2-4.3-14.4-6.2-14.5-16.2c0-1.6-3.5-3.2-5.4-4.8
		c-1.6,1.9-3.3,3.8-4.7,5.8c-3.6,5.1-6,11.9-10.7,15.1c-19.9,13.2-20.9,34.7-1.1,48.5c7.3,5.1,15.6,8.9,22.5,14.5
		c4.5,3.6,7.3,9.2,11.9,15.4c-4.7,5-7.6,11-11.7,11.8c-7.6,1.6-15.8,0-23.8,0.4c-4.2,0.2-8.4,1.6-12.6,2.5c3.1,3.2,5.7,7.9,9.5,9.3
		c7.1,2.5,13.2,4.4,13.2,13.6c0,1.9,3.1,3.8,4.7,5.7c1.9-2.1,5.3-4.1,5.4-6.2c0.3-8,4.7-11,11.5-14
		C244,276.7,247.4,253.3,231.5,239.2z M147,195.5c-21,7.7-33.3,53.6-17.2,69.3C125.2,237.6,130,214.9,147,195.5z M231.5,239.2
		c-4.9-4.3-10.9-7.4-16.4-11.1c-4.8-3.2-10.8-5.7-14.1-10.1c-3.1-4.1-5.7-11.2-4.2-15.5c1.4-4.2,7.9-8,12.9-9.1
		c5.4-1.3,11.5,1.1,17.3,1c2.9-0.1,5.7-2.4,8.5-3.7c-1.6-2.3-2.8-5.3-5-6.8c-6.2-4.3-14.4-6.2-14.5-16.2c0-1.6-3.5-3.2-5.4-4.8
		c-1.6,1.9-3.3,3.8-4.7,5.8c-3.6,5.1-6,11.9-10.7,15.1c-19.9,13.2-20.9,34.7-1.1,48.5c7.3,5.1,15.6,8.9,22.5,14.5
		c4.5,3.6,7.3,9.2,11.9,15.4c-4.7,5-7.6,11-11.7,11.8c-7.6,1.6-15.8,0-23.8,0.4c-4.2,0.2-8.4,1.6-12.6,2.5c3.1,3.2,5.7,7.9,9.5,9.3
		c7.1,2.5,13.2,4.4,13.2,13.6c0,1.9,3.1,3.8,4.7,5.7c1.9-2.1,5.3-4.1,5.4-6.2c0.3-8,4.7-11,11.5-14
		C244,276.7,247.4,253.3,231.5,239.2z M293.8,310.1c-2.3,3.3-4.9,6.5-7.6,9.5c1.5,1.3,2.9,2.7,4.3,4c0.4-0.4,0.8-0.9,1.2-1.2
		c2.4-2.6,4.6-5.1,6.5-7.6C296.8,313.2,295.3,311.7,293.8,310.1z M147,195.5c-21,7.7-33.3,53.6-17.2,69.3
		C125.2,237.6,130,214.9,147,195.5z M231.5,239.2c-4.9-4.3-10.9-7.4-16.4-11.1c-4.8-3.2-10.8-5.7-14.1-10.1
		c-3.1-4.1-5.7-11.2-4.2-15.5c1.4-4.2,7.9-8,12.9-9.1c5.4-1.3,11.5,1.1,17.3,1c2.9-0.1,5.7-2.4,8.5-3.7c-1.6-2.3-2.8-5.3-5-6.8
		c-6.2-4.3-14.4-6.2-14.5-16.2c0-1.6-3.5-3.2-5.4-4.8c-1.6,1.9-3.3,3.8-4.7,5.8c-3.6,5.1-6,11.9-10.7,15.1
		c-19.9,13.2-20.9,34.7-1.1,48.5c7.3,5.1,15.6,8.9,22.5,14.5c4.5,3.6,7.3,9.2,11.9,15.4c-4.7,5-7.6,11-11.7,11.8
		c-7.6,1.6-15.8,0-23.8,0.4c-4.2,0.2-8.4,1.6-12.6,2.5c3.1,3.2,5.7,7.9,9.5,9.3c7.1,2.5,13.2,4.4,13.2,13.6c0,1.9,3.1,3.8,4.7,5.7
		c1.9-2.1,5.3-4.1,5.4-6.2c0.3-8,4.7-11,11.5-14C244,276.7,247.4,253.3,231.5,239.2z M271.9,333.1c-3.2,2.5-6.5,4.9-10,7
		c1.5,1.5,2.9,2.9,4.1,4.1c3.6-2.3,6.8-4.6,9.7-6.9C274.4,335.9,273.1,334.5,271.9,333.1z M319.3,243.2c-2.3-36.7-22.6-62-33-74.9
		c-10.1-12.6-20.3-21.5-27.6-27.2c-0.1,0-0.1-0.1-0.2-0.1c-14.3-9.7-13.4-9.5-10.7-21.5c1.2-5.6-0.1-15.4-3.7-17.6
		c-11.3-6.8-7.3-14.1-4.1-22.6c2.7-7.2,5-14.5,7.8-23.3c0.8-2.3-1.5-4.5-3.8-3.8c-1.5,0.5-2.5,0.8-3.4,1.3
		c-8.9,4.8-17.5,8.6-25.7-1.6c-1-1.2-6.8-0.7-7.9,0.7c-6.6,9.2-13.4,6.6-21,1.8c-1.8-1.1-3.8-1.7-7-2.6c-2.3-0.7-4.4,1.5-3.7,3.8
		c4.5,13.7,8.2,25.1,11.4,34.7c0.4,1.1,0.1,2.3-0.7,3.1c-5.4,5.4-10.5,9.1-12.7,14.1c-2.1,4.7,2.5,7.8,1.1,15.1
		c-0.4,2-1.3,6.2-4.8,9.8c-2.3,2.3-4.8,3.5-6.5,4.1c-0.5,0.2-1,0.5-1.4,1c-7,9.1-13.4,15.7-17.7,20.4c-15.6,17.4-19.5,20.2-25.5,28
		c-3.5,4.6-15.2,20.3-19.7,43.3c-5.4,27.8,2.7,50.2,6.8,60.9c4,10.7,8.8,18.9,12.4,24.3c3.8,5.4,9.5,12.5,17.7,19.6
		c28.9,25,63.3,27.2,75.3,27.1c2.1,0,3.5-0.1,4.1-0.1c1.7-0.1,3.4-0.3,5.1-0.5c1.6-0.2,2.7-1.5,2.6-3.1c0-1-0.1-2.1-0.1-3.1v-0.4
		c-2.5,0.3-5.1,0.5-7.7,0.6c-1.4,0.1-2.9,0.1-4.3,0.1c-41.9,0.3-73.2-19.3-92.9-56.3c-19.5-36.6-16.3-73.6,8.3-106.6
		c15.2-20.3,33.3-38.8,52.2-55.8c6.8-6.1,19.8-5.3,30-7.7c0.1,0,0.2,0,0.3,0c3.3-0.5,7.9,0.1,13,1.5c10.9,3,24.3,9.8,33.5,18.5
		c22.5,21.5,43.5,44,53.7,73.7c4.1,11.9,5.4,24.2,4.4,36.2c-0.2,2.9-0.6,5.7-1.1,8.5c-0.3,1.7,0.9,3.3,2.6,3.5c0,0,0,0,0.1,0
		c1.6,0.2,3-0.9,3.3-2.5c0.5-2.9,0.8-5.8,1-8.9C319.6,253.8,319.7,248.6,319.3,243.2z M185.4,61.9c6.1,4.7,10.1,5,12.7,4.2
		c4-1.2,5.2-5,10.7-6.2c2.3-0.4,4.1-0.2,6.3,0.1c2.7,0.9,5.4,1.8,8.2,2.8c0,0,0,0,0,0c1.5,0.7,2.8,1.4,4.6,1.7h0.1
		c2.8,0.4,6.9-0.2,12.6-4.6c-1.3,6.1-2.9,11.2-4.1,14.9c-1.5,4.4-3,8-5.3,11.8c0,0-2.6,4.1-6.2,6.8c-0.8,0.6-1.6,1.1-2.5,1.5
		c-0.3,0.1-0.6,0.2-0.9,0.3c-0.3,0.1-0.5,0.2-0.7,0.2c-0.3,0.1-0.5,0.1-0.8,0.2c-0.4,0.1-0.7,0.1-1.1,0.2
		C196.4,97.7,191,92.6,185.4,61.9z M209.5,124.1c-7,0-14.2,1.1-20.8-0.4c-4.2-1-9.2-5.4-10.4-9.3c-0.8-2.7,4.1-10.3,6.8-10.4
		c16.8-1.1,33.7-1.4,50.4-0.5c2.7,0.1,7.2,7.6,6.8,11.1c-0.4,3.5-5.7,8.3-9.6,9C225.1,125.2,217.2,124.1,209.5,124.1z M215.1,228.1
		c-4.8-3.2-10.8-5.7-14.1-10.1c-3.1-4.1-5.7-11.2-4.2-15.5c1.4-4.2,7.9-8,12.9-9.1c5.4-1.3,11.5,1.1,17.3,1c2.9-0.1,5.7-2.4,8.5-3.7
		c-1.6-2.3-2.8-5.3-5-6.8c-6.2-4.3-14.4-6.2-14.5-16.2c0-1.6-3.5-3.2-5.4-4.8c-1.6,1.9-3.3,3.8-4.7,5.8c-3.6,5.1-6,11.9-10.7,15.1
		c-19.9,13.2-20.9,34.7-1.1,48.5c7.3,5.1,15.6,8.9,22.5,14.5c4.5,3.6,7.3,9.2,11.9,15.4c-4.7,5-7.6,11-11.7,11.8
		c-7.6,1.6-15.8,0-23.8,0.4c-4.2,0.2-8.4,1.6-12.6,2.5c3.1,3.2,5.7,7.9,9.5,9.3c7.1,2.5,13.2,4.4,13.2,13.6c0,1.9,3.1,3.8,4.7,5.7
		c1.9-2.1,5.3-4.1,5.4-6.2c0.3-8,4.7-11,11.5-14c19.3-8.5,22.7-31.9,6.8-46.1C226.6,234.8,220.6,231.8,215.1,228.1z M129.8,264.9
		c-4.6-27.3,0.2-49.9,17.2-69.3C126,203.2,113.7,249.1,129.8,264.9z M231.5,239.2c-4.9-4.3-10.9-7.4-16.4-11.1
		c-4.8-3.2-10.8-5.7-14.1-10.1c-3.1-4.1-5.7-11.2-4.2-15.5c1.4-4.2,7.9-8,12.9-9.1c5.4-1.3,11.5,1.1,17.3,1c2.9-0.1,5.7-2.4,8.5-3.7
		c-1.6-2.3-2.8-5.3-5-6.8c-6.2-4.3-14.4-6.2-14.5-16.2c0-1.6-3.5-3.2-5.4-4.8c-1.6,1.9-3.3,3.8-4.7,5.8c-3.6,5.1-6,11.9-10.7,15.1
		c-19.9,13.2-20.9,34.7-1.1,48.5c7.3,5.1,15.6,8.9,22.5,14.5c4.5,3.6,7.3,9.2,11.9,15.4c-4.7,5-7.6,11-11.7,11.8
		c-7.6,1.6-15.8,0-23.8,0.4c-4.2,0.2-8.4,1.6-12.6,2.5c3.1,3.2,5.7,7.9,9.5,9.3c7.1,2.5,13.2,4.4,13.2,13.6c0,1.9,3.1,3.8,4.7,5.7
		c1.9-2.1,5.3-4.1,5.4-6.2c0.3-8,4.7-11,11.5-14C244,276.7,247.4,253.3,231.5,239.2z M147,195.5c-21,7.7-33.3,53.6-17.2,69.3
		C125.2,237.6,130,214.9,147,195.5z M231.5,239.2c-4.9-4.3-10.9-7.4-16.4-11.1c-4.8-3.2-10.8-5.7-14.1-10.1
		c-3.1-4.1-5.7-11.2-4.2-15.5c1.4-4.2,7.9-8,12.9-9.1c5.4-1.3,11.5,1.1,17.3,1c2.9-0.1,5.7-2.4,8.5-3.7c-1.6-2.3-2.8-5.3-5-6.8
		c-6.2-4.3-14.4-6.2-14.5-16.2c0-1.6-3.5-3.2-5.4-4.8c-1.6,1.9-3.3,3.8-4.7,5.8c-3.6,5.1-6,11.9-10.7,15.1
		c-19.9,13.2-20.9,34.7-1.1,48.5c7.3,5.1,15.6,8.9,22.5,14.5c4.5,3.6,7.3,9.2,11.9,15.4c-4.7,5-7.6,11-11.7,11.8
		c-7.6,1.6-15.8,0-23.8,0.4c-4.2,0.2-8.4,1.6-12.6,2.5c3.1,3.2,5.7,7.9,9.5,9.3c7.1,2.5,13.2,4.4,13.2,13.6c0,1.9,3.1,3.8,4.7,5.7
		c1.9-2.1,5.3-4.1,5.4-6.2c0.3-8,4.7-11,11.5-14C244,276.7,247.4,253.3,231.5,239.2z M147,195.5c-21,7.7-33.3,53.6-17.2,69.3
		C125.2,237.6,130,214.9,147,195.5z M147,195.5c-21,7.7-33.3,53.6-17.2,69.3C125.2,237.6,130,214.9,147,195.5z M231.5,239.2
		c-4.9-4.3-10.9-7.4-16.4-11.1c-4.8-3.2-10.8-5.7-14.1-10.1c-3.1-4.1-5.7-11.2-4.2-15.5c1.4-4.2,7.9-8,12.9-9.1
		c5.4-1.3,11.5,1.1,17.3,1c2.9-0.1,5.7-2.4,8.5-3.7c-1.6-2.3-2.8-5.3-5-6.8c-6.2-4.3-14.4-6.2-14.5-16.2c0-1.6-3.5-3.2-5.4-4.8
		c-1.6,1.9-3.3,3.8-4.7,5.8c-3.6,5.1-6,11.9-10.7,15.1c-19.9,13.2-20.9,34.7-1.1,48.5c7.3,5.1,15.6,8.9,22.5,14.5
		c4.5,3.6,7.3,9.2,11.9,15.4c-4.7,5-7.6,11-11.7,11.8c-7.6,1.6-15.8,0-23.8,0.4c-4.2,0.2-8.4,1.6-12.6,2.5c3.1,3.2,5.7,7.9,9.5,9.3
		c7.1,2.5,13.2,4.4,13.2,13.6c0,1.9,3.1,3.8,4.7,5.7c1.9-2.1,5.3-4.1,5.4-6.2c0.3-8,4.7-11,11.5-14
		C244,276.7,247.4,253.3,231.5,239.2z M231.5,239.2c-4.9-4.3-10.9-7.4-16.4-11.1c-4.8-3.2-10.8-5.7-14.1-10.1
		c-3.1-4.1-5.7-11.2-4.2-15.5c1.4-4.2,7.9-8,12.9-9.1c5.4-1.3,11.5,1.1,17.3,1c2.9-0.1,5.7-2.4,8.5-3.7c-1.6-2.3-2.8-5.3-5-6.8
		c-6.2-4.3-14.4-6.2-14.5-16.2c0-1.6-3.5-3.2-5.4-4.8c-1.6,1.9-3.3,3.8-4.7,5.8c-3.6,5.1-6,11.9-10.7,15.1
		c-19.9,13.2-20.9,34.7-1.1,48.5c7.3,5.1,15.6,8.9,22.5,14.5c4.5,3.6,7.3,9.2,11.9,15.4c-4.7,5-7.6,11-11.7,11.8
		c-7.6,1.6-15.8,0-23.8,0.4c-4.2,0.2-8.4,1.6-12.6,2.5c3.1,3.2,5.7,7.9,9.5,9.3c7.1,2.5,13.2,4.4,13.2,13.6c0,1.9,3.1,3.8,4.7,5.7
		c1.9-2.1,5.3-4.1,5.4-6.2c0.3-8,4.7-11,11.5-14C244,276.7,247.4,253.3,231.5,239.2z M147,195.5c-21,7.7-33.3,53.6-17.2,69.3
		C125.2,237.6,130,214.9,147,195.5z M147,195.5c-21,7.7-33.3,53.6-17.2,69.3C125.2,237.6,130,214.9,147,195.5z M231.5,239.2
		c-4.9-4.3-10.9-7.4-16.4-11.1c-4.8-3.2-10.8-5.7-14.1-10.1c-3.1-4.1-5.7-11.2-4.2-15.5c1.4-4.2,7.9-8,12.9-9.1
		c5.4-1.3,11.5,1.1,17.3,1c2.9-0.1,5.7-2.4,8.5-3.7c-1.6-2.3-2.8-5.3-5-6.8c-6.2-4.3-14.4-6.2-14.5-16.2c0-1.6-3.5-3.2-5.4-4.8
		c-1.6,1.9-3.3,3.8-4.7,5.8c-3.6,5.1-6,11.9-10.7,15.1c-19.9,13.2-20.9,34.7-1.1,48.5c7.3,5.1,15.6,8.9,22.5,14.5
		c4.5,3.6,7.3,9.2,11.9,15.4c-4.7,5-7.6,11-11.7,11.8c-7.6,1.6-15.8,0-23.8,0.4c-4.2,0.2-8.4,1.6-12.6,2.5c3.1,3.2,5.7,7.9,9.5,9.3
		c7.1,2.5,13.2,4.4,13.2,13.6c0,1.9,3.1,3.8,4.7,5.7c1.9-2.1,5.3-4.1,5.4-6.2c0.3-8,4.7-11,11.5-14
		C244,276.7,247.4,253.3,231.5,239.2z M231.5,239.2c-4.9-4.3-10.9-7.4-16.4-11.1c-4.8-3.2-10.8-5.7-14.1-10.1
		c-3.1-4.1-5.7-11.2-4.2-15.5c1.4-4.2,7.9-8,12.9-9.1c5.4-1.3,11.5,1.1,17.3,1c2.9-0.1,5.7-2.4,8.5-3.7c-1.6-2.3-2.8-5.3-5-6.8
		c-6.2-4.3-14.4-6.2-14.5-16.2c0-1.6-3.5-3.2-5.4-4.8c-1.6,1.9-3.3,3.8-4.7,5.8c-3.6,5.1-6,11.9-10.7,15.1
		c-19.9,13.2-20.9,34.7-1.1,48.5c7.3,5.1,15.6,8.9,22.5,14.5c4.5,3.6,7.3,9.2,11.9,15.4c-4.7,5-7.6,11-11.7,11.8
		c-7.6,1.6-15.8,0-23.8,0.4c-4.2,0.2-8.4,1.6-12.6,2.5c3.1,3.2,5.7,7.9,9.5,9.3c7.1,2.5,13.2,4.4,13.2,13.6c0,1.9,3.1,3.8,4.7,5.7
		c1.9-2.1,5.3-4.1,5.4-6.2c0.3-8,4.7-11,11.5-14C244,276.7,247.4,253.3,231.5,239.2z M147,195.5c-21,7.7-33.3,53.6-17.2,69.3
		C125.2,237.6,130,214.9,147,195.5z M147,195.5c-21,7.7-33.3,53.6-17.2,69.3C125.2,237.6,130,214.9,147,195.5z M231.5,239.2
		c-4.9-4.3-10.9-7.4-16.4-11.1c-4.8-3.2-10.8-5.7-14.1-10.1c-3.1-4.1-5.7-11.2-4.2-15.5c1.4-4.2,7.9-8,12.9-9.1
		c5.4-1.3,11.5,1.1,17.3,1c2.9-0.1,5.7-2.4,8.5-3.7c-1.6-2.3-2.8-5.3-5-6.8c-6.2-4.3-14.4-6.2-14.5-16.2c0-1.6-3.5-3.2-5.4-4.8
		c-1.6,1.9-3.3,3.8-4.7,5.8c-3.6,5.1-6,11.9-10.7,15.1c-19.9,13.2-20.9,34.7-1.1,48.5c7.3,5.1,15.6,8.9,22.5,14.5
		c4.5,3.6,7.3,9.2,11.9,15.4c-4.7,5-7.6,11-11.7,11.8c-7.6,1.6-15.8,0-23.8,0.4c-4.2,0.2-8.4,1.6-12.6,2.5c3.1,3.2,5.7,7.9,9.5,9.3
		c7.1,2.5,13.2,4.4,13.2,13.6c0,1.9,3.1,3.8,4.7,5.7c1.9-2.1,5.3-4.1,5.4-6.2c0.3-8,4.7-11,11.5-14
		C244,276.7,247.4,253.3,231.5,239.2z M231.5,239.2c-4.9-4.3-10.9-7.4-16.4-11.1c-4.8-3.2-10.8-5.7-14.1-10.1
		c-3.1-4.1-5.7-11.2-4.2-15.5c1.4-4.2,7.9-8,12.9-9.1c5.4-1.3,11.5,1.1,17.3,1c2.9-0.1,5.7-2.4,8.5-3.7c-1.6-2.3-2.8-5.3-5-6.8
		c-6.2-4.3-14.4-6.2-14.5-16.2c0-1.6-3.5-3.2-5.4-4.8c-1.6,1.9-3.3,3.8-4.7,5.8c-3.6,5.1-6,11.9-10.7,15.1
		c-19.9,13.2-20.9,34.7-1.1,48.5c7.3,5.1,15.6,8.9,22.5,14.5c4.5,3.6,7.3,9.2,11.9,15.4c-4.7,5-7.6,11-11.7,11.8
		c-7.6,1.6-15.8,0-23.8,0.4c-4.2,0.2-8.4,1.6-12.6,2.5c3.1,3.2,5.7,7.9,9.5,9.3c7.1,2.5,13.2,4.4,13.2,13.6c0,1.9,3.1,3.8,4.7,5.7
		c1.9-2.1,5.3-4.1,5.4-6.2c0.3-8,4.7-11,11.5-14C244,276.7,247.4,253.3,231.5,239.2z M147,195.5c-21,7.7-33.3,53.6-17.2,69.3
		C125.2,237.6,130,214.9,147,195.5z M147,195.5c-21,7.7-33.3,53.6-17.2,69.3C125.2,237.6,130,214.9,147,195.5z M231.5,239.2
		c-4.9-4.3-10.9-7.4-16.4-11.1c-4.8-3.2-10.8-5.7-14.1-10.1c-3.1-4.1-5.7-11.2-4.2-15.5c1.4-4.2,7.9-8,12.9-9.1
		c5.4-1.3,11.5,1.1,17.3,1c2.9-0.1,5.7-2.4,8.5-3.7c-1.6-2.3-2.8-5.3-5-6.8c-6.2-4.3-14.4-6.2-14.5-16.2c0-1.6-3.5-3.2-5.4-4.8
		c-1.6,1.9-3.3,3.8-4.7,5.8c-3.6,5.1-6,11.9-10.7,15.1c-19.9,13.2-20.9,34.7-1.1,48.5c7.3,5.1,15.6,8.9,22.5,14.5
		c4.5,3.6,7.3,9.2,11.9,15.4c-4.7,5-7.6,11-11.7,11.8c-7.6,1.6-15.8,0-23.8,0.4c-4.2,0.2-8.4,1.6-12.6,2.5c3.1,3.2,5.7,7.9,9.5,9.3
		c7.1,2.5,13.2,4.4,13.2,13.6c0,1.9,3.1,3.8,4.7,5.7c1.9-2.1,5.3-4.1,5.4-6.2c0.3-8,4.7-11,11.5-14
		C244,276.7,247.4,253.3,231.5,239.2z M231.5,239.2c-4.9-4.3-10.9-7.4-16.4-11.1c-4.8-3.2-10.8-5.7-14.1-10.1
		c-3.1-4.1-5.7-11.2-4.2-15.5c1.4-4.2,7.9-8,12.9-9.1c5.4-1.3,11.5,1.1,17.3,1c2.9-0.1,5.7-2.4,8.5-3.7c-1.6-2.3-2.8-5.3-5-6.8
		c-6.2-4.3-14.4-6.2-14.5-16.2c0-1.6-3.5-3.2-5.4-4.8c-1.6,1.9-3.3,3.8-4.7,5.8c-3.6,5.1-6,11.9-10.7,15.1
		c-19.9,13.2-20.9,34.7-1.1,48.5c7.3,5.1,15.6,8.9,22.5,14.5c4.5,3.6,7.3,9.2,11.9,15.4c-4.7,5-7.6,11-11.7,11.8
		c-7.6,1.6-15.8,0-23.8,0.4c-4.2,0.2-8.4,1.6-12.6,2.5c3.1,3.2,5.7,7.9,9.5,9.3c7.1,2.5,13.2,4.4,13.2,13.6c0,1.9,3.1,3.8,4.7,5.7
		c1.9-2.1,5.3-4.1,5.4-6.2c0.3-8,4.7-11,11.5-14C244,276.7,247.4,253.3,231.5,239.2z M147,195.5c-21,7.7-33.3,53.6-17.2,69.3
		C125.2,237.6,130,214.9,147,195.5z M147,195.5c-21,7.7-33.3,53.6-17.2,69.3C125.2,237.6,130,214.9,147,195.5z M231.5,239.2
		c-4.9-4.3-10.9-7.4-16.4-11.1c-4.8-3.2-10.8-5.7-14.1-10.1c-3.1-4.1-5.7-11.2-4.2-15.5c1.4-4.2,7.9-8,12.9-9.1
		c5.4-1.3,11.5,1.1,17.3,1c2.9-0.1,5.7-2.4,8.5-3.7c-1.6-2.3-2.8-5.3-5-6.8c-6.2-4.3-14.4-6.2-14.5-16.2c0-1.6-3.5-3.2-5.4-4.8
		c-1.6,1.9-3.3,3.8-4.7,5.8c-3.6,5.1-6,11.9-10.7,15.1c-19.9,13.2-20.9,34.7-1.1,48.5c7.3,5.1,15.6,8.9,22.5,14.5
		c4.5,3.6,7.3,9.2,11.9,15.4c-4.7,5-7.6,11-11.7,11.8c-7.6,1.6-15.8,0-23.8,0.4c-4.2,0.2-8.4,1.6-12.6,2.5c3.1,3.2,5.7,7.9,9.5,9.3
		c7.1,2.5,13.2,4.4,13.2,13.6c0,1.9,3.1,3.8,4.7,5.7c1.9-2.1,5.3-4.1,5.4-6.2c0.3-8,4.7-11,11.5-14
		C244,276.7,247.4,253.3,231.5,239.2z M231.5,239.2c-4.9-4.3-10.9-7.4-16.4-11.1c-4.8-3.2-10.8-5.7-14.1-10.1
		c-3.1-4.1-5.7-11.2-4.2-15.5c1.4-4.2,7.9-8,12.9-9.1c5.4-1.3,11.5,1.1,17.3,1c2.9-0.1,5.7-2.4,8.5-3.7c-1.6-2.3-2.8-5.3-5-6.8
		c-6.2-4.3-14.4-6.2-14.5-16.2c0-1.6-3.5-3.2-5.4-4.8c-1.6,1.9-3.3,3.8-4.7,5.8c-3.6,5.1-6,11.9-10.7,15.1
		c-19.9,13.2-20.9,34.7-1.1,48.5c7.3,5.1,15.6,8.9,22.5,14.5c4.5,3.6,7.3,9.2,11.9,15.4c-4.7,5-7.6,11-11.7,11.8
		c-7.6,1.6-15.8,0-23.8,0.4c-4.2,0.2-8.4,1.6-12.6,2.5c3.1,3.2,5.7,7.9,9.5,9.3c7.1,2.5,13.2,4.4,13.2,13.6c0,1.9,3.1,3.8,4.7,5.7
		c1.9-2.1,5.3-4.1,5.4-6.2c0.3-8,4.7-11,11.5-14C244,276.7,247.4,253.3,231.5,239.2z M147,195.5c-21,7.7-33.3,53.6-17.2,69.3
		C125.2,237.6,130,214.9,147,195.5z M147,195.5c-21,7.7-33.3,53.6-17.2,69.3C125.2,237.6,130,214.9,147,195.5z M231.5,239.2
		c-4.9-4.3-10.9-7.4-16.4-11.1c-4.8-3.2-10.8-5.7-14.1-10.1c-3.1-4.1-5.7-11.2-4.2-15.5c1.4-4.2,7.9-8,12.9-9.1
		c5.4-1.3,11.5,1.1,17.3,1c2.9-0.1,5.7-2.4,8.5-3.7c-1.6-2.3-2.8-5.3-5-6.8c-6.2-4.3-14.4-6.2-14.5-16.2c0-1.6-3.5-3.2-5.4-4.8
		c-1.6,1.9-3.3,3.8-4.7,5.8c-3.6,5.1-6,11.9-10.7,15.1c-19.9,13.2-20.9,34.7-1.1,48.5c7.3,5.1,15.6,8.9,22.5,14.5
		c4.5,3.6,7.3,9.2,11.9,15.4c-4.7,5-7.6,11-11.7,11.8c-7.6,1.6-15.8,0-23.8,0.4c-4.2,0.2-8.4,1.6-12.6,2.5c3.1,3.2,5.7,7.9,9.5,9.3
		c7.1,2.5,13.2,4.4,13.2,13.6c0,1.9,3.1,3.8,4.7,5.7c1.9-2.1,5.3-4.1,5.4-6.2c0.3-8,4.7-11,11.5-14
		C244,276.7,247.4,253.3,231.5,239.2z M231.5,239.2c-4.9-4.3-10.9-7.4-16.4-11.1c-4.8-3.2-10.8-5.7-14.1-10.1
		c-3.1-4.1-5.7-11.2-4.2-15.5c1.4-4.2,7.9-8,12.9-9.1c5.4-1.3,11.5,1.1,17.3,1c2.9-0.1,5.7-2.4,8.5-3.7c-1.6-2.3-2.8-5.3-5-6.8
		c-6.2-4.3-14.4-6.2-14.5-16.2c0-1.6-3.5-3.2-5.4-4.8c-1.6,1.9-3.3,3.8-4.7,5.8c-3.6,5.1-6,11.9-10.7,15.1
		c-19.9,13.2-20.9,34.7-1.1,48.5c7.3,5.1,15.6,8.9,22.5,14.5c4.5,3.6,7.3,9.2,11.9,15.4c-4.7,5-7.6,11-11.7,11.8
		c-7.6,1.6-15.8,0-23.8,0.4c-4.2,0.2-8.4,1.6-12.6,2.5c3.1,3.2,5.7,7.9,9.5,9.3c7.1,2.5,13.2,4.4,13.2,13.6c0,1.9,3.1,3.8,4.7,5.7
		c1.9-2.1,5.3-4.1,5.4-6.2c0.3-8,4.7-11,11.5-14C244,276.7,247.4,253.3,231.5,239.2z M147,195.5c-21,7.7-33.3,53.6-17.2,69.3
		C125.2,237.6,130,214.9,147,195.5z M185.4,61.9c6.1,4.7,10.1,5,12.7,4.2C194.3,66.1,190.1,64.5,185.4,61.9z M208.9,59.9
		c2.3-0.4,4.1-0.2,6.3,0.1C213.2,59.5,209.6,59,208.9,59.9z M223.4,62.9c1.5,0.7,2.8,1.4,4.6,1.7C226.4,64,224.9,63.5,223.4,62.9z
		 M225.1,93.4c2.4-1.6,4.5-3.9,6.2-6.8C229.7,88.5,227.8,91.4,225.1,93.4z"/>
	<path d="M228.5,262.1c-4.6-6.2-7.4-11.8-11.9-15.4c-6.9-5.5-15.2-9.4-22.5-14.5c-19.8-13.8-18.8-35.2,1.1-48.5
		c4.8-3.2,7.2-10,10.8-15.1c1.4-2,3.1-3.9,4.7-5.8c1.9,1.6,5.4,3.1,5.4,4.7c0.1,10,8.3,12,14.5,16.2c2.2,1.5,3.4,4.5,5,6.8
		c-2.8,1.3-5.7,3.6-8.5,3.7c-5.8,0.2-11.9-2.3-17.3-1c-4.9,1.2-11.4,5-12.9,9.2c-1.5,4.3,1.1,11.3,4.2,15.4
		c3.3,4.4,9.3,6.8,14.1,10.1c5.5,3.7,11.5,6.8,16.4,11.1c15.9,14.1,12.5,37.5-6.8,46c-6.8,3-11.2,6-11.5,14
		c-0.1,2.1-3.5,4.1-5.4,6.2c-1.7-1.9-4.7-3.8-4.7-5.7c0-9.2-6.1-11.1-13.2-13.6c-3.8-1.4-6.4-6.1-9.5-9.3c4.2-0.9,8.4-2.3,12.6-2.5
		c8-0.3,16.2,1.3,23.8-0.3C220.9,273.1,223.8,267.1,228.5,262.1z"/>
	<path d="M147,195.5c-17,19.4-21.8,42.1-17.2,69.3C113.7,249.1,126,203.2,147,195.5z"/>
	<g>
		<path d="M402.2,342.2c-3.1-23.2-13.5-42.9-28.5-57.4c-6.2-5.9-12.9-10.8-20-14.7c-2.6-1.4-5.2-2.7-7.9-3.9
			c-8.6-3.8-17.6-6.2-26.6-7.4c-2-0.3-4-0.5-5.9-0.6c-7.7-0.5-15.2-0.2-22.4,1c-5.1,0.8-17.3,3.2-31,10.9c-1.8,1-3.6,2.1-5.3,3.2
			c-2.2,1.4-4.3,2.9-6.2,4.4c-23,17.7-31.1,40.9-32.9,46.7c-3.6,11-4.7,21.3-4.6,30.2c0,2.3,0.1,4.4,0.3,6.5c0.2,2.8,0.5,5.5,0.9,8
			c0,0,0,0,0,0c0.4,2.9,1,5.5,1.5,7.7c0.6,2.6,1.2,4.7,1.8,6.4c15,48.2,64,75.6,114.7,64.1C376.7,436.9,408.7,390.3,402.2,342.2z
			 M306.8,438.3c-35.5,0-66.1-22.5-78.4-54c-1-2.6-1.9-5.3-2.7-8c-1.4-5.2-2.4-10.5-2.8-16c-0.1-1.9-0.2-3.9-0.2-5.9v-0.4
			c0-28.2,14.6-53.7,36.6-69c3.9-2.8,8.1-5.2,12.5-7.2c10.6-5,22.3-7.8,34.6-7.9c1.7,0,3.4,0,5.1,0.1c2.1,0.1,4.1,0.3,6.1,0.6
			c11.8,1.5,22.9,5.6,32.8,11.7c2.4,1.5,4.7,3.1,7,4.8c20.1,15.4,33.4,39.5,33.5,66.4C391,400.4,353.4,438.3,306.8,438.3z"/>
		<path d="M301.8,373.3c0.9-0.5,1.8-1,2.8-1.5C303.6,372.1,302.7,372.6,301.8,373.3z M301.8,373.3c0.9-0.5,1.8-1,2.8-1.5
			C303.6,372.1,302.7,372.6,301.8,373.3z M301.8,373.3c0.9-0.5,1.8-1,2.8-1.5C303.6,372.1,302.7,372.6,301.8,373.3z M327.3,347.7
			c-3.2,3-4.1,5.8-2.9,8.7c0.4-0.4,0.7-0.8,1.1-1.2c6.3-6.7,11.5-13.8,15.5-21.1C336.5,338.6,332,343.3,327.3,347.7z M301.8,373.3
			c0.9-0.5,1.8-1,2.8-1.5C303.6,372.1,302.7,372.6,301.8,373.3z M359.2,333.1c7.1-6.8,7.5-11.4,0-17.7c-1.1-0.9-2.1-2-3.2-3.1
			c-1.8-1.9-3.6-4-5.3-6.1c-4.3-4.9-8.4-9.4-12.6-9.3c-7.7,0.1-15.6,10.9-22.5,17.9c-6.3,6.3-11.2,7.1-17.3,0l0,0
			c-1.4-1.6-2.9-3.2-4.4-4.7c-1.6-1.6-3.2-3.1-4.9-4.7c-2.1-2.1-4.3-4.1-6.3-6.3c-3.1-3.3-5.8-3.9-8.7-2.4c-1,0.5-2,1.3-3,2.3
			c-5.7,5.3-11.5,10.3-18.3,16.2c-1.8,1.6-3.8,3.2-5.8,5c-2.1,1.8-2,5.1,0.2,6.8c4.3,3.2,7,5.1,9.3,7.5c1.7,1.7,3.3,3.3,4.7,4.7
			c0.3,0.3,0.6,0.5,0.8,0.8c1.5,1.5,2.9,2.9,4.1,4.1c12.1,12.4,7.6,11.5-9.2,29.2c-4.2,4.4-6.8,7.1-7.8,9.3c-1,2.2-0.2,4.1,2.3,6.8
			c1.4,1.5,3.2,3.2,5.6,5.4c20.5,19.3,20.7,19.6,40.3-0.3c6.9-7,11.4-8.1,18.9-0.6c21.3,21.4,21.4,20.9,43-0.7
			c6.6-6.6,7.3-10.8,0.2-17.9C337.7,354.2,337.8,353.6,359.2,333.1z M343.6,391.7c-4.4,4.5-8.4,5-12.9,0.3
			c-5.1-5.3-10.7-10.2-15.7-15.7c-0.8-0.9-1.6-1.7-2.4-2.3c-2.8-2.3-5.4-3.1-8.2-2.2c-0.9,0.3-1.8,0.8-2.8,1.5c-1,0.7-2,1.7-3,2.9
			c-2.6,3.1-5.5,5.8-8.4,8.6c-2.5,2.3-4.9,4.6-7.2,7.1c-4.5,4.9-8.4,4.2-12.8-0.1c-0.8-0.8-1.5-1.6-2.1-2.3c-1.6-2-2.5-4.1-2.2-6.2
			c0.2-1.7,1.2-3.4,3.1-5.3c5.6-5.4,10.7-11.3,16.5-16.5c5.7-5.2,5.3-9.5,0-14.6c-3.4-3.2-6.7-6.4-9.9-9.7c-1.3-1.3-2.6-2.7-3.8-4.1
			c-1.1-1.2-2.2-2.5-3.3-3.8c0-0.1-0.1-0.1-0.1-0.2c-1.6-2.2-2.2-6.8-1.1-8.9c1.2-2.1,3.1-3.7,5.3-5.4c2.5-1.9,6-1.8,8.4,0.3
			c0.7,0.6,1.3,1.2,2,1.8c1.1,1,2.1,1.9,3.2,2.8c1.5,1.3,2.9,2.7,4.3,4c16.8,16.4,16.6,16.3,33.8-0.8c1.9-1.9,3.7-3.9,5.6-5.9
			c4.5-4.7,8.7-5.9,14.3-0.3c1.4,1.4,2.4,2.7,3,3.9c2,3.7,0.8,7-3.2,10.8c-1,0.9-1.9,1.8-2.8,2.7c-4.6,4.5-9.1,9.2-13.8,13.6
			c-3.2,3-4.1,5.8-2.9,8.7c0.5,1.4,1.6,2.8,3.1,4.2c0.3,0.3,0.5,0.5,0.8,0.7c5.7,5.4,11,11,16.6,16.5
			C350.3,383,348.1,387.2,343.6,391.7z M301.8,373.3c0.9-0.5,1.8-1,2.8-1.5C303.6,372.1,302.7,372.6,301.8,373.3z M301.8,373.3
			c0.9-0.5,1.8-1,2.8-1.5C303.6,372.1,302.7,372.6,301.8,373.3z M301.8,373.3c0.9-0.5,1.8-1,2.8-1.5
			C303.6,372.1,302.7,372.6,301.8,373.3z"/>
	</g>
</g>
</svg>
