<?xml version="1.0" encoding="utf-8"?>
<!-- Generator: Adobe Illustrator 26.2.1, SVG Export Plug-In . SVG Version: 6.00 Build 0)  -->
<svg version="1.1" id="Layer_1" xmlns="http://www.w3.org/2000/svg" xmlns:xlink="http://www.w3.org/1999/xlink" x="0px" y="0px"
	 viewBox="0 0 500 500" style="enable-background:new 0 0 500 500;" xml:space="preserve">
<style type="text/css">
	.st0{fill:#FFFFFF;}
</style>
<rect x="-36" y="-25" class="st0" width="572" height="550"/>
<g>
	<path d="M368.6,135.9c37.5-20.9,80.5,6.1,81,48.3c0.8,56.7,0.2,113.4,0.1,170.2c0,3.7-0.4,7.3-0.8,11c-3.1,27.1-24,48.2-51.4,48.4
		c-98.2,0.7-196.4,0.6-294.6,0.1c-25.8-0.1-46.6-19.6-51.2-45.1c-1-5.7-1.5-11.5-1.5-17.2c-0.1-54.6-0.3-109.2,0-163.9
		c0.3-44.4,36.5-69.6,80.1-53.6c-10.2,1-20.6,1.4-30.7,3.2c-26.1,4.7-41.1,22.7-41.2,49.2c-0.2,55.1-0.3,110.3,0,165.4
		c0.2,34.9,19,53.8,53.5,53.8c91.9,0.1,183.8,0.2,275.7,0c34.5,0,53.3-17.4,53.7-51.8c0.8-56.2,0.6-112.4,0-168.6
		c-0.3-29.6-19.1-47.5-48.8-48.4C384.6,136.7,376.6,136.3,368.6,135.9z"/>
	<path d="M418.1,295.2c0,24.7-0.2,49.4,0.1,74.1c0.1,10-3.5,14.2-13.8,14.1c-48.3-0.3-96.6-0.4-145-0.1c-10.6,0.1-13.8-5-13.7-14.5
		c0.1-49.4,0.2-98.7-0.1-148.1c0-10.3,4.4-13.8,14.3-13.7c48.3,0.3,96.6,0.4,145,0c10.7-0.1,13.5,4.4,13.3,14.2
		C417.8,245.8,418.1,270.5,418.1,295.2z M408.4,215.7c-49,0-97.2,0-145.4,0c-10.9,0-8.9,8.1-9,14.6c-0.1,42-0.1,84,0,126.1
		c0,4,1.1,7.9,1.8,11.9c1.5-0.1,3.1-0.2,4.6-0.3c0.6-11.2-0.3-22.8,2.2-33.6c2.5-10.9,7.1-21.9,13.2-31.3
		c8.1-12.5,17.4-16.1,27.9-14c-1.5,1.9-2.4,3.9-4,4.8c-26.5,14.5-32.2,38.6-29.6,65.9c0.4,4,5.8,7.6,8.9,11.4
		c2.7-4.1,7.1-8,7.9-12.4c1.3-7.6,0.4-15.6,0.4-23.5c1.9-0.1,3.8-0.2,5.6-0.3c0.9,7.8,2.7,15.6,2.6,23.3
		c-0.2,10.5,4.3,13.8,14.2,13.3c14.2-0.6,28.4-0.7,42.5,0c11,0.5,15.2-3.7,14.7-14.6c-0.3-7.5,1-15,1.5-22.5
		c2.3,0.1,4.5,0.2,6.8,0.3c0,9.1-0.9,18.3,0.4,27.1c0.5,3.5,5.6,8,9.2,8.7c2.5,0.5,8.9-4.7,8.9-7.4c-0.1-26.1-1.4-52-27.4-67.8
		c-2.5-1.5-4.1-4.5-6-6.9c0.8-1.1,1.6-2.1,2.3-3.2c4.4,2,9.3,3.5,13.2,6.2c26.6,18.9,25.1,49.3,27.9,77.8c1.5-0.4,3-0.8,4.5-1.1
		C408.4,317.9,408.4,267.6,408.4,215.7z"/>
	<path d="M250.2,85.9c29.9,0,59.9,0.4,89.8-0.2c14.9-0.3,21.2,6.3,20.7,20.8c-0.5,15.7-0.9,31.4-1,47.1c0,9.8-4.4,14.4-14.3,14.4
		c-30.9,0-61.8,0.4-92.6,0.5c-31.9,0.1-63.9-0.1-95.8,0.3c-11,0.2-17-3.8-17.5-15.1c-0.6-15.7-1.2-31.3-1.6-47
		c-0.4-14.1,5.8-21.3,20.8-21C189.3,86.4,219.8,86,250.2,85.9C250.2,86,250.2,85.9,250.2,85.9z M352.4,128.1
		c0-5.2-0.4-10.5,0.1-15.7c1.3-13.3-3.6-18.7-17.8-18.5c-57.2,0.6-114.4,0.3-171.6,0.2c-8.5,0-16.3,0.2-16.3,11.6
		c-0.1,14.1-1.1,28.4,0.3,42.4c0.5,4.6,7.2,12,11.5,12.3c20.7,1.7,41.6,1.8,62.4,1.7c32.8-0.1,65.6-2.1,98.3-0.8
		C353.5,162.6,354.6,162.6,352.4,128.1z"/>
	<path d="M85.7,265.7c46.1,0,92.2,0,138.3,0c0,1.4,0,2.8,0,4.2c-46.1,0-92.2,0-138.3,0C85.7,268.5,85.7,267.1,85.7,265.7z"/>
	<path d="M224,314.1c-46.1,0-92.3,0-138.4,0c0-1.4,0-2.8,0-4.2c46,0,92.1,0,138.1,0C223.8,311.2,223.9,312.6,224,314.1z"/>
	<path d="M223.5,226.4c-45.8,0-91.6,0-139.8,0C94.4,218.3,208,217,223.5,226.4z"/>
	<path d="M227.8,358.1c-49.5,0-95.8,0-143.2,0C94.2,349.8,212,349,227.8,358.1z"/>
	<path d="M300.7,253.6c0-21.6,10.8-33.9,29.9-34.1c19.3-0.2,31,13,30.9,35.1c0,22.3-11.3,35-31,34.7
		C310.9,289.1,300.7,276.9,300.7,253.6z M309.3,253.4c-0.2,18.2,7.8,28.2,22.1,27.9c13.1-0.3,21.8-10.3,22.1-25.4
		c0.3-17.6-8.1-27.6-22.9-27.5C316.5,228.5,309.4,236.9,309.3,253.4z"/>
</g>
</svg>
