<?xml version="1.0" encoding="utf-8"?>
<!-- Generator: Adobe Illustrator 26.2.1, SVG Export Plug-In . SVG Version: 6.00 Build 0)  -->
<svg version="1.1" id="Layer_1" xmlns="http://www.w3.org/2000/svg" xmlns:xlink="http://www.w3.org/1999/xlink" x="0px" y="0px"
	 viewBox="0 0 500 500" style="enable-background:new 0 0 500 500;" xml:space="preserve">
<style type="text/css">
	.st0{fill:#FFFFFF;}
</style>
<rect x="-76.8" y="-84.4" class="st0" width="653.7" height="668.8"/>
<g>
	<path d="M173.5,320.1c-8.5-16-15.8-32.2-25.3-47c-11.2-17.5-12.5-35.9-10-55.5c1.2-9.4,1.4-19,2.7-28.5
		c1.9-15.2-2.4-25.1-17.6-32.4c-15.5-7.4-18.7-26.6-10-44.1c11.2-22.7,30.6-36.8,53.2-45.5c62.3-24.1,124.3-24.3,183.3,9.4
		c14.2,8.1,26.7,22.1,35.4,36.2c12.4,20.1,4.2,37.9-16.4,49.2c-4.9,2.7-9.9,10-10.2,15.4c-0.6,11.9,0.6,24.3,3.3,36
		c6.8,28.7-4.4,52.6-18,76.2c-5.5,9.6-15.7,20.6-14,29.1c1.6,8,15.9,13.5,24.6,20.1c30.8,23.2,53,52.9,66.3,89.1
		c2.6,7.1,9.3,16.6-1.6,21.1c-11.2,4.6-12.6-6.9-15.4-14c-15.3-39.8-40.8-70.8-77.9-92.4c-9-5.2-15.7-5.5-24.6,1.5
		c-8.9,7-20,11.9-30.7,16c-8,3-11.4,7-11.2,15.4c0.3,19.3,0.8,38.6-0.3,57.8c-0.3,5.7-5.2,15.7-8.6,15.9c-10.6,0.7-9.8-9-9.9-16.6
		c-0.1-18.8-0.4-37.6,0-56.3c0.2-8.9-2.7-13.3-11.6-16.4c-10.8-3.8-21.4-9.4-30.5-16.3c-7.8-5.9-13.7-6.4-21.9-1.8
		c-37,20.6-62.6,50.7-78.4,89.9c-3.1,7.8-3.7,23.2-17.6,17c-12-5.4-2.6-16.1,0.4-23.8c16.4-42.1,44.1-74.8,83.1-97.8
		C167.2,325.2,169.8,322.8,173.5,320.1z M251.1,185.6c-25,3.7-50.1,6.9-74.9,11.4c-5.6,1-14,6.1-14.7,10.4
		c-2.4,15.1-6.7,32.4-1.7,45.6c8.3,21.8,21.3,42.7,35.8,61.2c32.3,41.1,76.1,41.1,109,0.5c12.3-15.1,19.4-34.3,30.8-50.3
		c10.9-15.2,10.5-31.1,7.7-47.9c-1.8-11-7.6-18.4-19.5-20.1C299.6,193.1,275.7,189.3,251.1,185.6z M250.5,67.8
		c-17.5,2.6-35.3,3.9-52.4,8.1c-25.5,6.3-48.8,17.4-64.8,39.7c-8.9,12.3-7.2,22.7,3.8,28.2c16.2,8.1,53.8-4.2,62-20.3
		c10-19.6,25.6-31.2,48-32.3c22.1-1.1,42.3,6.2,50.6,26.7c10.4,25.7,32.4,24.3,52.3,28c5.8,1.1,16-3.9,18.9-9
		c2.8-5,1.1-15.6-2.7-20.5c-7.7-9.7-17.3-18.7-27.8-25.3C311.6,74.7,281.7,69.6,250.5,67.8z M250.3,167.2
		c25.5,3.6,50.5,7.4,75.5,10.5c4,0.5,8.3-2.4,12.5-3.7c-2.8-4.1-4.8-10.9-8.4-11.9c-53.5-14.7-107.2-14.5-160.7,0
		c-3.8,1-6.1,7.5-9.2,11.4c4.5,1.5,9.2,4.8,13.5,4.3C199.1,174.7,224.6,170.8,250.3,167.2z M281.9,132.3
		c-5.4-15.8-17.1-23.5-32.7-22.8c-15.9,0.7-26.3,8.3-29.7,22.8C240,132.3,260.3,132.3,281.9,132.3z"/>
	<path d="M327.9,419.1c-6,0-12.3,1-18-0.4c-3.4-0.8-8-5.4-8.1-8.5c-0.1-2.8,4.9-8.1,7.9-8.3c12.5-1,25.2-1.1,37.7-0.2
		c3.4,0.2,6.4,5,9.7,7.7c-3.2,3.3-5.9,8.4-9.6,9.4C341.2,420.3,334.4,419.2,327.9,419.1C327.9,419.2,327.9,419.1,327.9,419.1z"/>
</g>
</svg>
