<?xml version="1.0" encoding="utf-8"?>
<!-- Generator: Adobe Illustrator 26.2.1, SVG Export Plug-In . SVG Version: 6.00 Build 0)  -->
<svg version="1.1" id="a" xmlns="http://www.w3.org/2000/svg" xmlns:xlink="http://www.w3.org/1999/xlink" x="0px" y="0px"
	 viewBox="0 0 498 464" style="enable-background:new 0 0 498 464;" xml:space="preserve">
<style type="text/css">
	.st0{fill:#358597;}
	.st1{fill:#262F53;}
</style>
<path class="st0" d="M248.4,464c-34.8-48.4-76.5-90.2-107.7-140c-36.4-58.2-27.1-127.3,20.6-169.8c17.2-15.3,33.8-25.9,57.4-9.8
	c21.5,14.7,45.3,8.3,66-2.7c16-8.6,27.8-5.2,40.7,4.1c56,40.6,73.6,119.3,25.8,186.8c-26.5,37.5-56.4,72.5-84.8,108.6
	C260.8,448.4,255.1,455.6,248.4,464L248.4,464z"/>
<path class="st1" d="M140.2,158.1c-21.4,32.3-34.1,65.8-30.8,104.3c2.2,26.1,10.7,49.9,26,70.6c4.8,6.5,6.8,11.3,6.2,16.9
	c-0.5,3.8-2.3,6.8-3.7,8.6c-3.8,4.4-7.5,8.9-11.3,13.3c-18.8,23.7-37.3,23.9-55.6,0.6c-18.2-23.4-37.9-45.9-53.9-70.7
	C-14.6,252.5-0.8,190.7,46.4,163c5.1-3,9.8-8.4,17.2-3.8c0,0,0.4,0.2,29,10.7C100.8,172.9,114.9,172.7,140.2,158.1z"/>
<path class="st1" d="M357.5,158.5c26.4,13.6,51.6,17.1,76.9,0.5c7.2-4.7,12.1,1.3,17.1,4.3c39,23.4,57.2,73.9,39.8,116.6
	c-19.4,47.4-59.4,80.6-87.8,121.8c-4.4,6.4-8.1,1.9-11.4-2.4c-11.2-14.6-22.3-29.3-34-43.5c-4.3-5.2-4.8-9.3-0.9-14.9
	C399.6,280.7,399.6,220.2,357.5,158.5L357.5,158.5z"/>
<path class="st0" d="M317.2,68.2c0.4,37.7-30.8,69-68.6,68.9c-37.1-0.1-67.4-29.8-68.4-67.1C179.3,32.3,210,0.4,247.9,0
	C285.9-0.4,316.8,30,317.2,68.2L317.2,68.2z"/>
<path class="st1" d="M97.8,57.2c29.3-0.3,51.5,21,51.9,49.6c0.4,30.4-21.3,53.5-50.5,53.7c-28.9,0.2-52.8-23.6-52.5-52.3
	C47,79.7,69.2,57.5,97.8,57.2L97.8,57.2z"/>
<path class="st1" d="M347.7,108.2c0-29.3,21.2-50.7,50.5-51c29.6-0.3,52.8,22.5,52.5,51.8c-0.3,28-23.2,51.1-51.1,51.6
	C370.4,161,347.7,138.2,347.7,108.2z"/>
</svg>
