<?xml version="1.0" encoding="utf-8"?>
<!-- Generator: Adobe Illustrator 26.2.1, SVG Export Plug-In . SVG Version: 6.00 Build 0)  -->
<svg version="1.1" id="Layer_1" xmlns="http://www.w3.org/2000/svg" xmlns:xlink="http://www.w3.org/1999/xlink" x="0px" y="0px"
	 viewBox="0 0 2368.1 1002" style="enable-background:new 0 0 2368.1 1002;" xml:space="preserve">
<style type="text/css">
	.st0{fill:#1C233E;}
	.st1{fill:#53838D;}
	.st2{fill:#F4A896;}
	.st3{fill:none;}
	.st4{fill:#358597;stroke:#FFFFFF;stroke-width:10;stroke-miterlimit:10;}
	.st5{fill:#262F53;stroke:#FFFFFF;stroke-width:10;stroke-miterlimit:10;}
	.st6{fill:#F4A896;stroke:#FFFFFF;stroke-width:10;stroke-miterlimit:10;}
	.st7{fill:#FFFFFF;}
</style>
<text transform="matrix(1 0 0 1 -368.1 0)" style="font-family:'ArialMT'; font-size:12px;"> </text>
<g id="Layer_4">
</g>
<g id="Layer_5">
</g>
<g id="Layer_6">
</g>
<rect x="-339.3" y="-134" class="st0" width="50.7" height="50.7"/>
<rect x="-339.3" y="-201.4" class="st1" width="50.7" height="50.7"/>
<rect x="-339.3" y="-66.5" class="st2" width="50.7" height="50.7"/>
<rect x="-265.9" y="-195.1" class="st3" width="265.9" height="56.6"/>
<text transform="matrix(1 0 0 1 -265.3207 -152.4966)" style="font-family:'ArialMT'; font-size:60px;">#358597</text>
<rect x="-265.9" y="-129.7" class="st3" width="265.9" height="56.6"/>
<text transform="matrix(1 0 0 1 -265.9203 -87.141)" style="font-family:'ArialMT'; font-size:60px;">#262f53</text>
<rect x="-265.9" y="-64.4" class="st3" width="265.9" height="56.6"/>
<text transform="matrix(1 0 0 1 -265.9203 -21.7856)" style="fill:#F6B9AB; font-family:'ArialMT'; font-size:60px;">#f4a896</text>
<g>
	<path d="M491.5-947.9h18.6v59.6h54.4v-59.6h18.6v138h-18.6v-62.6h-54.4v62.6h-18.6V-947.9z"/>
	<path d="M650.3-912.5c30.6,0,40.6,25.6,40.6,49.6v4.2l-63.8,2.4c0.8,22.2,9.8,33.8,26.6,33.8c8.4,0,16.4-2,25.6-5.8l5.6,13.6
		c-10.8,4.6-20.4,7-31.4,7c-33,0-45-25.8-45-52.2C608.5-885.1,619.5-912.5,650.3-912.5z M672.3-871.5c-1.4-16-7-26.2-22-26.2
		c-12.2,0-21.2,7.2-23,28L672.3-871.5z"/>
	<path d="M715.7-953.5l17.8-4.4v148h-17.8V-953.5z"/>
	<path d="M780.3-767.5h-17.8v-142.8h15l1.2,11.2c4.6-6.2,14.6-13.4,26.6-13.4c28.6,0,38.6,27.2,38.6,52.6
		c0,26.4-13.6,52.2-43.6,52.2c-8.4,0-16.2-2.6-20-4.4V-767.5z M797.7-822.5c19,0,27.4-16.2,27.4-37.4c0-20.6-5.4-37.8-21.8-37.8
		c-9.2,0-17.8,6.4-23,14v57C784.9-824.5,791.1-822.5,797.7-822.5z"/>
	<path d="M865.1-939.7c0-6.2,5-10.8,11.2-10.8c6,0,11.4,4.6,11.4,10.8c0,6.2-5.4,10.8-11.4,10.8
		C870.3-928.9,865.1-933.7,865.1-939.7z M867.5-910.3h17.8v100.4h-17.8V-910.3z"/>
	<path d="M914.1-910.3h15l1,11.6h0.4c7.4-8.2,17.2-13.8,28-13.8c23.2,0,33.2,15.2,33.2,35.8v66.8h-17.8v-64.2
		c0-14-2.8-23.6-17.2-23.6c-9.8,0-19,7.2-24.8,14v73.8h-17.8V-910.3z"/>
	<path d="M1027.1-801.3c-0.8,2.4-1.2,4.4-1.2,6.6c0,9,11.4,15.4,27,15.4c15.8,0,27.2-5.6,27.2-16.4c0-26-62.4-9-62.4-40.2
		c0-6.2,3.8-10.8,8.8-14c-6-6.8-9-16-9-25.8c0-19.2,11.8-36.8,36.4-36.8c9.8,0,17.8,3,23.8,7.8c6.8-2.2,14-5.2,19.4-8.6l7.6,12.6
		c-5.6,2.4-12,4.8-18.4,6.2c3,5.6,4.6,12,4.6,18.6c0,19.4-12.2,37-37,37c-7,0-13-1.4-18-3.8c-1.6,1.2-2.6,3-2.6,5.2
		c0,15.4,65,3.6,65,40.2c0,22.4-22.6,32-45.4,32c-22.4,0-43.2-10.4-43.2-28.6c0-3.4,0.8-6.6,2.2-9.8L1027.1-801.3z M1072.1-875.7
		c0-12.8-5.4-22.2-18.2-22.2s-17.8,9.4-17.8,22c0,13.2,5,22.8,17.8,22.8S1072.1-862.9,1072.1-875.7z"/>
</g>
<g>
	<path d="M491.5-732h28.4v89.4h83V-732h28.4v207h-28.4v-93.9h-83v93.9h-28.4V-732z"/>
	<path d="M724.4-609.6l32.4-1.5v-13.2c0-21.9-7.6-32.4-29.6-32.4c-12.5,0-27.2,4.8-38.2,10.5l-9.8-19.2
		c12.8-6.9,29.9-13.5,48.5-13.5c36.6,0,55.9,20.4,55.9,54.9v99h-23.2l-1.2-14.4H758c-8.9,10.2-23.8,17.7-41.2,17.7
		c-27.8,0-46.7-18.6-46.7-44.4C670-594.9,696.3-608.1,724.4-609.6z M721.6-543.6c12.8,0,25.6-6.6,35.1-15v-34.2l-28.1,1.5
		c-21.1,0.9-29.9,10.2-29.9,24.9C698.7-554.1,706.7-543.6,721.6-543.6z"/>
	<path d="M826.6-675.6h22.9l1.5,17.4h0.6c11.3-12.3,26.2-20.7,42.7-20.7c35.4,0,50.7,22.8,50.7,53.7V-525h-27.2v-96.3
		c0-21-4.3-35.4-26.2-35.4c-15,0-29,10.8-37.8,21V-525h-27.2V-675.6z"/>
	<path d="M980.8-600.3c0-39.6,20.4-78.6,66.5-78.6c12.8,0,24.7,3.9,30.5,6.6v-71.4h26.9V-525h-22.9l-1.5-16.8
		c-6.1,9-22,20.1-40.6,20.1C996-521.7,980.8-561.3,980.8-600.3z M1077.8-564.6v-85.8c-7-3.3-16.5-6.3-26.6-6.3
		c-29,0-41.8,24.3-41.8,56.4c0,30.6,8.2,56.4,33,56.4C1056.8-543.9,1071.4-554.1,1077.8-564.6z"/>
</g>
<g>
	<g>
		<g>
			<path class="st4" d="M740.3,768.3l0.2-330.5c0-60.5-1.9-118,0.8-175.2c1.5-31.3,32.2-52.8,65.2-52.5c34,0.3,62,23.2,64.7,57.2
				c2.6,32.3,1.2,64.9,1.3,97.4c0.1,60.7-0.1,342.8-0.1,403.5L740.3,768.3L740.3,768.3z"/>
			<path class="st4" d="M575.3,847.8h-132c0-32.1-1.8-768.2-0.5-800.1c1.2-28.6,29.5-47,68.5-46.7c38.6,0.3,64.8,19.4,65.1,48.5
				C576.8,90,575.3,806.3,575.3,847.8z"/>
			<path class="st4" d="M427.2,762.7c-22.4,9.4-51.6-8.2-59.7,24.9c-10.6-5.6-30.3-11.2-30.3-16.8c-0.1-29.4-16.9-41.5-41.3-49.8
				c0-47-2.3-496.7-1-543.4c1.2-41.9,28.9-68.8,67.1-68.4c37.9,0.4,63.5,28.3,63.8,70.9C426.2,239.6,427.2,702,427.2,762.7z"/>
			<path class="st4" d="M594.9,121.7c3.4-30.4,38.6-47.9,71.8-44c31.6,3.8,55.3,28.8,55.8,63.4c1.1,77.6-2.2,604.4-2.2,604.4
				l-124.7-0.9C595.6,744.6,590.1,165.1,594.9,121.7z"/>
		</g>
		<g>
			<rect x="473.6" y="266.3" class="st5" width="138.1" height="506.7"/>
			<rect x="340.4" y="446.4" class="st5" width="206.6" height="389.4"/>
			<rect x="546.9" y="373.5" class="st5" width="231.8" height="394.1"/>
		</g>
		<path class="st6" d="M568.9,752h-52.8c-0.7-19.8,0.6-118.3,0.6-118.3h-28.1c30.2-29.9,99.9-93.1,99.9-93.1s69.6,63.1,99.9,93.1
			h-28.1c0,0,1.4,98.5,0.6,118.3h-52.6H568.9z"/>
		<g>
			<path class="st6" d="M843.4,728.5h-66.5c1-21.2,1.5-39.4,1.8-53.5c0.7-35,0.2-51.6,0-56.2c-0.5-12.9-1.2-23.7-1.8-31.4
				c22.2,0,44.3,0,66.5,0c-0.7,8.2-1.5,20.1-1.9,34.4c-0.4,13.6-0.3,24.4,0.2,47.7C842.1,685.3,842.6,705.2,843.4,728.5z"/>
			<g>
				<path class="st6" d="M723.1,521.7c8.3-8,15.9-18.4,29.3-8.9c2.6-5.4-0.9-9-1.6-13.1c-3.2-19.9,8.5-32.8,28.2-29.5
					c8.1,1.4,12,1.2,14.9-7.6c3.1-9.1,11.5-14.2,21.2-14.2c10.1,0,18.8,4.3,22.8,14.4c2.7,6.7,4.9,10.4,13.6,7.6
					c11.3-3.6,21.1,0.7,26.9,11.4c6.1,11.3,4.1,21.5-5.4,30.1c-1,0.7-1.4,1.6-0.8,2.5c0.9,1.4,2.1,1.8,3.6,0.7
					c9.2-6.8,18.6-8.6,27.1,0.6c7.9,8.6,10.9,18.9,4.1,29.2c-4.3,6.5-4.2,10.7,1,16.5c7.3,8.1,6.6,17.8,1.1,26.7s-14.6,9.9-24.4,12
					c-34.9,7.5-69.6-10.6-105,1.6c-13,4.5-29.9-0.5-44.5-3.7c-12.5-2.7-21-15.2-15.4-25.5c8.6-15.9,2.6-30,1.6-44.9
					C721.9,525.7,722.5,523.7,723.1,521.7z"/>
			</g>
		</g>
		<path class="st6" d="M379.7,241.5c7.4-0.8,14.4-1.5,21.8-2.3c28.5,6.1,35.8,15.9,36.6,46.6c0.1,5.6,20.9,18.6,23.9,18.9
			c2.5,0.3,9.7,0.6,14.4,1.9c0.7,0.2,1.5,0.3,2.2,0.4c7.1,0.7,12.9,4.1,16.8,8.7c1,1.2,6.2,7.9,4.9,16.9c-1,7.4-5.7,12-7.7,13.8
			c-8.8,8.4-20.5,8.3-23.9,8.1c-0.3,0-0.6,0-0.9,0L286.5,355c-20.6,0-18.5-19.5-15.5-32.6c2.9-12.9,11.5-20.2,25-20.2
			c5.3,0,8.4-1.1,10.8-6.6c7.1-16.3,20.7-21.9,37.7-20c4.1,0.4,8.2,2.9,9.3-4C356.5,255.9,366.8,247.4,379.7,241.5z"/>
		<rect x="571.4" y="666.3" class="st7" width="43.2" height="98.4"/>
		<path class="st4" d="M565.8,746.9c71.6-96.2,207.3-87.7,272.4-38c38.3,29.2,43.1,45.2,25.2,89.7
			c-89.1,221.6-373.5,272.8-534.1,95.3c-30.7-34-60.1-69.6-86-107.3C203,727.7,144.1,697,80.7,673.3c-28.8-10.8-50.4-22.5-47-57.8
			c2.8-29.5,24-52.6,58.1-59.7c44.4-9.3,88.6-5.2,127.2,17.8c43.7,26,83.5,58.5,126.2,86.5c11.9,7.8,28.2,14.4,41.7,13.1
			C458.5,665.8,519.4,689.4,565.8,746.9z"/>
	</g>
	<g>
		<g>
			<path d="M1069.5,89.1h38.4v123h112.3v-123h38.4v284.8h-38.4V244.7h-112.3v129.2h-38.4V89.1z"/>
			<path d="M1397.2,162.1c63.1,0,83.8,52.8,83.8,102.4v8.7l-131.7,5c1.7,45.8,20.2,69.7,54.9,69.7c17.3,0,33.8-4.1,52.8-12
				l11.6,28.1c-22.3,9.5-42.1,14.4-64.8,14.4c-68.1,0-92.9-53.2-92.9-107.7C1310.9,218.7,1333.6,162.1,1397.2,162.1z M1442.6,246.7
				c-2.9-33-14.4-54.1-45.4-54.1c-25.2,0-43.7,14.9-47.5,57.8L1442.6,246.7z"/>
			<path d="M1532.1,77.5l36.7-9.1v305.4h-36.7V77.5z"/>
			<path d="M1665.4,461.3h-36.7V166.7h31l2.5,23.1c9.5-12.8,30.1-27.7,54.9-27.7c59,0,79.6,56.1,79.6,108.5
				c0,54.5-28.1,107.7-90,107.7c-17.3,0-33.4-5.4-41.3-9.1V461.3z M1701.3,347.9c39.2,0,56.5-33.4,56.5-77.2c0-42.5-11.1-78-45-78
				c-19,0-36.7,13.2-47.5,28.9v117.6C1674.9,343.7,1687.7,347.9,1701.3,347.9z"/>
			<path d="M1840.4,106c0-12.8,10.3-22.3,23.1-22.3c12.4,0,23.5,9.5,23.5,22.3c0,12.8-11.1,22.3-23.5,22.3
				C1851.2,128.3,1840.4,118.4,1840.4,106z M1845.4,166.7h36.7v207.2h-36.7V166.7z"/>
			<path d="M1941.5,166.7h31l2.1,23.9h0.8c15.3-16.9,35.5-28.5,57.8-28.5c47.9,0,68.5,31.4,68.5,73.9v137.8h-36.7V241.4
				c0-28.9-5.8-48.7-35.5-48.7c-20.2,0-39.2,14.9-51.2,28.9v152.3h-36.7V166.7z"/>
			<path d="M2174.7,391.6c-1.7,5-2.5,9.1-2.5,13.6c0,18.6,23.5,31.8,55.7,31.8c32.6,0,56.1-11.6,56.1-33.8
				c0-53.6-128.8-18.6-128.8-83c0-12.8,7.8-22.3,18.2-28.9c-12.4-14-18.6-33-18.6-53.2c0-39.6,24.3-75.9,75.1-75.9
				c20.2,0,36.7,6.2,49.1,16.1c14-4.5,28.9-10.7,40-17.7l15.7,26c-11.6,5-24.8,9.9-38,12.8c6.2,11.6,9.5,24.8,9.5,38.4
				c0,40-25.2,76.3-76.3,76.3c-14.4,0-26.8-2.9-37.1-7.8c-3.3,2.5-5.4,6.2-5.4,10.7c0,31.8,134.1,7.4,134.1,83
				c0,46.2-46.6,66-93.7,66c-46.2,0-89.1-21.5-89.1-59c0-7,1.7-13.6,4.5-20.2L2174.7,391.6z M2267.6,238.1
				c0-26.4-11.1-45.8-37.6-45.8c-26.4,0-36.7,19.4-36.7,45.4c0,27.2,10.3,47,36.7,47C2256.4,284.7,2267.6,264.5,2267.6,238.1z"/>
		</g>
		<g>
			<path d="M1067.5,499.6h58.6v184.5h171.3V499.6h58.6v427.2h-58.6V733H1126v193.8h-58.6V499.6z"/>
			<path d="M1548,752.2l66.8-3.1v-27.2c0-45.2-15.7-66.9-61.1-66.9c-25.8,0-56.1,9.9-78.7,21.7l-20.2-39.6
				c26.5-14.2,61.7-27.9,100.1-27.9c75.6,0,115.3,42.1,115.3,113.3v204.3h-47.9l-2.5-29.7h-2.5c-18.3,21-49.1,36.5-85,36.5
				c-57.3,0-96.4-38.4-96.4-91.6C1435.9,782.5,1490.1,755.3,1548,752.2z M1542.3,888.4c26.5,0,52.9-13.6,72.4-31v-70.6l-57.9,3.1
				c-43.5,1.9-61.7,21-61.7,51.4C1495.1,866.7,1511.5,888.4,1542.3,888.4z"/>
			<path d="M1759,616h47.2l3.1,35.9h1.3c23.3-25.4,54.2-42.7,88.2-42.7c73.1,0,104.6,47,104.6,110.8v206.8h-56.1V728
				c0-43.3-8.8-73-54.2-73c-30.9,0-59.8,22.3-78.1,43.3v228.4H1759V616z"/>
			<path d="M2077.1,771.4c0-81.7,42.2-162.2,137.3-162.2c26.5,0,51,8,63,13.6V475.4h55.4v451.3h-47.2l-3.1-34.7
				c-12.6,18.6-45.3,41.5-83.8,41.5C2108.6,933.5,2077.1,851.8,2077.1,771.4z M2277.4,845V668c-14.5-6.8-34-13-54.8-13
				c-59.8,0-86.3,50.1-86.3,116.4c0,63.1,17,116.4,68,116.4C2233.9,887.7,2264.1,866.7,2277.4,845z"/>
		</g>
	</g>
</g>
</svg>
