<?xml version="1.0" encoding="utf-8"?>
<!-- Generator: Adobe Illustrator 26.2.1, SVG Export Plug-In . SVG Version: 6.00 Build 0)  -->
<svg version="1.1" id="Layer_1" xmlns="http://www.w3.org/2000/svg" xmlns:xlink="http://www.w3.org/1999/xlink" x="0px" y="0px"
	 viewBox="0 0 500 389" style="enable-background:new 0 0 500 389;" xml:space="preserve">
<style type="text/css">
	.st0{fill:#AEB2B8;}
	.st1{fill:#262F53;}
</style>
<g>
	<path class="st0" d="M498.8,83.8c0,66.6,0.1,133.2,0.1,199.7c0,20.1,0.3,40.3-0.1,60.4c-0.3,16.5-6.5,30.2-21.7,38.5
		c-6.7,3.7-14,5.3-21.5,5.4c-137,0.1-274,0.1-411.1,0c-24.5,0-43.1-17.7-43.1-42.2c-0.3-87.3,0-174.6,0-261.9c1.5,0,3.1,0.1,4.6,0.1
		c162.7,0,325.4,0,488.1,0C495.7,83.9,497.3,83.9,498.8,83.8z M152.9,332.7c26.9,0,53.7,0.1,80.6,0c10.8,0,17.3-6.2,16.4-15.2
		c-2.3-23.7-19.1-39.8-43-40c-35.7-0.3-71.4-0.3-107.1,0c-21,0.2-36.3,12.3-41.6,32.1c-4.2,15.7,1.4,23.1,17.5,23.1
		C101.5,332.7,127.2,332.7,152.9,332.7z M153.6,249.7c33.1-2.5,54.8-24.9,54.5-55.4c-0.3-32.6-23.9-54.8-55-54.5
		c-32.6,0.3-54.8,23.9-54.5,54.9C99,227.8,123.1,247.8,153.6,249.7z M374.3,166.9c18.2,0,36.5,0.1,54.7,0
		c8.8-0.1,14.5-5.6,14.6-13.6c0.1-8-5.7-13.6-14.4-13.9c-2.3-0.1-4.6,0-6.9,0c-33.6,0-67.2,0-100.8,0c-6.7,0-12.1,2-14.9,8.5
		c-4.1,9.5,2.6,19,13.6,19.1C338.2,167,356.3,166.9,374.3,166.9z M374.9,194.5c-18.2,0-36.5-0.1-54.7,0c-8.7,0.1-14.7,5.8-14.7,13.7
		c-0.1,7.5,5.7,13.8,13.8,13.9c36.9,0.2,73.7,0.2,110.6,0c5.3,0,10.2-2.1,12.4-7.7c4.3-10.6-2-19.8-13.8-19.8
		C410.6,194.4,392.7,194.5,374.9,194.5z M374.9,249.8c-18.2,0-36.5-0.1-54.7,0c-8.7,0.1-14.7,5.8-14.7,13.7
		c-0.1,7.5,5.7,13.8,13.8,13.9c36.9,0.2,73.7,0.2,110.6,0c5.3,0,10.2-2.1,12.4-7.7c4.3-10.6-2-19.8-13.8-19.8
		C410.6,249.7,392.7,249.8,374.9,249.8z"/>
	<path class="st1" d="M498.8,83.8c-1.5,0-3.1,0.1-4.6,0.1c-162.7,0-325.4,0-488.1,0c-1.5,0-3.1-0.1-4.6-0.1
		c0.1-15.1-1.5-30.4,0.7-45.4C5.8,14.2,21.9,1,46.6,1c64.5,0,128.9,0,193.4,0c71.4,0,142.8,0,214.1,0c22,0,37.8,11.7,43.1,31.7
		c1.8,6.9,1.7,14,1.6,21.1C498.8,63.9,498.8,73.8,498.8,83.8z"/>
	<path class="st1" d="M152.9,332.7c-25.7,0-51.4,0-77.1,0c-16.1,0-21.8-7.4-17.5-23.1c5.3-19.7,20.7-31.9,41.6-32.1
		c35.7-0.3,71.4-0.3,107.1,0c23.9,0.2,40.8,16.2,43,40c0.9,9-5.6,15.2-16.4,15.2C206.6,332.7,179.8,332.7,152.9,332.7z"/>
	<path class="st1" d="M153.6,249.7c-30.5-1.9-54.6-21.9-55-55c-0.3-31,21.9-54.7,54.5-54.9c31-0.3,54.6,21.9,55,54.5
		C208.4,224.8,186.7,247.2,153.6,249.7z"/>
</g>
</svg>
