<?xml version="1.0" encoding="utf-8"?>
<!-- Generator: Adobe Illustrator 26.2.1, SVG Export Plug-In . SVG Version: 6.00 Build 0)  -->
<svg version="1.1" id="Layer_1" xmlns="http://www.w3.org/2000/svg" xmlns:xlink="http://www.w3.org/1999/xlink" x="0px" y="0px"
	 viewBox="0 0 500 500" style="enable-background:new 0 0 500 500;" xml:space="preserve">
<style type="text/css">
	.st0{fill:#368597;}
</style>
<path class="st0" d="M109.2,186.6c0-14.2-0.3-28.2,0.1-42.3c0.7-29.1,7.7-56.3,23.7-81c20.7-31.8,50.2-50.8,86.8-58.7
	c48-10.3,90.6,1.8,126.8,34.3c23.2,20.9,37.1,47.9,41.4,78.8c2.4,17.9,2,36.2,2.8,54.3c0.2,4.9,0,9.9,0,14.9
	c7.9,0.6,15.1,1,22.4,1.7c29,2.9,51.7,26,54.5,54.6c0.5,5.6,1,11.2,1.1,16.8c0.1,57.3,0.1,114.7,0,172c0,15.3-3.7,29.6-13.1,41.9
	c-12.9,16.8-30.6,24.7-51.2,24.8c-102.8,0.3-205.6,0.3-308.5,0.1c-31-0.1-54.4-18.6-62.4-48.6c-1.4-5.4-2.1-11.1-2.1-16.6
	c-0.1-60.2-0.2-120.3-0.1-180.5c0.1-31.4,18.1-55.2,48.4-63.1C89,187.5,98.9,187.7,109.2,186.6z M170.1,187.1
	c54.1,0,106.1,0,158.3,0c0-17.9,0.8-35.4-0.2-52.8c-1.2-20.3-9.2-38.1-24.8-51.8c-19.4-17-42-22-67.1-18.6
	c-30.5,4.1-57.4,27.8-62,58.1C171,143.2,171.4,164.9,170.1,187.1z"/>
</svg>
