<?xml version="1.0" encoding="UTF-8"?><svg id="a" xmlns="http://www.w3.org/2000/svg" viewBox="0 0 498 464.02"><defs><style>.b{fill:#358597;}.c{fill:#262f53;}</style></defs><path class="b" d="M248.41,464.02c-34.83-48.41-76.54-90.21-107.67-139.98-36.43-58.23-27.09-127.26,20.65-169.76,17.23-15.34,33.85-25.92,57.45-9.84,21.54,14.68,45.28,8.33,65.96-2.73,16.02-8.56,27.84-5.16,40.68,4.15,56.01,40.63,73.59,119.34,25.84,186.84-26.49,37.45-56.44,72.47-84.84,108.57-5.65,7.18-11.36,14.31-18.07,22.75Z"/><path class="c" d="M140.21,158.15c-21.39,32.32-34.07,65.77-30.82,104.3,2.2,26.07,10.68,49.92,26,70.63,9,12.16,8.34,20.92-2.18,30.51-2.58,2.35-4.43,5.48-6.63,8.25q-28.21,35.54-55.56,.6c-18.22-23.38-37.91-45.85-53.91-70.68C-14.6,252.54-.75,190.7,46.39,162.98c5.11-3,9.85-8.44,17.15-3.8,25.29,16.07,50.46,13.78,76.66-1.02Z"/><path class="c" d="M357.49,158.51c26.39,13.65,51.57,17.06,76.94,.48,7.2-4.7,12.06,1.27,17.12,4.31,39.03,23.45,57.25,73.94,39.83,116.6-19.35,47.39-59.42,80.55-87.8,121.84-4.4,6.41-8.15,1.86-11.39-2.35-11.23-14.57-22.32-29.26-33.97-43.5-4.29-5.24-4.78-9.28-.86-14.88,42.2-60.34,42.22-120.8,.14-182.5Z"/><path class="b" d="M317.21,68.22c.41,37.71-30.78,69.04-68.63,68.93-37.14-.11-67.4-29.82-68.35-67.09C179.29,32.27,210.03,.42,247.87,0c38.02-.42,68.92,29.98,69.34,68.21Z"/><path class="c" d="M97.82,57.18c29.28-.31,51.53,20.98,51.89,49.64,.39,30.41-21.33,53.52-50.5,53.73-28.86,.21-52.77-23.62-52.49-52.32,.28-28.55,22.49-50.75,51.09-51.05Z"/><path class="c" d="M347.74,108.19c.02-29.27,21.25-50.7,50.54-51.01,29.61-.32,52.78,22.54,52.49,51.79-.28,28.02-23.2,51.14-51.15,51.59-29.27,.48-51.89-22.36-51.88-52.37Z"/></svg>