<svg id="Layer_1" data-name="Layer 1" xmlns="http://www.w3.org/2000/svg" viewBox="0 0 482.53 498"><defs><style>.cls-1{fill:#368597;}</style></defs><path class="cls-1" d="M482.48,240.94c1.33,80-23.67,144.05-79,194.67-37.22,34.07-81.36,54.59-132,60.51-63,7.35-120.69-6.72-171.79-44C50.29,416,18.42,367.68,5.79,307.47c-11-52.58-6.72-103.88,16.47-152.66A247.25,247.25,0,0,1,87,71.48c14-11.77,33.4-9.57,44.79,4.11,11.55,13.87,9.67,34.06-5.17,46.54a176,176,0,0,0-42.1,51.36C64.24,211,58.9,250.89,67.91,292c15.81,72.13,60.26,119.43,131.72,136.91,65.4,16,123.34-1.56,170.86-50.56,29.72-30.64,44.73-67.58,47.59-109.7,3.76-55.35-14.71-102.27-54.59-140.79-3-2.95-6.32-5.65-9.33-8.63-12.86-12.69-13.72-31.64-2.08-44.46,12.23-13.47,30.77-14.79,44.77-2.52,41.26,36.12,69.86,80.05,80.93,134.3C480.44,219.57,481.42,233,482.48,240.94Z"/><path class="cls-1" d="M209.1,144.15c0-37.21-.1-74.43.05-111.64.07-17.75,9.71-29.35,26-32C257-3,274,11.94,274.13,35.26c.17,28.75,0,57.5,0,86.24,0,43.46.07,86.91-.08,130.36a85.52,85.52,0,0,1-1.94,16.46c-2.71,13.41-22.59,23-34.83,21-17.18-2.75-27.74-13.45-28.06-30.22-.41-21.61-.15-43.23-.17-64.84Q209.08,169.23,209.1,144.15Z"/></svg>