<?xml version="1.0" encoding="utf-8"?>
<!-- Generator: Adobe Illustrator 26.2.1, SVG Export Plug-In . SVG Version: 6.00 Build 0)  -->
<svg version="1.1" id="Layer_1" xmlns="http://www.w3.org/2000/svg" xmlns:xlink="http://www.w3.org/1999/xlink" x="0px" y="0px"
	 viewBox="0 0 482.5 498" style="enable-background:new 0 0 482.5 498;" xml:space="preserve">
<style type="text/css">
	.st0{fill:#358597;}
</style>
<path class="st0" d="M482.5,240.9c1.3,80-23.7,144-79,194.7c-37.2,34.1-81.4,54.6-132,60.5c-63,7.4-120.7-6.7-171.8-44
	C50.3,416,18.4,367.7,5.8,307.5c-11-52.6-6.7-103.9,16.5-152.7C37.6,122.7,59.7,94.3,87,71.5c14-11.8,33.4-9.6,44.8,4.1
	c11.6,13.9,9.7,34.1-5.2,46.5c-17.2,14.3-31.5,31.7-42.1,51.4C64.2,211,58.9,250.9,67.9,292c15.8,72.1,60.3,119.4,131.7,136.9
	c65.4,16,123.3-1.6,170.9-50.6c29.7-30.6,44.7-67.6,47.6-109.7c3.8-55.4-14.7-102.3-54.6-140.8c-3-2.9-6.3-5.7-9.3-8.6
	c-12.9-12.7-13.7-31.6-2.1-44.5c12.2-13.5,30.8-14.8,44.8-2.5c41.3,36.1,69.9,80.1,80.9,134.3C480.4,219.6,481.4,233,482.5,240.9z"
	/>
<path class="st0" d="M209.1,144.1c0-37.2-0.1-74.4,0.1-111.6c0.1-17.8,9.7-29.4,26-32C257-3,274,11.9,274.1,35.3
	c0.2,28.7,0,57.5,0,86.2c0,43.5,0.1,86.9-0.1,130.4c-0.1,5.5-0.8,11-1.9,16.5c-2.7,13.4-22.6,23-34.8,21
	c-17.2-2.8-27.7-13.5-28.1-30.2c-0.4-21.6-0.1-43.2-0.2-64.8C209.1,177.6,209.1,160.9,209.1,144.1z"/>
</svg>
