<?xml version="1.0" encoding="utf-8"?>
<!-- Generator: Adobe Illustrator 26.2.1, SVG Export Plug-In . SVG Version: 6.00 Build 0)  -->
<svg version="1.1" id="Layer_1" xmlns="http://www.w3.org/2000/svg" xmlns:xlink="http://www.w3.org/1999/xlink" x="0px" y="0px"
	 viewBox="0 0 502 502" style="enable-background:new 0 0 502 502;" xml:space="preserve">
<style type="text/css">
	.st0{fill:#358597;}
</style>
<path class="st0" d="M499.5,177.1c0,31.7,0,61.8,0,92c0,35.6,0.2,71.2-0.1,106.8c-0.1,21-7.5,39-24.3,52.4
	c-11.8,9.4-25.7,13.5-40.6,13.5c-123.3,0.1-246.6,0.2-369.9,0c-36.7-0.1-64.4-26.7-64.7-63.3c-0.6-66.2-0.2-132.4-0.1-198.6
	c0-0.4,0.1-0.8,0.4-2.2c1.8,1.1,3.4,2,4.8,3C72,230.9,139.1,280.9,206.1,331.2c13.9,10.4,28.4,18.1,46.5,17.2
	c13.8-0.7,25.5-6.1,36.4-14.2c68.1-50.9,136.3-101.8,204.4-152.7C495,180.2,496.7,179.1,499.5,177.1z"/>
<path class="st0" d="M249.9,67.2c66.4,0,132.8,0,199.2,0c24.5,0,41.9,12.6,48.3,34.7c5.3,18.5-1.2,37.4-18.4,50.3
	c-69.6,52.5-139.3,104.9-209.1,157.2c-13.1,9.8-27.6,9.7-40.9-0.3C159.4,257,89.8,204.8,20.4,152.4c-23.3-17.6-27.1-46.7-9.2-68.6
	c10-12.3,24.1-16.5,39.4-16.5C117.1,67.1,183.5,67.2,249.9,67.2z"/>
</svg>
