<?xml version="1.0" encoding="UTF-8"?><svg id="a" xmlns="http://www.w3.org/2000/svg" viewBox="0 0 2493.84 1989.03"><defs><style>.b{fill:#f4f4f4;}.c{fill:#d4d4d4;}.d{fill:#010000;}.e{fill:#fe2217;}</style></defs><rect class="c" width="2493.84" height="1989.03"/><g><path class="e" d="M1501.85,1387.43h-509.86c.38-2.11-1.44-1.63-2.41-1.89-32.2-8.82-52.47-29.33-60.69-61.73-.24-.95,.31-2.84-1.88-2.36V667.59c2.25,.62,1.67-1.33,1.91-2.27,8.46-32.76,29.08-53.32,61.81-61.8,.94-.24,2.9,.34,2.27-1.91h389.89q1.31,1.64,3.28,2.06c15.85,3.38,29.77,10.62,41.33,21.87,38.86,37.83,77.58,75.82,116.24,113.86,10.36,10.19,18.21,22,21.23,36.54,.18,.89,.03,2.5,1.87,1.62v541.88c-2.24-.56-1.65,1.36-1.87,2.31-7.59,33.37-27.93,54.54-60.84,63.74-.95,.27-2.85-.26-2.27,1.94Zm-548.06-393.01c0,102.63,0,205.26,.03,307.89,0,4.32-.06,8.72,.66,12.95,4.77,27.78,26.5,45.8,55.67,45.81,157.77,.08,315.54,.04,473.31,.03,10.5,0,20.56-2.01,29.6-7.59,18.5-11.42,26.77-28.34,26.76-49.82-.04-169.11-.12-338.21,.14-507.32,.02-16.15-5.43-28.88-16.84-39.97-36.79-35.76-73.5-71.62-109.88-107.81-13.96-13.89-30.22-20.58-49.75-20.28-14.82,.23-29.65,.04-44.48,.04-102.29,0-204.58,.03-306.87-.05-11.03,0-21.62,1.45-31.18,7.22-18.78,11.33-27.24,28.21-27.22,50,.11,102.96,.05,205.93,.05,308.89Z"/><path class="b" d="M953.79,994.42c0-102.96,.06-205.93-.05-308.89-.02-21.79,8.44-38.67,27.22-50,9.56-5.77,20.15-7.23,31.18-7.22,102.29,.08,204.58,.05,306.87,.05,14.83,0,29.66,.18,44.48-.04,19.53-.3,35.79,6.39,49.75,20.28,36.37,36.19,73.08,72.04,109.88,107.81,11.41,11.09,16.86,23.82,16.84,39.97-.26,169.11-.18,338.21-.14,507.32,0,21.48-8.26,38.4-26.76,49.82-9.04,5.58-19.11,7.59-29.6,7.59-157.77,.02-315.54,.05-473.31-.03-29.17-.01-50.9-18.03-55.67-45.81-.73-4.23-.66-8.63-.66-12.95-.03-102.63-.03-205.26-.03-307.89Zm306.23-194.41c-.41-4.97-.53-9.99-1.27-14.91-1.73-11.55-5.7-21.98-16.38-28.36-14.34-8.57-29.88-1.98-33.63,14.27-2.89,12.54-1.6,25.16-.29,37.77,1.95,18.69,7.53,36.41,14.21,53.84,1.03,2.7,1.41,5.16,.29,8.12-11.68,30.95-24.67,61.34-37.47,91.83-6.16,14.68-14.95,24.03-29.49,30.17-18.82,7.94-36.89,17.7-53.23,30.25-7.56,5.81-14.71,12.09-19.42,20.55-7.82,14.07-.35,29.29,15.53,32.09,9.61,1.69,18.53-.66,27.13-4.54,14.21-6.42,24.39-17.72,34.41-29.13,14.56-16.58,25.89-35.46,37.87-53.86,2.19-3.36,4.83-5.38,8.7-6.73,25.64-8.92,51.8-15.8,78.4-21.15,4.02-.81,6.65-.26,9.73,2.5,21.48,19.22,46.15,31.87,75.07,35.27,11.06,1.3,22,.82,32.14-4.46,8.48-4.41,12.05-11.7,10.84-21.06-1.51-11.61-9.02-18.11-19.03-22.39-11.23-4.8-23.19-5.81-35.19-6.17-20.56-.6-40.84,2.44-61.14,5.14-2.2,.29-3.98,.65-5.72-1.53-13.04-16.42-26.55-32.5-38.14-50.02-10.14-15.31-10.07-15.37-5.36-33.22,5.57-21.09,10.83-42.23,11.42-64.25Zm-52.72,414.24c0,18.82,.05,37.65-.05,56.47-.01,2.76,.24,4.27,3.66,4.17,10.65-.32,21.32-.04,31.97-.47,19.01-.78,32.44-10.35,39.89-27.58,8.37-19.36,9.06-39.4,2.47-59.46-6.45-19.62-20.34-30.01-40.84-31.99-10.82-1.05-21.64-.23-32.45-.71-3.69-.16-4.8,.78-4.75,4.62,.22,18.32,.1,36.64,.1,54.97Zm-89.25,.45c0,18.31,.2,36.62-.14,54.92-.08,4.65,1.37,5.68,5.54,5.26,3.29-.34,6.67-.3,9.97,0,3.48,.31,4.48-.83,4.42-4.36-.22-12.65,.1-25.3-.2-37.95-.1-4.12,1.31-4.93,5.04-4.83,5.81,.16,11.66-.03,17.46-.49,16.24-1.29,26.53-9.61,30.31-24.3,1.34-5.19,1.73-10.5,1.23-15.85-1.78-19-13.14-30.01-32.15-31.68-12.47-1.1-24.95-.32-37.42-.74-3.24-.11-4.18,.78-4.15,4.09,.16,18.64,.08,37.28,.08,55.92Zm190.89-.09c0,18.49,.14,36.99-.11,55.48-.05,4.06,1.19,5.15,4.99,4.82,3.47-.31,7.01-.3,10.48,0,3.56,.31,4.43-.99,4.39-4.45-.19-14.83-.01-29.66-.14-44.48-.02-2.79,.7-3.73,3.58-3.65,7.33,.2,14.66,.07,21.99,.07,12.27,0,12.17,0,11.94-12.2-.05-2.85-.86-3.64-3.66-3.6-10.16,.16-20.33-.02-30.49,.12-2.61,.04-3.41-.69-3.36-3.34,.15-9.66,.22-19.33-.03-28.99-.09-3.48,1.2-4.06,4.28-4.01,10.49,.17,20.99,.06,31.49,.06,11.37,0,11.22,0,11.32-11.41,.03-3.56-1.03-4.41-4.48-4.38-19.32,.16-38.65,.18-57.98-.01-3.66-.04-4.31,1.16-4.28,4.5,.16,18.49,.07,36.99,.07,55.48Z"/><path class="e" d="M1260.01,800.01c-.59,22.02-5.85,43.16-11.42,64.25-4.71,17.86-4.78,17.91,5.36,33.22,11.6,17.52,25.1,33.59,38.14,50.02,1.74,2.18,3.51,1.82,5.72,1.53,20.3-2.7,40.58-5.74,61.14-5.14,12,.35,23.96,1.37,35.19,6.17,10.02,4.28,17.53,10.79,19.03,22.39,1.22,9.36-2.35,16.65-10.84,21.06-10.15,5.28-21.08,5.76-32.14,4.46-28.92-3.41-53.59-16.05-75.07-35.27-3.08-2.76-5.71-3.31-9.73-2.5-26.6,5.36-52.76,12.23-78.4,21.15-3.88,1.35-6.52,3.37-8.7,6.73-11.98,18.4-23.31,37.28-37.87,53.86-10.02,11.41-20.2,22.71-34.41,29.13-8.6,3.88-17.52,6.24-27.13,4.54-15.88-2.8-23.35-18.02-15.53-32.09,4.71-8.46,11.86-14.75,19.42-20.55,16.33-12.55,34.41-22.3,53.23-30.25,14.55-6.14,23.33-15.49,29.49-30.17,12.8-30.49,25.79-60.89,37.47-91.83,1.11-2.95,.74-5.42-.29-8.12-6.67-17.43-12.26-35.16-14.21-53.84-1.31-12.6-2.61-25.22,.29-37.77,3.75-16.25,19.29-22.84,33.63-14.27,10.68,6.38,14.65,16.81,16.38,28.36,.74,4.92,.87,9.94,1.27,14.91Zm25.46,151.62c-17.35-19.53-32.35-39.27-46.15-60.66-9.05,27.83-20.1,54.01-31.64,80.87,25.54-8.98,50.94-15.29,77.78-20.22Zm15.09,5.19c1.63,1.28,2.48,1.99,3.38,2.65,16.45,12,35,19.6,54.22,25.75,4.58,1.47,9.31,2.46,14.21,2.34,8.56-.21,15.16-5.16,16.9-12.79,1.64-7.18-2.34-14.25-10.2-18.01-5.78-2.77-11.95-3.9-18.32-4.27-19.89-1.15-39.51,1.34-60.18,4.33Zm-135.5,40.3c-7.53,3.77-15.08,7.53-22.6,11.33-14.41,7.28-28.56,14.99-40.99,25.44-4.86,4.09-9.4,8.53-12.18,14.35-2.22,4.64-2.48,9.24,1.15,13.51,3.75,4.42,8.41,5.04,13.55,3.29,5.87-2,11.35-4.89,15.94-9.06,18.53-16.8,32.75-37.01,45.14-58.87Zm63.23-143.27c6.58-21.14,11.33-41.47,13.35-62.37,.64-6.61,.77-13.3-1.3-19.78-1.53-4.77-6.31-8.78-10.91-8.94-4.95-.17-7.96,2.89-10.17,6.84-1.88,3.36-3.02,7.03-3.37,10.87-2.32,25.09,4.21,48.68,12.41,73.37Z"/><path class="d" d="M1207.29,1214.25c0-18.32,.12-36.65-.1-54.97-.05-3.84,1.06-4.78,4.75-4.62,10.8,.48,21.63-.33,32.45,.71,20.5,1.99,34.4,12.38,40.84,31.99,6.59,20.05,5.9,40.1-2.47,59.46-7.45,17.23-20.89,26.8-39.89,27.58-10.64,.44-21.32,.16-31.97,.47-3.42,.1-3.68-1.41-3.66-4.17,.1-18.82,.05-37.65,.05-56.47Zm19.64,.21c0,13.66-.01,27.32,.02,40.97,0,1.71-.64,3.82,2.38,3.89,16.47,.35,29.47-2.23,35.85-21.63,4.97-15.13,4.74-30.49,.31-45.69-2.92-10.01-9.19-17.23-19.57-20.19-4.85-1.38-9.86-1.3-14.85-1.46-3.24-.1-4.25,.81-4.21,4.14,.19,13.32,.08,26.65,.08,39.97Z"/><path class="d" d="M1118.04,1214.69c0-18.64,.08-37.28-.08-55.92-.03-3.31,.91-4.2,4.15-4.09,12.47,.42,24.94-.36,37.42,.74,19.01,1.67,30.38,12.68,32.15,31.68,.5,5.34,.1,10.65-1.23,15.85-3.78,14.69-14.07,23.01-30.31,24.3-5.8,.46-11.65,.65-17.46,.49-3.73-.1-5.14,.71-5.04,4.83,.3,12.64-.03,25.3,.2,37.95,.06,3.54-.94,4.67-4.42,4.36-3.3-.29-6.68-.33-9.97,0-4.17,.42-5.62-.61-5.54-5.26,.33-18.3,.14-36.62,.14-54.92Zm30.29-44.73c-2.16,0-4.34,.19-6.48-.04-3.21-.35-4.24,.73-4.18,4.07,.21,11.47,.12,22.95,.05,34.42-.01,2.41,.04,4.13,3.32,3.98,4.81-.22,9.63-.11,14.43-.77,9.67-1.33,14.77-6.65,15.54-16.41,1.39-17.58-5.12-24.82-22.67-25.24Z"/><path class="d" d="M1308.93,1214.61c0-18.49,.08-36.99-.07-55.48-.03-3.34,.62-4.54,4.28-4.5,19.32,.2,38.65,.18,57.98,.01,3.45-.03,4.51,.82,4.48,4.38-.1,11.41,.06,11.41-11.32,11.41-10.5,0-20.99,.1-31.49-.06-3.08-.05-4.37,.53-4.28,4.01,.25,9.66,.18,19.33,.03,28.99-.04,2.65,.75,3.38,3.36,3.34,10.16-.14,20.33,.04,30.49-.12,2.8-.04,3.61,.75,3.66,3.6,.23,12.2,.33,12.2-11.94,12.2-7.33,0-14.66,.13-21.99-.07-2.88-.08-3.61,.86-3.58,3.65,.13,14.83-.05,29.66,.14,44.48,.04,3.46-.82,4.76-4.39,4.45-3.47-.3-7.01-.31-10.48,0-3.8,.34-5.04-.76-4.99-4.82,.24-18.49,.11-36.99,.11-55.48Z"/><path class="b" d="M1285.47,951.62c-26.85,4.92-52.24,11.24-77.78,20.22,11.54-26.87,22.59-53.04,31.64-80.87,13.79,21.38,28.79,41.13,46.15,60.66Z"/><path class="b" d="M1300.56,956.82c20.67-2.99,40.29-5.48,60.18-4.33,6.37,.37,12.53,1.5,18.32,4.27,7.86,3.76,11.84,10.84,10.2,18.01-1.74,7.62-8.34,12.57-16.9,12.79-4.9,.12-9.63-.87-14.21-2.34-19.22-6.15-37.77-13.75-54.22-25.75-.9-.65-1.75-1.37-3.38-2.65Z"/><path class="b" d="M1165.06,997.11c-12.38,21.86-26.61,42.07-45.14,58.87-4.59,4.16-10.07,7.06-15.94,9.06-5.15,1.75-9.8,1.14-13.55-3.29-3.62-4.27-3.37-8.87-1.15-13.51,2.79-5.82,7.32-10.26,12.18-14.35,12.43-10.46,26.58-18.17,40.99-25.44,7.52-3.8,15.07-7.55,22.6-11.33Z"/><path class="b" d="M1228.28,853.84c-8.19-24.69-14.73-48.28-12.41-73.37,.36-3.84,1.49-7.51,3.37-10.87,2.21-3.95,5.23-7.01,10.17-6.84,4.6,.16,9.38,4.17,10.91,8.94,2.08,6.47,1.94,13.16,1.3,19.78-2.02,20.9-6.77,41.23-13.35,62.37Z"/><path class="b" d="M1226.94,1214.46c0-13.32,.11-26.65-.08-39.97-.05-3.33,.97-4.24,4.21-4.14,5,.16,10,.08,14.85,1.46,10.38,2.96,16.65,10.18,19.57,20.19,4.44,15.19,4.66,30.56-.31,45.69-6.38,19.4-19.38,21.98-35.85,21.63-3.02-.06-2.38-2.18-2.38-3.89-.03-13.66-.02-27.32-.02-40.97Z"/><path class="b" d="M1148.33,1169.97c17.56,.42,24.06,7.65,22.67,25.23-.77,9.76-5.87,15.08-15.54,16.41-4.8,.66-9.61,.55-14.43,.77-3.28,.15-3.33-1.57-3.32-3.98,.07-11.47,.16-22.95-.05-34.42-.06-3.34,.97-4.42,4.18-4.07,2.14,.23,4.32,.04,6.48,.05Z"/></g></svg>