<?xml version="1.0" encoding="utf-8"?>
<!-- Generator: Adobe Illustrator 26.2.1, SVG Export Plug-In . SVG Version: 6.00 Build 0)  -->
<svg version="1.1" id="Layer_1" xmlns="http://www.w3.org/2000/svg" xmlns:xlink="http://www.w3.org/1999/xlink" x="0px" y="0px"
	 viewBox="0 0 500 500" style="enable-background:new 0 0 500 500;" xml:space="preserve">
<style type="text/css">
	.st0{fill:#358597;}
</style>
<path class="st0" d="M212,120.1c0-27.2-0.2-54.3,0.1-81.5c0.1-17.7,8.3-29.3,23.8-35c15.8-5.8,32.9-1.6,43.6,10.7
	c7.6,8.7,8.5,19.3,8.6,30c0.1,52.5,0.2,104.9-0.1,157.4c-0.1,8.1,2.2,10.4,10.3,10.3c53.8-0.3,107.6-0.2,161.3-0.1
	c15.1,0,28,5.4,34.8,19.7c7.4,15.4,5.8,30.6-5.2,44.1c-8.3,10.2-19.9,12.4-32.3,12.4c-53,0-106,0.2-158.9-0.2
	c-8.4-0.1-10,2.4-10,10.3c0.4,52.7,0.2,105.4,0.1,158.2c0,12.6-2.6,24.4-12.8,33.1c-12.5,10.7-26.9,11.7-41.2,6
	c-14.7-5.8-21.9-18.2-22-34c-0.2-27.4-0.1-54.9-0.1-82.3c0-27.4-0.2-54.9,0.1-82.3c0.1-7.1-2.3-9-9.2-9c-53,0.3-106,0.2-158.9,0.1
	c-9.7,0-19.2-0.8-27.3-6.9C3,271.2-2.3,254,3,237c4.8-15.4,18.1-25,35.9-25.1c53.8-0.2,107.6-0.1,161.3-0.1c11.7,0,11.7,0,11.7-11.9
	C212,173.3,212,146.7,212,120.1C212,120.1,212,120.1,212,120.1z"/>
</svg>
