<?xml version="1.0" encoding="utf-8"?>
<!-- Generator: Adobe Illustrator 26.3.0, SVG Export Plug-In . SVG Version: 6.00 Build 0)  -->
<svg version="1.1" id="Layer_1" xmlns="http://www.w3.org/2000/svg" xmlns:xlink="http://www.w3.org/1999/xlink" x="0px" y="0px"
	 viewBox="0 0 502 502" style="enable-background:new 0 0 502 502;" xml:space="preserve">
<style type="text/css">
	.st0{fill:#358597;}
</style>
<g>
	<path class="st0" d="M29.6,269.6c-5.5,0-8.4,0.4-11.1-0.1c-9.8-1.5-17.1-9.7-16.4-19c0.7-10,6.4-16.2,16.3-17.9
		c4.3-0.7,8.8-0.6,13.2-0.2c7.2,0.6,10.4-1.6,11.6-9.5C57.1,127.2,127.3,56.9,222.6,43c7.7-1.1,10.4-3.9,9.7-11.4
		c-0.4-4.3-0.4-8.8,0.2-13.2c1.3-9.8,9.6-17.1,19-16.4c10.1,0.7,16,6.4,18.1,16.2c0.1,0.4,0.1,0.8,0.1,1.2
		c0.8,7.3-0.9,17.2,3.2,21.3c4.4,4.4,14.3,3.2,21.7,4.7c84.8,16.9,152.1,88.6,164.2,176c1.2,8.9,4.4,11.1,12.7,11
		c19.8-0.3,28.8,6.2,28.5,19.1c-0.3,12.4-9,18.3-28.3,18.1c-8.1-0.1-11.7,1.5-13,10.7c-13.1,93-85.4,165.3-178.3,178.4
		c-9,1.3-11.1,4.4-10.9,12.8c0.5,19.1-5.5,28-17.9,28.4c-12.9,0.5-19.5-8.6-19.3-28.3c0.1-8.2-1.7-11.6-10.8-12.9
		c-92.1-12.9-164-83.7-178-175.9C41.8,270.9,37.3,267.9,29.6,269.6z M231.3,422.6c2.9-13.8-4.4-35.5,18.7-36.2
		c24.7-0.8,18.2,21.8,20.5,36.4c95-8.2,152.4-96.4,151.3-152.4c-13.8-2.1-34.4,4.2-35.3-18.2c-1.1-25.3,21.7-18.2,36.2-20.9
		C415.9,142.5,333.1,80.5,270.5,80c-2.1,14.2,4,35.3-19.2,35.6c-24.3,0.2-17.2-21.9-19.8-36.1c-81,4.9-149,80.8-151.8,152.2
		c14.6,1.7,36.2-4.1,35.9,19.9c-0.4,23.1-21.8,16.5-35.8,19C82.2,340.1,148.5,417.1,231.3,422.6z"/>
	<path class="st0" d="M327.3,251.2c-0.1,42-34.8,76.5-76.6,76.1c-42.3-0.4-76.1-34.5-76-76.6c0.1-42,34.4-76,76.6-76
		C293.3,174.7,327.3,209,327.3,251.2z M251.1,212.3c-21.5-0.1-38.7,17.1-38.8,38.6c-0.1,21.5,17.1,38.8,38.6,38.8
		c21.5,0.1,38.8-17.2,38.8-38.6C289.7,229.6,272.5,212.3,251.1,212.3z"/>
</g>
</svg>
