<svg id="Layer_1" data-name="Layer 1" xmlns="http://www.w3.org/2000/svg" viewBox="0 0 435.43 498"><defs><style>.cls-1{fill:#368597;}</style></defs><path class="cls-1" d="M216.73,498q-89.92,0-179.85,0c-18.29,0-31.8-8-35.43-23.32-2.12-9-1.56-18.9-.57-28.23,3.21-30.25,13.52-58,32.07-82.31,27.88-36.55,64.37-59.1,110-65.72,13.63-2,27.55-2.42,41.35-2.64,24.88-.41,49.78-.21,74.67-.1,39.73.18,76.64,9.63,108.67,34.18C402,356.14,424,390.27,431.7,433.1c1.67,9.33,2.69,18.81,3.57,28.26,1.94,20.91-13.73,36.54-36.73,36.59q-67.53.14-135.06,0Z"/><path class="cls-1" d="M217.71,248.53c-70.87-2-124.16-51.56-124.29-124.39C93.28,52.66,145.25,0,217.47,0c71.09,0,123.61,51.36,124,123.57C341.81,194.27,290.71,246,217.71,248.53Z"/></svg>