<?xml version="1.0" encoding="UTF-8"?><svg id="a" xmlns="http://www.w3.org/2000/svg" viewBox="0 0 435.43 498"><defs><style>.b{fill:#368597;}</style></defs><path class="b" d="M216.73,497.98c-59.95,0-119.9,.02-179.85-.01-18.29-.01-31.8-8.01-35.43-23.32-2.13-8.97-1.56-18.9-.57-28.23,3.21-30.25,13.51-57.99,32.07-82.31,27.88-36.55,64.37-59.1,110.03-65.72,13.63-1.98,27.55-2.42,41.35-2.64,24.88-.4,49.78-.21,74.67-.09,39.73,.18,76.65,9.62,108.67,34.18,34.32,26.32,56.33,60.44,64.03,103.27,1.68,9.34,2.69,18.81,3.57,28.27,1.95,20.91-13.73,36.54-36.73,36.59-45.02,.09-90.04,.03-135.05,.03-15.58,0-31.17,0-46.75,0Z"/><path class="b" d="M217.71,248.53c-70.88-2-124.16-51.56-124.3-124.39C93.28,52.66,145.25,.01,217.47,0c71.09-.01,123.61,51.36,123.98,123.57,.36,70.7-50.74,122.44-123.74,124.95Z"/></svg>