<?xml version="1.0" encoding="utf-8"?>
<!-- Generator: Adobe Illustrator 26.2.1, SVG Export Plug-In . SVG Version: 6.00 Build 0)  -->
<svg version="1.1" id="Layer_1" xmlns="http://www.w3.org/2000/svg" xmlns:xlink="http://www.w3.org/1999/xlink" x="0px" y="0px"
	 viewBox="0 0 500 500" style="enable-background:new 0 0 500 500;" xml:space="preserve">
<style type="text/css">
	.st0{fill:#358597;}
</style>
<path class="st0" d="M249.1,1C107.2,3.3,0.3,115.5,1.2,251.2c1,141.2,113.5,248.4,249.5,247.8c140.8-0.6,248.8-112.7,248.2-249.6
	C498.2,108.1,385.6,1.6,249.1,1z M250.7,125.3c39.2,0.4,70.4,32.3,69.6,71.4s-32.3,69.7-71.3,69.2c-39-0.6-69.9-32.2-69.3-71
	C180.3,155.8,211.8,124.9,250.7,125.3z M380.8,383.6c-0.5,0.5-1,1-1.6,1.6c-0.5,0.5-1,1-1.6,1.6c-1,1-2.1,2.1-3.1,3
	c-0.6,0.5-1.2,1.2-1.8,1.7c-0.5,0.5-1.2,1-1.7,1.6c-1.7,1.6-3.4,3-5.2,4.4c-0.6,0.5-1.2,0.9-1.8,1.4c-0.6,0.5-1.2,0.9-1.8,1.4
	c-0.6,0.5-1.2,0.9-1.8,1.3c-0.6,0.5-1.2,0.9-1.8,1.3c-1.3,0.9-2.5,1.8-3.8,2.6c-0.6,0.4-1.3,0.9-1.9,1.3c-0.6,0.4-1.3,0.9-1.9,1.3
	c-1.9,1.3-3.9,2.5-5.8,3.6c-0.6,0.4-1.3,0.8-1.9,1.2c-0.5,0.4-1.2,0.6-1.8,1c-0.8,0.4-1.4,0.8-2.2,1.2c-1.3,0.6-2.5,1.3-3.8,1.9
	c-0.1,0-0.1,0.1-0.3,0.1c-0.6,0.4-1.4,0.6-2.1,1c-1.2,0.6-2.3,1.2-3.6,1.7c-0.1,0.1-0.4,0.1-0.5,0.3c-0.6,0.3-1.4,0.6-2.1,0.9
	c-0.6,0.3-1.4,0.6-2.1,0.9c-1,0.5-2.2,0.9-3.2,1.3c-0.3,0.1-0.6,0.3-1,0.4c-1.4,0.5-2.9,1.2-4.3,1.7c-1.4,0.5-2.9,1-4.3,1.6
	c-0.8,0.3-1.4,0.5-2.2,0.8c-1.4,0.5-3,0.9-4.4,1.4c-1.4,0.4-3,0.9-4.4,1.3c-0.5,0.1-1,0.3-1.7,0.4c-0.9,0.3-1.9,0.5-2.9,0.8
	c-1.4,0.4-2.7,0.6-4.2,1c-3.1,0.6-6.2,1.3-9.3,1.8c-0.6,0.1-1.3,0.3-1.9,0.4c-2.5,0.4-4.9,0.8-7.4,1c-0.6,0.1-1.4,0.1-2.1,0.3
	c-0.4,0-0.8,0.1-1.2,0.1c-0.6,0-1.3,0.1-1.9,0.1c-1.3,0.1-2.6,0.3-3.9,0.3c-0.8,0.1-1.6,0.1-2.3,0.1s-1.6,0.1-2.3,0.1
	s-1.6,0.1-2.3,0.1c-49.3,1.8-100.6-15.2-139.3-54.4c8.1-19,19.3-35.2,35.5-47.7c15.3-11.8,32.7-19.7,51.7-20.6
	c30.4-1.4,61.2-2.6,91.3,0.3c36.4,3.4,63.4,23.6,80.8,56c1.3,2.3,2.5,4.8,3.5,7.3c0.6,1.4,1.4,3,2.1,4.4
	C381.8,382.5,381.3,383,380.8,383.6z"/>
</svg>
