<?xml version="1.0" encoding="utf-8"?>
<!-- Generator: Adobe Illustrator 26.2.1, SVG Export Plug-In . SVG Version: 6.00 Build 0)  -->
<svg version="1.1" id="Layer_1" xmlns="http://www.w3.org/2000/svg" xmlns:xlink="http://www.w3.org/1999/xlink" x="0px" y="0px"
	 viewBox="0 0 502 502" style="enable-background:new 0 0 502 502;" xml:space="preserve">
<style type="text/css">
	.st0{fill:#358597;}
</style>
<path class="st0" d="M330,362.5c-52.3,41-109.9,52.7-172.2,39.2c-46.3-10-84.1-35.2-113-72.6c-63.3-81.8-54.9-198.1,15.3-268.6
	c72.8-73.1,188.4-79.7,269.4-15.4c43.5,34.6,68.8,80.4,74.7,135.7c5.8,54.9-7.1,105.3-43.4,150.7c2.3,1.5,4.7,2.5,6.3,4.1
	c40.6,40.5,81.2,81.1,121.8,121.8c2.3,2.3,4.4,4.8,6.4,7.3c6.3,8.4,6.4,17.4,0.3,26.5c-5.2,7.8-14.7,11.9-23.8,8.7
	c-5.5-1.9-11-5.3-15.2-9.4c-40.6-40.2-81-80.7-121.4-121.2C333.4,367.5,332,365.2,330,362.5z M204.5,47.3
	c-87.5,1.5-155.9,68-156,155.8c-0.1,90.5,67.9,157.1,155.2,157.5c86.2,0.4,156-65.1,156.3-157C360.3,115.8,292.1,49,204.5,47.3z"/>
</svg>
